<?xml version="1.0" encoding="UTF-8" standalone="no"?>
<!DOCTYPE svg PUBLIC "-//W3C//DTD SVG 1.1//EN" "http://www.w3.org/Graphics/SVG/1.1/DTD/svg11.dtd">
<svg width="100%" height="100%" viewBox="0 0 53 65" version="1.1" xmlns="http://www.w3.org/2000/svg" xmlns:xlink="http://www.w3.org/1999/xlink" xml:space="preserve" xmlns:serif="http://www.serif.com/" style="fill-rule:evenodd;clip-rule:evenodd;stroke-linejoin:round;stroke-miterlimit:1.41421;">
    <g transform="matrix(1,0,0,1,-1625.28,-19.8512)">
        <g>
            <g transform="matrix(0.0918031,0,0,0.0921991,1677.78,84.0042)">
                <path d="M0,-695.81L-571.868,-695.81L-571.339,-285.763C-571.126,-127.84 -442.905,0 -284.995,-0.218C-127.082,-0.43 0.81,-128.649 0.598,-286.571L0,-695.81Z" style="fill:rgb(40,57,120);fill-rule:nonzero;"/>
            </g>
            <g transform="matrix(0.0918031,0,0,0.0918031,1674.5,61.809)">
                <path d="M0,-348.754C1.729,-94.189 1.745,-81.537 1.915,-16.412L-217.499,-16.412C-236.323,0 -255.141,-0.724 -273.951,-16.412L-501.6,-16.412L-501.6,-348.754L0,-348.754Z" style="fill:rgb(40,57,120);fill-rule:nonzero;"/>
            </g>
            <g transform="matrix(0.0918031,0,0,0.0918031,1673.37,59.5491)">
                <path d="M0,-334.016C1.645,-111.871 1.861,-69.023 2.023,-12.192L-206.802,-12.192C-224.718,2.13 -242.627,1.499 -260.53,-12.192L-477.192,-12.192L-477.393,-334.016L-260.53,-334.041C-244.833,-336.146 -235.634,-332.766 -233.367,-323.537C-230.88,-333.044 -221.218,-335.785 -206.802,-334.041L0,-334.016Z" style="fill:white;fill-rule:nonzero;"/>
            </g>
            <g transform="matrix(0.0918031,0,0,0.0918031,1623.47,-21.5841)">
                <rect x="85.093" y="572.29" width="196.453" height="10.67" style="fill:rgb(170,170,170);"/>
            </g>
            <g transform="matrix(0.0918031,0,0,0.0918031,1623.47,-16.7792)">
                <rect x="85.093" y="546.121" width="196.453" height="10.669" style="fill:rgb(170,170,170);"/>
            </g>
            <g transform="matrix(0.0918031,0,0,0.0918031,1623.47,-12.3181)">
                <rect x="85.093" y="521.824" width="196.453" height="10.669" style="fill:rgb(170,170,170);"/>
            </g>
            <g transform="matrix(0.0918031,0,0,0.0918031,1623.47,-8.08543)">
                <rect x="85.093" y="498.771" width="196.453" height="10.669" style="fill:rgb(170,170,170);"/>
            </g>
            <g transform="matrix(0.0918031,0,0,0.0918031,1623.47,-3.73873)">
                <rect x="85.093" y="475.097" width="196.453" height="10.669" style="fill:rgb(170,170,170);"/>
            </g>
            <g transform="matrix(0.0918031,0,0,0.0918031,1623.47,0.72253)">
                <rect x="85.093" y="450.799" width="196.453" height="10.669" style="fill:rgb(170,170,170);"/>
            </g>
            <g transform="matrix(0.0918031,0,0,0.0918031,1623.47,4.95511)">
                <rect x="85.093" y="427.746" width="196.453" height="10.67" style="fill:rgb(170,170,170);"/>
            </g>
            <g transform="matrix(0.0918031,0,0,0.0918031,1623.47,8.95883)">
                <rect x="85.093" y="405.94" width="196.453" height="10.67" style="fill:rgb(170,170,170);"/>
            </g>
            <g transform="matrix(0.0918031,0,0,0.0918031,1623.47,15.0648)">
                <rect x="85.093" y="373.308" width="65.355" height="9.423" style="fill:rgb(170,170,170);"/>
            </g>
            <g transform="matrix(0.0918031,0,0,0.0918031,1623.47,19.2902)">
                <rect x="85.093" y="350.294" width="65.355" height="9.424" style="fill:rgb(170,170,170);"/>
            </g>
            <g transform="matrix(0.0918031,0,0,0.0918031,1623.47,23.5071)">
                <rect x="85.093" y="327.327" width="65.355" height="9.424" style="fill:rgb(170,170,170);"/>
            </g>
            <g transform="matrix(0.0918031,0,0,0.0918031,1623.47,27.7239)">
                <rect x="85.093" y="304.361" width="65.355" height="9.423" style="fill:rgb(170,170,170);"/>
            </g>
            <g transform="matrix(0.0918031,0,0,0.0918031,1623.47,20.1551)">
                <rect x="155.027" y="304.775" width="126.518" height="91.041" style="fill:rgb(170,170,170);"/>
            </g>
            <g transform="matrix(-0.0918031,0,0,0.0918031,1702.43,27.61)">
                <rect x="331.813" y="304.358" width="196.454" height="10.669" style="fill:rgb(170,170,170);"/>
            </g>
            <g transform="matrix(-0.0918031,0,0,0.0918031,1702.43,22.8052)">
                <rect x="331.813" y="330.527" width="196.454" height="10.669" style="fill:rgb(170,170,170);"/>
            </g>
            <g transform="matrix(-0.0918031,0,0,0.0918031,1702.43,18.3441)">
                <rect x="331.813" y="354.824" width="196.454" height="10.67" style="fill:rgb(170,170,170);"/>
            </g>
            <g transform="matrix(-0.0918031,0,0,0.0918031,1702.43,14.1113)">
                <rect x="331.813" y="377.878" width="196.454" height="10.669" style="fill:rgb(170,170,170);"/>
            </g>
            <g transform="matrix(-0.0918031,0,0,0.0918031,1702.43,9.7644)">
                <rect x="331.813" y="401.553" width="196.454" height="10.669" style="fill:rgb(170,170,170);"/>
            </g>
            <g transform="matrix(-0.0918031,0,0,0.0918031,1702.43,5.30332)">
                <rect x="331.813" y="425.85" width="196.454" height="10.669" style="fill:rgb(170,170,170);"/>
            </g>
            <g transform="matrix(-0.0918031,0,0,0.0918031,1702.43,1.07083)">
                <rect x="331.813" y="448.902" width="196.454" height="10.669" style="fill:rgb(170,170,170);"/>
            </g>
            <g transform="matrix(-0.0918031,0,0,0.0918031,1702.43,-2.93289)">
                <rect x="331.813" y="470.708" width="196.454" height="10.669" style="fill:rgb(170,170,170);"/>
            </g>
            <g transform="matrix(-0.0918031,0,0,0.0918031,1714.47,-9.0389)">
                <rect x="462.912" y="504.587" width="65.355" height="9.423" style="fill:rgb(170,170,170);"/>
            </g>
            <g transform="matrix(-0.0918031,0,0,0.0918031,1714.47,-13.2644)">
                <rect x="462.912" y="527.601" width="65.355" height="9.423" style="fill:rgb(170,170,170);"/>
            </g>
            <g transform="matrix(-0.0918031,0,0,0.0918031,1714.47,-17.4811)">
                <rect x="462.912" y="550.567" width="65.355" height="9.423" style="fill:rgb(170,170,170);"/>
            </g>
            <g transform="matrix(-0.0918031,0,0,0.0918031,1714.47,-21.698)">
                <rect x="462.912" y="573.534" width="65.355" height="9.423" style="fill:rgb(170,170,170);"/>
            </g>
            <g transform="matrix(0.0918031,0,0,0.0918031,1623.47,-14.2056)">
                <rect x="331.814" y="491.918" width="126.519" height="91.041" style="fill:rgb(170,170,170);"/>
            </g>
            <g transform="matrix(0.0918031,0,0,0.0918031,1656.02,62.29)">
                <path d="M0,-353.659L0,10.842L25.298,-0.899L49.692,8.736L49.692,-364.501L0,-364.167" style="fill:rgb(233,80,57);fill-rule:nonzero;"/>
            </g>
        </g>
    </g>
</svg>
