<?xml version="1.0" encoding="UTF-8" standalone="no"?>
<!DOCTYPE svg PUBLIC "-//W3C//DTD SVG 1.1//EN" "http://www.w3.org/Graphics/SVG/1.1/DTD/svg11.dtd">
<svg width="100%" height="100%" viewBox="0 0 32 32" version="1.1" xmlns="http://www.w3.org/2000/svg" xmlns:xlink="http://www.w3.org/1999/xlink" xml:space="preserve" xmlns:serif="http://www.serif.com/" style="fill-rule:evenodd;clip-rule:evenodd;stroke-linecap:round;stroke-linejoin:round;stroke-miterlimit:1.5;">
    <g transform="matrix(1,0,0,1,-10.1856,-265.39)">
        <g>
            <g transform="matrix(1,0,0,1,-4227.03,-2403.82)">
                <path d="M4268,2674.5C4268,2672.02 4265.98,2670 4263.5,2670L4242.5,2670C4240.02,2670 4238,2672.02 4238,2674.5L4238,2695.5C4238,2697.98 4240.02,2700 4242.5,2700L4263.5,2700C4265.98,2700 4268,2697.98 4268,2695.5L4268,2674.5Z" style="fill:white;stroke:rgb(233,80,57);stroke-width:1.57px;"/>
            </g>
            <g transform="matrix(1,0,0,1,-4228.03,-2403.32)">
                <path d="M4247,2689L4253,2694L4262,2675" style="fill:none;stroke:rgb(233,80,57);stroke-width:1.57px;"/>
            </g>
        </g>
    </g>
</svg>
