<?xml version="1.0" encoding="UTF-8" standalone="no"?>
<!DOCTYPE svg PUBLIC "-//W3C//DTD SVG 1.1//EN" "http://www.w3.org/Graphics/SVG/1.1/DTD/svg11.dtd">
<svg width="100%" height="100%" viewBox="0 0 53 65" version="1.1" xmlns="http://www.w3.org/2000/svg" xmlns:xlink="http://www.w3.org/1999/xlink" xml:space="preserve" xmlns:serif="http://www.serif.com/" style="fill-rule:evenodd;clip-rule:evenodd;stroke-linejoin:round;stroke-miterlimit:1.41421;">
    <g transform="matrix(1,0,0,1,-1697.05,-19.8512)">
        <g>
            <g transform="matrix(0.0922218,0,0,0.0922218,1749.79,84.0201)">
                <path d="M0,-695.81L-571.869,-695.81L-571.339,-285.763C-571.126,-127.84 -442.906,0 -284.996,-0.218C-127.082,-0.43 0.809,-128.649 0.598,-286.571L0,-695.81Z" style="fill:rgb(40,57,120);fill-rule:nonzero;"/>
            </g>
            <g transform="matrix(0.0922218,0,0,0.0922218,1724.71,40.1753)">
                <path d="M0,472.459C5.407,470.714 10.446,467.905 15.02,463.974C22.988,457.117 27.97,448.46 29.806,438.076C31.5,428.47 30.178,419.236 25.694,410.586C19.208,398.061 8.917,390.357 -4.887,387.249L-4.887,386.002C-4.887,354.452 -4.892,322.904 -4.873,291.354C-4.873,290.041 -4.708,288.718 -4.524,287.415C-4.05,283.992 -2.647,280.891 -0.941,277.943C-0.11,276.507 0.924,275.135 2.089,273.955C4.359,271.66 6.8,269.53 9.154,267.318C11.218,265.377 13.266,263.416 15.323,261.469C17.409,259.49 19.498,257.517 21.582,255.536C23.582,253.645 25.58,251.75 27.575,249.851C29.657,247.873 31.74,245.891 33.824,243.912C36.027,241.828 38.232,239.741 40.436,237.656C42.23,235.954 44.022,234.248 45.819,232.544C48.489,230.019 51.164,227.5 53.838,224.974C55.962,222.975 58.178,221.063 60.184,218.947C63.08,215.898 65.56,212.523 67.7,208.882C69.659,205.548 71.195,202.044 72.38,198.394C73.735,194.216 74.207,189.892 74.193,185.489C74.143,172.438 74.163,159.385 74.155,146.333L74.155,144.992L91.728,144.992C92.016,143.379 91.937,93.011 91.66,92.157C91.521,92.136 91.365,92.092 91.21,92.092C74.114,92.087 57.021,92.087 39.92,92.087C39.766,92.087 39.607,92.122 39.454,92.15C39.415,92.153 39.384,92.188 39.353,92.215C39.325,92.239 39.301,92.271 39.257,92.322L39.257,144.996C42.21,144.996 45.084,144.989 47.958,144.996C50.822,145.003 53.689,144.969 56.661,145.022L56.661,146.488C56.653,159.898 56.651,173.313 56.63,186.723C56.63,187.844 56.568,188.967 56.426,190.072C55.955,193.727 54.738,197.11 52.854,200.293C51.798,202.072 50.578,203.663 49.074,205.06C47.493,206.524 45.904,207.979 44.333,209.457C42.24,211.426 40.162,213.411 38.082,215.389C36.023,217.338 33.973,219.294 31.915,221.243C29.889,223.164 27.855,225.084 25.829,227.008C23.829,228.902 21.833,230.798 19.835,232.693C17.812,234.617 15.786,236.544 13.76,238.463C11.705,240.417 9.644,242.364 7.586,244.315C4.245,247.479 0.909,250.647 -2.433,253.807C-3.167,254.504 -3.915,255.182 -4.814,256.018L-4.814,52.605L16.84,52.605C16.172,51.376 15.623,50.318 15.027,49.291C13.62,46.876 12.174,44.488 10.773,42.071C9.192,39.338 7.661,36.578 6.083,33.847C4.805,31.638 3.461,29.466 2.185,27.255C0.51,24.347 -1.107,21.405 -2.781,18.495C-4.016,16.349 -5.328,14.246 -6.559,12.098C-8.386,8.909 -10.164,5.694 -11.982,2.502C-12.447,1.686 -12.999,0.917 -13.596,-0.003C-13.885,0.445 -14.104,0.763 -14.298,1.098C-15.542,3.241 -16.766,5.396 -18.017,7.534C-19.328,9.774 -20.682,11.987 -21.974,14.234C-23.611,17.074 -25.19,19.945 -26.824,22.784C-28.098,24.996 -29.436,27.173 -30.715,29.382C-32.316,32.148 -33.872,34.936 -35.468,37.705C-37.103,40.542 -38.752,43.368 -40.4,46.196C-41.162,47.509 -41.954,48.805 -42.699,50.126C-43.133,50.897 -43.506,51.704 -43.99,52.664L-22.483,52.664C-22.455,52.947 -22.418,53.141 -22.418,53.333C-22.429,142.734 -22.442,232.138 -22.46,321.539C-22.46,321.577 -22.48,321.621 -22.509,321.647C-22.535,321.67 -22.583,321.67 -22.725,321.711C-23.094,321.321 -23.47,320.867 -23.9,320.467C-25.592,318.886 -27.312,317.335 -28.998,315.745C-31.7,313.198 -34.382,310.631 -37.074,308.073C-39.129,306.118 -41.186,304.165 -43.247,302.215C-44.874,300.677 -46.514,299.15 -48.142,297.613C-49.447,296.383 -50.743,295.142 -52.042,293.904C-53.749,292.281 -55.447,290.645 -57.167,289.031C-58.532,287.745 -59.936,286.498 -61.299,285.208C-62.951,283.646 -64.57,282.046 -66.221,280.48C-67.724,279.049 -69.261,277.653 -70.764,276.221C-72.18,274.873 -73.466,273.362 -74.989,272.156C-78.095,269.698 -80.124,266.48 -81.745,262.982C-83.226,259.79 -83.913,256.367 -83.918,252.845C-83.938,238.711 -83.932,224.577 -83.932,210.445C-83.932,210.054 -83.896,209.663 -83.877,209.254C-77.63,206.868 -72.818,202.915 -69.569,197.056C-66.308,191.173 -65.576,184.965 -67.008,178.497C-69.599,166.772 -80.077,158.285 -92.108,158.058C-104.442,157.824 -114.481,165.637 -117.939,176.639C-119.893,182.856 -119.576,189.102 -116.82,195.129C-113.683,201.984 -108.52,206.635 -101.452,209.28L-101.452,210.877C-101.455,224.45 -101.434,238.022 -101.476,251.595C-101.495,257.647 -100.299,263.42 -97.845,268.943C-97.423,269.893 -97.06,270.875 -96.562,271.785C-95.26,274.162 -93.979,276.551 -92.366,278.754C-90.804,280.887 -89.222,282.993 -87.349,284.857C-86.329,285.874 -85.226,286.805 -84.187,287.8C-81.708,290.176 -79.261,292.581 -76.771,294.941C-74.135,297.444 -71.454,299.897 -68.807,302.383C-66.711,304.352 -64.636,306.34 -62.551,308.317C-60.493,310.269 -58.436,312.216 -56.382,314.167C-54.353,316.09 -52.325,318.013 -50.299,319.936C-48.272,321.859 -46.242,323.779 -44.223,325.709C-42.605,327.257 -41.023,328.835 -39.397,330.372C-36.257,333.338 -33.091,336.275 -29.956,339.246C-29.231,339.932 -28.54,340.659 -27.912,341.434C-26.572,343.088 -25.603,344.972 -24.703,346.896C-23.136,350.254 -22.408,353.777 -22.411,357.471C-22.418,366.959 -22.411,376.448 -22.411,385.937L-22.411,387.353C-30.19,388.849 -36.957,392.295 -42.815,397.468C-48.683,402.654 -52.956,408.97 -55.375,416.425C-57.784,423.848 -58.391,431.386 -56.813,439.135C-53.569,455.066 -42.054,467.691 -26.864,472.462L0,472.459Z" style="fill:white;fill-rule:nonzero;"/>
            </g>
            <g transform="matrix(0.0922218,0,0,0.0922218,1713.3,20.4043)">
                <path d="M0,191.7C75.41,191.805 150.82,191.751 226.226,191.733C243.805,191.729 255.884,182.849 263.115,167.472C270.284,152.225 266.792,134.755 255.485,122.541C246.976,113.348 235.974,109.976 223.267,108.516C233.323,88.699 235.394,68.835 227.113,48.699C218.8,28.474 203.721,15.175 182.814,9.171C150.511,-0.105 102.925,16.773 96.765,71.992C95.318,69.51 94.236,67.598 93.101,65.72C83.853,50.398 66.684,42.346 48.189,45.939C31.114,49.257 20.159,60.159 15.251,76.793C13.758,81.856 11.934,91.877 11.934,91.877C11.934,91.877 1.334,92.808 -4.154,93.363C-30.071,95.973 -47.88,118.978 -46.572,147.984C-45.543,170.822 -23.579,191.667 0,191.7" style="fill:white;fill-rule:nonzero;"/>
            </g>
        </g>
    </g>
</svg>
