<?xml version="1.0" encoding="UTF-8" standalone="no"?>
<!DOCTYPE svg PUBLIC "-//W3C//DTD SVG 1.1//EN" "http://www.w3.org/Graphics/SVG/1.1/DTD/svg11.dtd">
<svg width="100%" height="100%" viewBox="0 0 55 40" version="1.1" xmlns="http://www.w3.org/2000/svg" xmlns:xlink="http://www.w3.org/1999/xlink" xml:space="preserve" xmlns:serif="http://www.serif.com/" style="fill-rule:evenodd;clip-rule:evenodd;stroke-linejoin:round;stroke-miterlimit:1.41421;">
    <g transform="matrix(1,0,0,1,-105.703,-944.507)">
        <g transform="matrix(1.86026,0,0,2.00717,-23655.2,-878.895)">
            <g transform="matrix(1,0,0,1,4324.19,-1242.86)">
                <rect x="8453.77" y="2151.72" width="1.294" height="3.544" style="fill:rgb(40,57,120);"/>
            </g>
            <g transform="matrix(1,0,0,1,4334.11,-1243.28)">
                <rect x="8453.77" y="2151.72" width="1.294" height="3.544" style="fill:rgb(40,57,120);"/>
            </g>
            <g>
                <g transform="matrix(1.07039,0,0,1.06029,3728,-1373.77)">
                    <path d="M8465.84,2155L8465.89,2155L8465.95,2155L8466,2155.01L8466.06,2155.01L8466.11,2155.01L8466.17,2155.02L8466.22,2155.02L8466.27,2155.03L8466.33,2155.03L8466.38,2155.04L8466.44,2155.05L8466.49,2155.05L8466.54,2155.06L8466.6,2155.07L8466.65,2155.08L8466.7,2155.09L8466.75,2155.1L8466.81,2155.12L8466.86,2155.13L8466.91,2155.14L8466.96,2155.15L8467.01,2155.17L8467.06,2155.18L8467.11,2155.2L8467.16,2155.21L8467.21,2155.23L8467.26,2155.25L8467.31,2155.26L8467.36,2155.28L8467.41,2155.3L8467.46,2155.32L8467.51,2155.34L8467.56,2155.36L8467.6,2155.38L8467.65,2155.4L8467.7,2155.42L8467.75,2155.44L8467.79,2155.47L8467.84,2155.49L8467.88,2155.51L8467.93,2155.54L8467.97,2155.56L8468.02,2155.59L8468.06,2155.61L8468.11,2155.64L8468.15,2155.66L8468.19,2155.69L8468.24,2155.72L8468.28,2155.75L8468.32,2155.78L8468.36,2155.8L8468.4,2155.83L8468.44,2155.86L8468.49,2155.89L8468.53,2155.92L8468.57,2155.95L8468.6,2155.99L8468.64,2156.02L8468.68,2156.05L8468.72,2156.08L8468.76,2156.12L8468.8,2156.15L8468.83,2156.18L8468.87,2156.22L8468.91,2156.25L8468.94,2156.29L8468.98,2156.32L8469.01,2156.36L8469.05,2156.4L8469.08,2156.43L8469.11,2156.47L8469.14,2156.51L8469.18,2156.55L8469.21,2156.59L8469.24,2156.63L8469.27,2156.66L8469.3,2156.7L8469.33,2156.74L8469.36,2156.78L8469.39,2156.82L8469.42,2156.87L8469.44,2156.91L8469.47,2156.95L8469.5,2156.99L8469.53,2157.03L8469.55,2157.07L8469.58,2157.12L8469.6,2157.16L8469.63,2157.2L8469.65,2157.25L8469.67,2157.29L8469.69,2157.34L8469.72,2157.38L8469.74,2157.42L8469.76,2157.47L8469.78,2157.51L8469.8,2157.56L8469.82,2157.61L8469.84,2157.65L8469.85,2157.7L8469.87,2157.75L8469.89,2157.79L8469.9,2157.84L8469.92,2157.89L8469.93,2157.94L8469.95,2157.98L8469.96,2158.03L8469.98,2158.08L8469.99,2158.13L8470,2158.18L8470.01,2158.23L8470.02,2158.28L8470.03,2158.33L8470.04,2158.38L8470.05,2158.43L8470.06,2158.48L8470.06,2158.53L8470.07,2158.58L8470.08,2158.63L8470.08,2158.68L8470.09,2158.73L8470.09,2158.78L8470.09,2158.83L8470.09,2158.89L8470.1,2158.94L8470.1,2158.99L8470.1,2159.04L8470.1,2167.12L8470.1,2167.18L8470.1,2167.23L8470.09,2167.28L8470.09,2167.33L8470.09,2167.38L8470.09,2167.43L8470.08,2167.49L8470.08,2167.54L8470.07,2167.59L8470.06,2167.64L8470.06,2167.69L8470.05,2167.74L8470.04,2167.79L8470.03,2167.84L8470.02,2167.89L8470.01,2167.94L8470,2167.99L8469.99,2168.04L8469.98,2168.09L8469.96,2168.13L8469.95,2168.18L8469.93,2168.23L8469.92,2168.28L8469.9,2168.33L8469.89,2168.37L8469.87,2168.42L8469.85,2168.47L8469.84,2168.51L8469.82,2168.56L8469.8,2168.61L8469.78,2168.65L8469.76,2168.7L8469.74,2168.74L8469.72,2168.79L8469.69,2168.83L8469.67,2168.88L8469.65,2168.92L8469.63,2168.96L8469.6,2169.01L8469.58,2169.05L8469.55,2169.09L8469.53,2169.14L8469.5,2169.18L8469.47,2169.22L8469.44,2169.26L8469.42,2169.3L8469.39,2169.34L8469.36,2169.38L8469.33,2169.42L8469.3,2169.46L8469.27,2169.5L8469.24,2169.54L8469.21,2169.58L8469.18,2169.62L8469.14,2169.66L8469.11,2169.69L8469.08,2169.73L8469.05,2169.77L8469.01,2169.8L8468.98,2169.84L8468.94,2169.88L8468.91,2169.91L8468.87,2169.95L8468.83,2169.98L8468.8,2170.01L8468.76,2170.05L8468.72,2170.08L8468.68,2170.12L8468.64,2170.15L8468.6,2170.18L8468.57,2170.21L8468.53,2170.24L8468.49,2170.27L8468.44,2170.3L8468.4,2170.33L8468.36,2170.36L8468.32,2170.39L8468.28,2170.42L8468.24,2170.45L8468.19,2170.47L8468.15,2170.5L8468.11,2170.53L8468.06,2170.55L8468.02,2170.58L8467.97,2170.61L8467.93,2170.63L8467.88,2170.65L8467.84,2170.68L8467.79,2170.7L8467.75,2170.72L8467.7,2170.74L8467.65,2170.77L8467.6,2170.79L8467.56,2170.81L8467.51,2170.83L8467.46,2170.85L8467.41,2170.87L8467.36,2170.89L8467.31,2170.9L8467.26,2170.92L8467.21,2170.94L8467.16,2170.95L8467.11,2170.97L8467.06,2170.98L8467.01,2171L8466.96,2171.01L8466.91,2171.03L8466.86,2171.04L8466.81,2171.05L8466.75,2171.06L8466.7,2171.07L8466.65,2171.08L8466.6,2171.09L8466.54,2171.1L8466.49,2171.11L8466.44,2171.12L8466.38,2171.13L8466.33,2171.13L8466.27,2171.14L8466.22,2171.14L8466.17,2171.15L8466.11,2171.15L8466.06,2171.16L8466,2171.16L8465.95,2171.16L8465.89,2171.16L8465.84,2171.16L8465.78,2171.17L8454.39,2171.17L8454.33,2171.16L8454.28,2171.16L8454.22,2171.16L8454.17,2171.16L8454.11,2171.16L8454.06,2171.15L8454,2171.15L8453.95,2171.14L8453.89,2171.14L8453.84,2171.13L8453.78,2171.13L8453.73,2171.12L8453.68,2171.11L8453.62,2171.1L8453.57,2171.09L8453.52,2171.08L8453.47,2171.07L8453.41,2171.06L8453.36,2171.05L8453.31,2171.04L8453.26,2171.03L8453.21,2171.01L8453.16,2171L8453.1,2170.98L8453.05,2170.97L8453,2170.95L8452.95,2170.94L8452.9,2170.92L8452.85,2170.9L8452.81,2170.89L8452.76,2170.87L8452.71,2170.85L8452.66,2170.83L8452.61,2170.81L8452.56,2170.79L8452.52,2170.77L8452.47,2170.74L8452.42,2170.72L8452.38,2170.7L8452.33,2170.68L8452.28,2170.65L8452.24,2170.63L8452.19,2170.61L8452.15,2170.58L8452.1,2170.55L8452.06,2170.53L8452.02,2170.5L8451.97,2170.47L8451.93,2170.45L8451.89,2170.42L8451.85,2170.39L8451.81,2170.36L8451.76,2170.33L8451.72,2170.3L8451.68,2170.27L8451.64,2170.24L8451.6,2170.21L8451.56,2170.18L8451.52,2170.15L8451.49,2170.12L8451.45,2170.08L8451.41,2170.05L8451.37,2170.01L8451.34,2169.98L8451.3,2169.95L8451.26,2169.91L8451.23,2169.88L8451.19,2169.84L8451.16,2169.8L8451.12,2169.77L8451.09,2169.73L8451.06,2169.69L8451.02,2169.66L8450.99,2169.62L8450.96,2169.58L8450.93,2169.54L8450.9,2169.5L8450.87,2169.46L8450.84,2169.42L8450.81,2169.38L8450.78,2169.34L8450.75,2169.3L8450.72,2169.26L8450.69,2169.22L8450.67,2169.18L8450.64,2169.14L8450.62,2169.09L8450.59,2169.05L8450.57,2169.01L8450.54,2168.96L8450.52,2168.92L8450.5,2168.88L8450.47,2168.83L8450.45,2168.79L8450.43,2168.74L8450.41,2168.7L8450.39,2168.65L8450.37,2168.61L8450.35,2168.56L8450.33,2168.51L8450.31,2168.47L8450.3,2168.42L8450.28,2168.37L8450.26,2168.33L8450.25,2168.28L8450.23,2168.23L8450.22,2168.18L8450.2,2168.13L8450.19,2168.09L8450.18,2168.04L8450.17,2167.99L8450.16,2167.94L8450.15,2167.89L8450.14,2167.84L8450.13,2167.79L8450.12,2167.74L8450.11,2167.69L8450.1,2167.64L8450.1,2167.59L8450.09,2167.54L8450.09,2167.49L8450.08,2167.43L8450.08,2167.38L8450.08,2167.33L8450.07,2167.28L8450.07,2167.23L8450.07,2167.18L8450.07,2167.12L8450.07,2159.04L8450.07,2158.99L8450.07,2158.94L8450.07,2158.89L8450.08,2158.83L8450.08,2158.78L8450.08,2158.73L8450.09,2158.68L8450.09,2158.63L8450.1,2158.58L8450.1,2158.53L8450.11,2158.48L8450.12,2158.43L8450.13,2158.38L8450.14,2158.33L8450.15,2158.28L8450.16,2158.23L8450.17,2158.18L8450.18,2158.13L8450.19,2158.08L8450.2,2158.03L8450.22,2157.98L8450.23,2157.94L8450.25,2157.89L8450.26,2157.84L8450.28,2157.79L8450.3,2157.75L8450.31,2157.7L8450.33,2157.65L8450.35,2157.61L8450.37,2157.56L8450.39,2157.51L8450.41,2157.47L8450.43,2157.42L8450.45,2157.38L8450.47,2157.34L8450.5,2157.29L8450.52,2157.25L8450.54,2157.2L8450.57,2157.16L8450.59,2157.12L8450.62,2157.07L8450.64,2157.03L8450.67,2156.99L8450.69,2156.95L8450.72,2156.91L8450.75,2156.87L8450.78,2156.82L8450.81,2156.78L8450.84,2156.74L8450.87,2156.7L8450.9,2156.66L8450.93,2156.63L8450.96,2156.59L8450.99,2156.55L8451.02,2156.51L8451.06,2156.47L8451.09,2156.43L8451.12,2156.4L8451.16,2156.36L8451.19,2156.32L8451.23,2156.29L8451.26,2156.25L8451.3,2156.22L8451.34,2156.18L8451.37,2156.15L8451.41,2156.12L8451.45,2156.08L8451.49,2156.05L8451.52,2156.02L8451.56,2155.99L8451.6,2155.95L8451.64,2155.92L8451.68,2155.89L8451.72,2155.86L8451.76,2155.83L8451.81,2155.8L8451.85,2155.78L8451.89,2155.75L8451.93,2155.72L8451.97,2155.69L8452.02,2155.66L8452.06,2155.64L8452.1,2155.61L8452.15,2155.59L8452.19,2155.56L8452.24,2155.54L8452.28,2155.51L8452.33,2155.49L8452.38,2155.47L8452.42,2155.44L8452.47,2155.42L8452.52,2155.4L8452.56,2155.38L8452.61,2155.36L8452.66,2155.34L8452.71,2155.32L8452.76,2155.3L8452.81,2155.28L8452.85,2155.26L8452.9,2155.25L8452.95,2155.23L8453,2155.21L8453.05,2155.2L8453.1,2155.18L8453.16,2155.17L8453.21,2155.15L8453.26,2155.14L8453.31,2155.13L8453.36,2155.12L8453.41,2155.1L8453.47,2155.09L8453.52,2155.08L8453.57,2155.07L8453.62,2155.06L8453.68,2155.05L8453.73,2155.05L8453.78,2155.04L8453.84,2155.03L8453.89,2155.03L8453.95,2155.02L8454,2155.02L8454.06,2155.01L8454.11,2155.01L8454.17,2155.01L8454.22,2155L8454.28,2155L8454.33,2155L8454.39,2155L8465.78,2155L8465.84,2155ZM8454.39,2156.15L8454.35,2156.15L8454.31,2156.15L8454.27,2156.15L8454.23,2156.15L8454.19,2156.15L8454.15,2156.15L8454.11,2156.16L8454.07,2156.16L8454.03,2156.16L8453.99,2156.17L8453.95,2156.17L8453.92,2156.18L8453.88,2156.18L8453.84,2156.19L8453.8,2156.2L8453.76,2156.2L8453.73,2156.21L8453.69,2156.22L8453.65,2156.23L8453.61,2156.24L8453.58,2156.25L8453.54,2156.26L8453.5,2156.26L8453.47,2156.28L8453.43,2156.29L8453.4,2156.3L8453.36,2156.31L8453.33,2156.32L8453.29,2156.33L8453.25,2156.35L8453.22,2156.36L8453.18,2156.37L8453.15,2156.39L8453.12,2156.4L8453.08,2156.42L8453.05,2156.43L8453.01,2156.45L8452.98,2156.46L8452.95,2156.48L8452.91,2156.49L8452.88,2156.51L8452.85,2156.53L8452.82,2156.55L8452.78,2156.56L8452.75,2156.58L8452.72,2156.6L8452.69,2156.62L8452.66,2156.64L8452.63,2156.66L8452.6,2156.68L8452.57,2156.7L8452.54,2156.72L8452.51,2156.74L8452.48,2156.76L8452.45,2156.78L8452.42,2156.81L8452.39,2156.83L8452.36,2156.85L8452.34,2156.88L8452.31,2156.9L8452.28,2156.92L8452.25,2156.95L8452.23,2156.97L8452.2,2156.99L8452.17,2157.02L8452.15,2157.04L8452.12,2157.07L8452.1,2157.1L8452.07,2157.12L8452.05,2157.15L8452.02,2157.17L8452,2157.2L8451.98,2157.23L8451.95,2157.26L8451.93,2157.28L8451.91,2157.31L8451.89,2157.34L8451.86,2157.37L8451.84,2157.39L8451.82,2157.42L8451.8,2157.45L8451.78,2157.48L8451.76,2157.51L8451.74,2157.54L8451.72,2157.57L8451.7,2157.6L8451.68,2157.63L8451.67,2157.66L8451.65,2157.69L8451.63,2157.72L8451.61,2157.76L8451.6,2157.79L8451.58,2157.82L8451.57,2157.85L8451.55,2157.88L8451.53,2157.92L8451.52,2157.95L8451.51,2157.98L8451.49,2158.01L8451.48,2158.05L8451.47,2158.08L8451.45,2158.11L8451.44,2158.15L8451.43,2158.18L8451.42,2158.22L8451.41,2158.25L8451.4,2158.28L8451.39,2158.32L8451.38,2158.35L8451.37,2158.39L8451.36,2158.42L8451.35,2158.46L8451.35,2158.49L8451.34,2158.53L8451.33,2158.56L8451.33,2158.6L8451.32,2158.64L8451.32,2158.67L8451.31,2158.71L8451.31,2158.74L8451.31,2158.78L8451.3,2158.82L8451.3,2158.86L8451.3,2158.89L8451.3,2158.93L8451.29,2158.97L8451.29,2159L8451.29,2159.05L8451.29,2167.12L8451.29,2167.16L8451.29,2167.2L8451.3,2167.24L8451.3,2167.27L8451.3,2167.31L8451.3,2167.35L8451.31,2167.39L8451.31,2167.42L8451.31,2167.46L8451.32,2167.49L8451.32,2167.53L8451.33,2167.57L8451.33,2167.6L8451.34,2167.64L8451.35,2167.67L8451.35,2167.71L8451.36,2167.74L8451.37,2167.78L8451.38,2167.81L8451.39,2167.85L8451.4,2167.88L8451.41,2167.92L8451.42,2167.95L8451.43,2167.99L8451.44,2168.02L8451.45,2168.05L8451.47,2168.09L8451.48,2168.12L8451.49,2168.15L8451.51,2168.18L8451.52,2168.22L8451.53,2168.25L8451.55,2168.28L8451.57,2168.32L8451.58,2168.35L8451.6,2168.38L8451.61,2168.41L8451.63,2168.44L8451.65,2168.47L8451.67,2168.5L8451.68,2168.53L8451.7,2168.56L8451.72,2168.6L8451.74,2168.62L8451.76,2168.65L8451.78,2168.68L8451.8,2168.71L8451.82,2168.74L8451.84,2168.77L8451.86,2168.8L8451.89,2168.83L8451.91,2168.86L8451.93,2168.88L8451.95,2168.91L8451.98,2168.94L8452,2168.97L8452.02,2168.99L8452.05,2169.02L8452.07,2169.05L8452.1,2169.07L8452.12,2169.1L8452.15,2169.12L8452.17,2169.15L8452.2,2169.17L8452.23,2169.2L8452.25,2169.22L8452.28,2169.24L8452.31,2169.27L8452.34,2169.29L8452.36,2169.31L8452.39,2169.34L8452.42,2169.36L8452.45,2169.38L8452.48,2169.4L8452.51,2169.43L8452.54,2169.45L8452.57,2169.47L8452.6,2169.49L8452.63,2169.51L8452.66,2169.53L8452.69,2169.55L8452.72,2169.57L8452.75,2169.58L8452.78,2169.6L8452.82,2169.62L8452.85,2169.64L8452.88,2169.66L8452.92,2169.67L8452.95,2169.69L8452.98,2169.7L8453.01,2169.72L8453.05,2169.74L8453.08,2169.75L8453.12,2169.76L8453.15,2169.78L8453.18,2169.79L8453.22,2169.81L8453.25,2169.82L8453.29,2169.83L8453.33,2169.85L8453.36,2169.86L8453.4,2169.87L8453.43,2169.88L8453.47,2169.89L8453.5,2169.9L8453.54,2169.91L8453.58,2169.92L8453.61,2169.93L8453.65,2169.94L8453.69,2169.95L8453.73,2169.95L8453.76,2169.96L8453.8,2169.97L8453.84,2169.97L8453.88,2169.98L8453.92,2169.99L8453.95,2169.99L8453.99,2170L8454.03,2170L8454.07,2170.01L8454.11,2170.01L8454.15,2170.01L8454.19,2170.01L8454.23,2170.02L8454.27,2170.02L8454.31,2170.02L8454.35,2170.02L8454.39,2170.02L8465.78,2170.02L8465.82,2170.02L8465.86,2170.02L8465.9,2170.02L8465.94,2170.02L8465.98,2170.01L8466.02,2170.01L8466.06,2170.01L8466.1,2170.01L8466.14,2170L8466.17,2170L8466.21,2169.99L8466.25,2169.99L8466.29,2169.98L8466.33,2169.97L8466.37,2169.97L8466.4,2169.96L8466.44,2169.95L8466.48,2169.95L8466.52,2169.94L8466.55,2169.93L8466.59,2169.92L8466.63,2169.91L8466.66,2169.9L8466.7,2169.89L8466.74,2169.88L8466.77,2169.87L8466.81,2169.86L8466.84,2169.85L8466.88,2169.83L8466.91,2169.82L8466.95,2169.81L8466.98,2169.79L8467.02,2169.78L8467.05,2169.76L8467.09,2169.75L8467.12,2169.74L8467.15,2169.72L8467.19,2169.7L8467.22,2169.69L8467.25,2169.67L8467.29,2169.66L8467.32,2169.64L8467.35,2169.62L8467.38,2169.6L8467.42,2169.58L8467.45,2169.57L8467.48,2169.55L8467.51,2169.53L8467.54,2169.51L8467.57,2169.49L8467.6,2169.47L8467.63,2169.45L8467.66,2169.43L8467.69,2169.4L8467.72,2169.38L8467.75,2169.36L8467.78,2169.34L8467.8,2169.31L8467.83,2169.29L8467.86,2169.27L8467.89,2169.24L8467.91,2169.22L8467.94,2169.2L8467.97,2169.17L8467.99,2169.15L8468.02,2169.12L8468.05,2169.1L8468.07,2169.07L8468.09,2169.05L8468.12,2169.02L8468.14,2168.99L8468.17,2168.97L8468.19,2168.94L8468.22,2168.91L8468.24,2168.88L8468.26,2168.86L8468.28,2168.83L8468.3,2168.8L8468.33,2168.77L8468.35,2168.74L8468.37,2168.71L8468.39,2168.68L8468.41,2168.65L8468.43,2168.63L8468.45,2168.6L8468.47,2168.56L8468.48,2168.53L8468.5,2168.5L8468.52,2168.47L8468.54,2168.44L8468.55,2168.41L8468.57,2168.38L8468.59,2168.35L8468.6,2168.32L8468.62,2168.28L8468.63,2168.25L8468.65,2168.22L8468.66,2168.18L8468.67,2168.15L8468.69,2168.12L8468.7,2168.09L8468.71,2168.05L8468.72,2168.02L8468.74,2167.99L8468.75,2167.95L8468.76,2167.92L8468.77,2167.88L8468.78,2167.85L8468.79,2167.81L8468.8,2167.78L8468.8,2167.74L8468.81,2167.71L8468.82,2167.67L8468.83,2167.64L8468.83,2167.6L8468.84,2167.57L8468.84,2167.53L8468.85,2167.49L8468.85,2167.46L8468.86,2167.42L8468.86,2167.39L8468.87,2167.35L8468.87,2167.31L8468.87,2167.27L8468.87,2167.24L8468.87,2167.2L8468.88,2167.16L8468.88,2167.12L8468.88,2159.05L8468.88,2159L8468.87,2158.97L8468.87,2158.93L8468.87,2158.89L8468.87,2158.86L8468.87,2158.82L8468.86,2158.78L8468.86,2158.74L8468.85,2158.71L8468.85,2158.67L8468.84,2158.64L8468.84,2158.6L8468.83,2158.56L8468.83,2158.53L8468.82,2158.49L8468.81,2158.46L8468.8,2158.42L8468.8,2158.39L8468.79,2158.35L8468.78,2158.32L8468.77,2158.28L8468.76,2158.25L8468.75,2158.22L8468.74,2158.18L8468.72,2158.15L8468.71,2158.11L8468.7,2158.08L8468.69,2158.05L8468.67,2158.01L8468.66,2157.98L8468.65,2157.95L8468.63,2157.92L8468.62,2157.88L8468.6,2157.85L8468.59,2157.82L8468.57,2157.79L8468.55,2157.76L8468.54,2157.72L8468.52,2157.69L8468.5,2157.66L8468.48,2157.63L8468.47,2157.6L8468.45,2157.57L8468.43,2157.54L8468.41,2157.51L8468.39,2157.48L8468.37,2157.45L8468.35,2157.42L8468.33,2157.39L8468.3,2157.37L8468.28,2157.34L8468.26,2157.31L8468.24,2157.28L8468.22,2157.26L8468.19,2157.23L8468.17,2157.2L8468.14,2157.17L8468.12,2157.15L8468.09,2157.12L8468.07,2157.1L8468.05,2157.07L8468.02,2157.04L8467.99,2157.02L8467.97,2156.99L8467.94,2156.97L8467.91,2156.95L8467.89,2156.92L8467.86,2156.9L8467.83,2156.88L8467.8,2156.85L8467.78,2156.83L8467.75,2156.81L8467.72,2156.78L8467.69,2156.76L8467.66,2156.74L8467.63,2156.72L8467.6,2156.7L8467.57,2156.68L8467.54,2156.66L8467.51,2156.64L8467.48,2156.62L8467.45,2156.6L8467.41,2156.58L8467.38,2156.56L8467.35,2156.55L8467.32,2156.53L8467.29,2156.51L8467.25,2156.49L8467.22,2156.48L8467.19,2156.46L8467.15,2156.45L8467.12,2156.43L8467.09,2156.42L8467.05,2156.4L8467.02,2156.39L8466.98,2156.37L8466.95,2156.36L8466.91,2156.35L8466.88,2156.33L8466.84,2156.32L8466.81,2156.31L8466.77,2156.3L8466.74,2156.29L8466.7,2156.28L8466.66,2156.26L8466.63,2156.26L8466.59,2156.25L8466.55,2156.24L8466.52,2156.23L8466.48,2156.22L8466.44,2156.21L8466.4,2156.2L8466.37,2156.2L8466.33,2156.19L8466.29,2156.18L8466.25,2156.18L8466.21,2156.17L8466.17,2156.17L8466.14,2156.16L8466.1,2156.16L8466.06,2156.16L8466.02,2156.15L8465.98,2156.15L8465.94,2156.15L8465.9,2156.15L8465.86,2156.15L8465.82,2156.15L8465.77,2156.15L8454.39,2156.15Z" style="fill:rgb(40,57,120);"/>
                </g>
                <g transform="matrix(1.05502,0,0,0.784939,3858.1,-778.531)">
                    <path d="M8468.95,2159.05L8450.86,2159.05L8450.86,2155L8468.95,2155L8468.95,2159.05ZM8452.1,2156.55L8452.1,2157.51L8467.71,2157.51L8467.71,2156.55L8452.1,2156.55Z" style="fill:rgb(40,57,120);"/>
                </g>
                <g transform="matrix(1,0,0,1,4324.19,-1242.86)">
                    <rect x="8451.13" y="2154.85" width="16.677" height="1.842" style="fill:rgb(40,57,120);"/>
                </g>
            </g>
            <g transform="matrix(2.89103e-17,0.472141,-0.472141,2.89103e-17,13830.3,-3070.55)">
                <path d="M8452.76,2178.13L8459.38,2188.2L8446.13,2188.2L8452.76,2178.13ZM8454.4,2185.43L8452.76,2182.92L8451.1,2185.43L8454.4,2185.43Z" style="fill:rgb(40,57,120);"/>
            </g>
        </g>
    </g>
</svg>
