<?xml version="1.0" encoding="UTF-8" standalone="no"?>
<!DOCTYPE svg PUBLIC "-//W3C//DTD SVG 1.1//EN" "http://www.w3.org/Graphics/SVG/1.1/DTD/svg11.dtd">
<svg width="100%" height="100%" viewBox="0 0 27 27" version="1.1" xmlns="http://www.w3.org/2000/svg" xmlns:xlink="http://www.w3.org/1999/xlink" xml:space="preserve" xmlns:serif="http://www.serif.com/" style="fill-rule:evenodd;clip-rule:evenodd;stroke-linejoin:round;stroke-miterlimit:1.41421;">
    <g transform="matrix(1,0,0,1,-1428.97,-223)">
        <g>
            <g transform="matrix(-0.596793,0.596793,-0.596793,-0.596793,7114.09,-816.541)">
                <path d="M5637,3850.5C5637,3849.67 5636.33,3849 5635.5,3849L5632.5,3849C5631.67,3849 5631,3849.67 5631,3850.5L5631,3888.5C5631,3889.33 5631.67,3890 5632.5,3890L5635.5,3890C5636.33,3890 5637,3889.33 5637,3888.5L5637,3850.5Z" style="fill:rgb(40,57,120);"/>
            </g>
            <g transform="matrix(0.596793,0.596793,-0.596793,0.596793,389.43,-5435.12)">
                <path d="M5637,3850.5C5637,3849.67 5636.33,3849 5635.5,3849L5632.5,3849C5631.67,3849 5631,3849.67 5631,3850.5L5631,3888.5C5631,3889.33 5631.67,3890 5632.5,3890L5635.5,3890C5636.33,3890 5637,3889.33 5637,3888.5L5637,3850.5Z" style="fill:rgb(40,57,120);"/>
            </g>
        </g>
    </g>
</svg>
