<?xml version="1.0" encoding="UTF-8" standalone="no"?>
<!DOCTYPE svg PUBLIC "-//W3C//DTD SVG 1.1//EN" "http://www.w3.org/Graphics/SVG/1.1/DTD/svg11.dtd">
<svg width="100%" height="100%" viewBox="0 0 358 438" version="1.1" xmlns="http://www.w3.org/2000/svg" xmlns:xlink="http://www.w3.org/1999/xlink" xml:space="preserve" xmlns:serif="http://www.serif.com/" style="fill-rule:evenodd;clip-rule:evenodd;stroke-miterlimit:10;">
    <g transform="matrix(1,0,0,1,-782,-354)">
        <rect id="_1" serif:id="1" x="0" y="0" width="1920" height="1080" style="fill:none;"/>
        <clipPath id="_clip1">
            <rect id="_11" serif:id="1" x="0" y="0" width="1920" height="1080"/>
        </clipPath>
        <g clip-path="url(#_clip1)">
            <g>
                <path d="M806.839,701.765C855.06,790.634 978.471,807.5 1058.37,759.237C1081.07,745.523 1100.3,726.121 1113.25,702.145L1107.25,533.411L818.017,510.435L806.839,701.765Z" style="fill:white;"/>
                <g transform="matrix(1,0,0,1,37.1163,97.0606)">
                    <g transform="matrix(1.12812,0,0,1.12812,792.348,408.431)">
                        <path d="M0,40.002L58.76,40.002L115.527,126.806L172.301,40.002L231.421,40.002L251.944,174.483C266.326,150.567 274.588,122.556 274.548,92.617L274.215,-134.481L-43.127,-134.481L-42.834,93.066C-42.795,122.688 -34.63,150.397 -20.466,174.105L0,40.002Z" style="fill:rgb(233,80,57);fill-rule:nonzero;"/>
                    </g>
                    <g transform="matrix(1.12812,0,0,1.12812,1008.21,666.718)">
                        <path d="M0,-88.277L-0.149,-89.175L-0.4,-89.175L-3.708,-110.893L-65.723,-16.066L-85.686,-16.066L-92.803,-26.595L-147.633,-110.454L-150.885,-89.175L-151.131,-89.175L-164.062,-4.424C-138.707,12.661 -108.153,22.616 -75.28,22.571C-42.672,22.528 -12.375,12.642 12.815,-4.263L0,-88.277Z" style="fill:rgb(40,57,120);fill-rule:nonzero;"/>
                    </g>
                    <g transform="matrix(1.12812,0,0,1.12812,944.669,312.23)">
                        <path d="M0,84.801C0,94.105 -8.649,101.642 -19.312,101.642C-29.977,101.642 -38.625,94.105 -38.625,84.801L-38.625,0.004C-38.625,-9.297 -29.977,-16.841 -19.312,-16.841C-8.649,-16.841 0,-9.297 0,0.004L0,84.801Z" style="fill:rgb(230,68,45);fill-rule:nonzero;stroke:white;stroke-width:12px;"/>
                    </g>
                </g>
            </g>
            <path d="M780.815,353.78L1138.83,353.761L1139.2,612.593C1137.67,719.053 1050.76,789.583 960.773,789.292C864.763,787.586 786.304,718.528 781.162,613.35L780.815,353.78Z" style="fill:none;"/>
        </g>
    </g>
</svg>
