<?xml version="1.0" encoding="UTF-8" standalone="no"?>
<!DOCTYPE svg PUBLIC "-//W3C//DTD SVG 1.1//EN" "http://www.w3.org/Graphics/SVG/1.1/DTD/svg11.dtd">
<svg width="100%" height="100%" viewBox="0 0 59 35" version="1.1" xmlns="http://www.w3.org/2000/svg" xmlns:xlink="http://www.w3.org/1999/xlink" xml:space="preserve" xmlns:serif="http://www.serif.com/" style="fill-rule:evenodd;clip-rule:evenodd;stroke-linejoin:round;stroke-miterlimit:1.41421;">
    <g transform="matrix(1,0,0,1,-26,-29)">
        <g>
            <g transform="matrix(0.641304,0,0,1,-4054.62,43.5)">
                <path d="M6455,15.5C6455,14.672 6453.95,14 6452.66,14L6365.34,14C6364.05,14 6363,14.672 6363,15.5L6363,18.5C6363,19.328 6364.05,20 6365.34,20L6452.66,20C6453.95,20 6455,19.328 6455,18.5L6455,15.5Z" style="fill:rgb(233,80,57);fill-opacity:0.890196;"/>
            </g>
            <g transform="matrix(0.641304,0,0,1,-4054.62,29.4167)">
                <path d="M6455,15.5C6455,14.672 6453.95,14 6452.66,14L6365.34,14C6364.05,14 6363,14.672 6363,15.5L6363,18.5C6363,19.328 6364.05,20 6365.34,20L6452.66,20C6453.95,20 6455,19.328 6455,18.5L6455,15.5Z" style="fill:rgb(233,80,57);fill-opacity:0.890196;"/>
            </g>
            <g transform="matrix(0.641304,0,0,1,-4054.62,15)">
                <path d="M6455,15.5C6455,14.672 6453.95,14 6452.66,14L6365.34,14C6364.05,14 6363,14.672 6363,15.5L6363,18.5C6363,19.328 6364.05,20 6365.34,20L6452.66,20C6453.95,20 6455,19.328 6455,18.5L6455,15.5Z" style="fill:rgb(233,80,57);fill-opacity:0.890196;"/>
            </g>
        </g>
    </g>
</svg>
