<?xml version="1.0" encoding="UTF-8" standalone="no"?>
<!DOCTYPE svg PUBLIC "-//W3C//DTD SVG 1.1//EN" "http://www.w3.org/Graphics/SVG/1.1/DTD/svg11.dtd">
<svg width="100%" height="100%" viewBox="0 0 42 42" version="1.1" xmlns="http://www.w3.org/2000/svg" xmlns:xlink="http://www.w3.org/1999/xlink" xml:space="preserve" xmlns:serif="http://www.serif.com/" style="fill-rule:evenodd;clip-rule:evenodd;stroke-linejoin:round;stroke-miterlimit:1.41421;">
    <g transform="matrix(1,0,0,1,-1494.97,-995.086)">
        <g>
            <g transform="matrix(0.782938,0,0,0.782938,-6255.7,858.038)">
                <circle cx="9926.13" cy="201.716" r="26.672" style="fill:white;fill-opacity:0;"/>
                <path d="M9926.31,175.044L9926.48,175.046L9926.65,175.048L9926.82,175.052L9926.99,175.057L9927.17,175.063L9927.34,175.07L9927.51,175.078L9927.68,175.087L9927.85,175.098L9928.02,175.109L9928.18,175.121L9928.35,175.135L9928.52,175.149L9928.69,175.165L9928.86,175.181L9929.03,175.199L9929.19,175.217L9929.36,175.237L9929.53,175.258L9929.7,175.28L9929.86,175.302L9930.03,175.326L9930.19,175.351L9930.36,175.377L9930.52,175.404L9930.69,175.431L9930.85,175.46L9931.02,175.49L9931.18,175.521L9931.34,175.553L9931.51,175.586L9931.67,175.62L9931.83,175.654L9931.99,175.69L9932.16,175.727L9932.32,175.765L9932.48,175.803L9932.64,175.843L9932.8,175.884L9932.96,175.925L9933.12,175.968L9933.27,176.011L9933.43,176.056L9933.59,176.101L9933.75,176.148L9933.91,176.195L9934.06,176.243L9934.22,176.293L9934.38,176.343L9934.53,176.394L9934.68,176.446L9934.84,176.499L9934.99,176.553L9935.15,176.607L9935.3,176.663L9935.45,176.72L9935.61,176.777L9935.76,176.835L9935.91,176.895L9936.06,176.955L9936.21,177.016L9936.36,177.078L9936.51,177.141L9936.66,177.205L9936.81,177.269L9936.96,177.335L9937.11,177.401L9937.25,177.468L9937.4,177.536L9937.55,177.605L9937.69,177.675L9937.84,177.746L9937.98,177.818L9938.13,177.89L9938.27,177.963L9938.42,178.037L9938.56,178.112L9938.7,178.188L9938.84,178.265L9938.99,178.342L9939.13,178.42L9939.27,178.499L9939.41,178.579L9939.55,178.66L9939.68,178.742L9939.82,178.824L9939.96,178.907L9940.1,178.991L9940.24,179.076L9940.37,179.161L9940.51,179.248L9940.64,179.335L9940.78,179.423L9940.91,179.512L9941.04,179.601L9941.18,179.692L9941.31,179.783L9941.44,179.874L9941.57,179.967L9941.7,180.06L9941.83,180.155L9941.96,180.249L9942.09,180.345L9942.22,180.442L9942.34,180.539L9942.6,180.735L9942.85,180.935L9943.1,181.137L9943.34,181.343L9943.59,181.551L9943.83,181.762L9944.06,181.976L9944.3,182.193L9944.53,182.412L9944.76,182.634L9944.99,182.859L9945.22,183.087L9945.44,183.317L9945.66,183.55L9945.87,183.786L9946.09,184.024L9946.3,184.265L9946.51,184.508L9946.71,184.754L9946.92,185.002L9947.11,185.253L9947.31,185.506L9947.41,185.633L9947.51,185.761L9947.6,185.89L9947.7,186.019L9947.79,186.149L9947.88,186.28L9947.98,186.411L9948.07,186.542L9948.16,186.675L9948.25,186.807L9948.34,186.941L9948.43,187.074L9948.51,187.209L9948.6,187.344L9948.69,187.48L9948.77,187.616L9948.86,187.752L9948.94,187.89L9949.03,188.027L9949.11,188.166L9949.19,188.304L9949.27,188.444L9949.35,188.584L9949.43,188.724L9949.51,188.865L9949.59,189.006L9949.66,189.148L9949.74,189.291L9949.81,189.434L9949.89,189.577L9949.96,189.721L9950.03,189.866L9950.1,190.011L9950.18,190.156L9950.25,190.302L9950.31,190.449L9950.38,190.596L9950.45,190.743L9950.51,190.891L9950.58,191.04L9950.65,191.188L9950.71,191.338L9950.77,191.488L9950.83,191.638L9950.9,191.789L9950.95,191.94L9951.01,192.091L9951.07,192.243L9951.13,192.396L9951.19,192.549L9951.24,192.702L9951.3,192.856L9951.35,193.01L9951.4,193.165L9951.46,193.32L9951.51,193.476L9951.56,193.631L9951.61,193.788L9951.66,193.945L9951.7,194.102L9951.75,194.259L9951.79,194.417L9951.84,194.576L9951.88,194.734L9951.93,194.894L9951.97,195.053L9952.01,195.213L9952.05,195.373L9952.09,195.534L9952.12,195.695L9952.16,195.857L9952.2,196.018L9952.23,196.181L9952.26,196.343L9952.3,196.506L9952.33,196.669L9952.36,196.833L9952.39,196.997L9952.42,197.161L9952.45,197.326L9952.47,197.491L9952.5,197.656L9952.52,197.822L9952.55,197.988L9952.57,198.154L9952.59,198.321L9952.61,198.488L9952.63,198.655L9952.65,198.822L9952.67,198.99L9952.68,199.158L9952.7,199.327L9952.72,199.496L9952.73,199.665L9952.74,199.834L9952.75,200.004L9952.76,200.174L9952.77,200.344L9952.78,200.515L9952.79,200.685L9952.79,200.856L9952.8,201.028L9952.8,201.199L9952.81,201.371L9952.81,201.543L9952.81,201.716L9952.81,201.888L9952.81,202.06L9952.8,202.232L9952.8,202.404L9952.79,202.575L9952.79,202.746L9952.78,202.917L9952.77,203.087L9952.76,203.258L9952.75,203.428L9952.74,203.597L9952.73,203.767L9952.72,203.936L9952.7,204.104L9952.68,204.273L9952.67,204.441L9952.65,204.609L9952.63,204.777L9952.61,204.944L9952.59,205.111L9952.57,205.277L9952.55,205.444L9952.52,205.61L9952.5,205.775L9952.47,205.941L9952.45,206.106L9952.42,206.27L9952.39,206.435L9952.36,206.599L9952.33,206.762L9952.3,206.925L9952.26,207.088L9952.23,207.251L9952.2,207.413L9952.16,207.575L9952.12,207.736L9952.09,207.897L9952.05,208.058L9952.01,208.218L9951.97,208.378L9951.93,208.538L9951.88,208.697L9951.84,208.856L9951.79,209.014L9951.75,209.172L9951.7,209.33L9951.66,209.487L9951.61,209.644L9951.56,209.8L9951.51,209.956L9951.46,210.111L9951.4,210.266L9951.35,210.421L9951.3,210.575L9951.24,210.729L9951.19,210.883L9951.13,211.036L9951.07,211.188L9951.01,211.34L9950.95,211.492L9950.9,211.643L9950.83,211.794L9950.77,211.944L9950.71,212.094L9950.65,212.243L9950.58,212.392L9950.51,212.54L9950.45,212.688L9950.38,212.836L9950.31,212.982L9950.25,213.129L9950.18,213.275L9950.1,213.42L9950.03,213.565L9949.96,213.71L9949.89,213.854L9949.81,213.997L9949.74,214.14L9949.66,214.283L9949.59,214.425L9949.51,214.566L9949.43,214.707L9949.35,214.848L9949.27,214.988L9949.19,215.127L9949.11,215.266L9949.03,215.404L9948.94,215.542L9948.86,215.679L9948.77,215.816L9948.69,215.952L9948.6,216.087L9948.51,216.222L9948.43,216.357L9948.34,216.491L9948.25,216.624L9948.16,216.757L9948.07,216.889L9947.98,217.021L9947.88,217.152L9947.79,217.282L9947.7,217.412L9947.6,217.541L9947.51,217.67L9947.41,217.798L9947.31,217.925L9947.11,218.179L9946.92,218.429L9946.71,218.678L9946.51,218.923L9946.3,219.167L9946.09,219.407L9945.87,219.646L9945.66,219.881L9945.44,220.114L9945.22,220.344L9944.99,220.572L9944.76,220.797L9944.53,221.019L9944.3,221.239L9944.06,221.456L9943.83,221.669L9943.59,221.881L9943.34,222.089L9943.1,222.294L9942.85,222.497L9942.6,222.696L9942.34,222.893L9942.22,222.99L9942.09,223.086L9941.96,223.182L9941.83,223.277L9941.7,223.371L9941.57,223.464L9941.44,223.557L9941.31,223.649L9941.18,223.74L9941.04,223.83L9940.91,223.92L9940.78,224.008L9940.64,224.096L9940.51,224.184L9940.37,224.27L9940.24,224.355L9940.1,224.44L9939.96,224.524L9939.82,224.607L9939.68,224.69L9939.55,224.771L9939.41,224.852L9939.27,224.932L9939.13,225.011L9938.99,225.089L9938.84,225.167L9938.7,225.243L9938.56,225.319L9938.42,225.394L9938.27,225.468L9938.13,225.541L9937.98,225.614L9937.84,225.685L9937.69,225.756L9937.55,225.826L9937.4,225.895L9937.25,225.963L9937.11,226.03L9936.96,226.097L9936.81,226.162L9936.66,226.227L9936.51,226.291L9936.36,226.353L9936.21,226.415L9936.06,226.476L9935.91,226.537L9935.76,226.596L9935.61,226.654L9935.45,226.712L9935.3,226.768L9935.15,226.824L9934.99,226.879L9934.84,226.933L9934.68,226.986L9934.53,227.038L9934.38,227.089L9934.22,227.139L9934.06,227.188L9933.91,227.236L9933.75,227.284L9933.59,227.33L9933.43,227.375L9933.27,227.42L9933.12,227.463L9932.96,227.506L9932.8,227.548L9932.64,227.588L9932.48,227.628L9932.32,227.667L9932.16,227.704L9931.99,227.741L9931.83,227.777L9931.67,227.812L9931.51,227.846L9931.34,227.879L9931.18,227.91L9931.02,227.941L9930.85,227.971L9930.69,228L9930.52,228.028L9930.36,228.055L9930.19,228.08L9930.03,228.105L9929.86,228.129L9929.7,228.152L9929.53,228.174L9929.36,228.194L9929.19,228.214L9929.03,228.233L9928.86,228.25L9928.69,228.267L9928.52,228.282L9928.35,228.297L9928.18,228.31L9928.02,228.323L9927.85,228.334L9927.68,228.344L9927.51,228.353L9927.34,228.361L9927.17,228.368L9926.99,228.374L9926.82,228.379L9926.65,228.383L9926.48,228.386L9926.31,228.387L9926.13,228.388L9925.96,228.387L9925.79,228.386L9925.62,228.383L9925.45,228.379L9925.27,228.374L9925.1,228.368L9924.93,228.361L9924.76,228.353L9924.59,228.344L9924.42,228.334L9924.25,228.323L9924.08,228.31L9923.91,228.297L9923.75,228.282L9923.58,228.267L9923.41,228.25L9923.24,228.233L9923.07,228.214L9922.91,228.194L9922.74,228.174L9922.57,228.152L9922.41,228.129L9922.24,228.105L9922.08,228.08L9921.91,228.055L9921.75,228.028L9921.58,228L9921.42,227.971L9921.25,227.941L9921.09,227.91L9920.93,227.879L9920.76,227.846L9920.6,227.812L9920.44,227.777L9920.27,227.741L9920.11,227.704L9919.95,227.667L9919.79,227.628L9919.63,227.588L9919.47,227.548L9919.31,227.506L9919.15,227.463L9918.99,227.42L9918.84,227.375L9918.68,227.33L9918.52,227.284L9918.36,227.236L9918.21,227.188L9918.05,227.139L9917.89,227.089L9917.74,227.038L9917.58,226.986L9917.43,226.933L9917.27,226.879L9917.12,226.824L9916.97,226.768L9916.82,226.712L9916.66,226.654L9916.51,226.596L9916.36,226.537L9916.21,226.476L9916.06,226.415L9915.91,226.353L9915.76,226.291L9915.61,226.227L9915.46,226.162L9915.31,226.097L9915.16,226.03L9915.01,225.963L9914.87,225.895L9914.72,225.826L9914.58,225.756L9914.43,225.685L9914.28,225.614L9914.14,225.541L9914,225.468L9913.85,225.394L9913.71,225.319L9913.57,225.243L9913.43,225.167L9913.28,225.089L9913.14,225.011L9913,224.932L9912.86,224.852L9912.72,224.771L9912.58,224.69L9912.45,224.607L9912.31,224.524L9912.17,224.44L9912.03,224.355L9911.9,224.27L9911.76,224.184L9911.63,224.096L9911.49,224.008L9911.36,223.92L9911.23,223.83L9911.09,223.74L9910.96,223.649L9910.83,223.557L9910.7,223.464L9910.57,223.371L9910.44,223.277L9910.31,223.182L9910.18,223.086L9910.05,222.99L9909.93,222.893L9909.67,222.696L9909.42,222.497L9909.17,222.294L9908.93,222.089L9908.68,221.881L9908.44,221.669L9908.2,221.456L9907.97,221.239L9907.74,221.019L9907.51,220.797L9907.28,220.572L9907.05,220.344L9906.83,220.114L9906.61,219.881L9906.4,219.646L9906.18,219.407L9905.97,219.167L9905.76,218.923L9905.56,218.678L9905.35,218.429L9905.15,218.179L9904.96,217.925L9904.86,217.798L9904.76,217.67L9904.67,217.541L9904.57,217.412L9904.48,217.282L9904.39,217.152L9904.29,217.021L9904.2,216.889L9904.11,216.757L9904.02,216.624L9903.93,216.491L9903.84,216.357L9903.75,216.222L9903.67,216.087L9903.58,215.952L9903.5,215.816L9903.41,215.679L9903.33,215.542L9903.24,215.404L9903.16,215.266L9903.08,215.127L9903,214.988L9902.92,214.848L9902.84,214.707L9902.76,214.566L9902.68,214.425L9902.61,214.283L9902.53,214.14L9902.46,213.997L9902.38,213.854L9902.31,213.71L9902.24,213.565L9902.17,213.42L9902.09,213.275L9902.02,213.129L9901.95,212.982L9901.89,212.836L9901.82,212.688L9901.75,212.54L9901.69,212.392L9901.62,212.243L9901.56,212.094L9901.5,211.944L9901.43,211.794L9901.37,211.643L9901.31,211.492L9901.25,211.34L9901.2,211.188L9901.14,211.036L9901.08,210.883L9901.03,210.729L9900.97,210.575L9900.92,210.421L9900.86,210.266L9900.81,210.111L9900.76,209.956L9900.71,209.8L9900.66,209.644L9900.61,209.487L9900.57,209.33L9900.52,209.172L9900.48,209.014L9900.43,208.856L9900.39,208.697L9900.34,208.538L9900.3,208.378L9900.26,208.218L9900.22,208.058L9900.18,207.897L9900.15,207.736L9900.11,207.575L9900.07,207.413L9900.04,207.251L9900,207.088L9899.97,206.925L9899.94,206.762L9899.91,206.599L9899.88,206.435L9899.85,206.27L9899.82,206.106L9899.8,205.941L9899.77,205.775L9899.75,205.61L9899.72,205.444L9899.7,205.277L9899.68,205.111L9899.66,204.944L9899.64,204.777L9899.62,204.609L9899.6,204.441L9899.58,204.273L9899.57,204.104L9899.55,203.936L9899.54,203.767L9899.53,203.597L9899.52,203.428L9899.51,203.258L9899.5,203.087L9899.49,202.917L9899.48,202.746L9899.48,202.575L9899.47,202.404L9899.47,202.232L9899.46,202.06L9899.46,201.888L9899.46,201.716L9899.46,201.543L9899.46,201.371L9899.47,201.199L9899.47,201.028L9899.48,200.856L9899.48,200.685L9899.49,200.515L9899.5,200.344L9899.51,200.174L9899.52,200.004L9899.53,199.834L9899.54,199.665L9899.55,199.496L9899.57,199.327L9899.58,199.158L9899.6,198.99L9899.62,198.822L9899.64,198.655L9899.66,198.488L9899.68,198.321L9899.7,198.154L9899.72,197.988L9899.75,197.822L9899.77,197.656L9899.8,197.491L9899.82,197.326L9899.85,197.161L9899.88,196.997L9899.91,196.833L9899.94,196.669L9899.97,196.506L9900,196.343L9900.04,196.181L9900.07,196.018L9900.11,195.857L9900.15,195.695L9900.18,195.534L9900.22,195.373L9900.26,195.213L9900.3,195.053L9900.34,194.894L9900.39,194.734L9900.43,194.576L9900.48,194.417L9900.52,194.259L9900.57,194.102L9900.61,193.945L9900.66,193.788L9900.71,193.631L9900.76,193.476L9900.81,193.32L9900.86,193.165L9900.92,193.01L9900.97,192.856L9901.03,192.702L9901.08,192.549L9901.14,192.396L9901.2,192.243L9901.25,192.091L9901.31,191.94L9901.37,191.789L9901.43,191.638L9901.5,191.488L9901.56,191.338L9901.62,191.188L9901.69,191.04L9901.75,190.891L9901.82,190.743L9901.89,190.596L9901.95,190.449L9902.02,190.302L9902.09,190.156L9902.17,190.011L9902.24,189.866L9902.31,189.721L9902.38,189.577L9902.46,189.434L9902.53,189.291L9902.61,189.148L9902.68,189.006L9902.76,188.865L9902.84,188.724L9902.92,188.584L9903,188.444L9903.08,188.304L9903.16,188.166L9903.24,188.027L9903.33,187.89L9903.41,187.752L9903.5,187.616L9903.58,187.48L9903.67,187.344L9903.75,187.209L9903.84,187.074L9903.93,186.941L9904.02,186.807L9904.11,186.675L9904.2,186.542L9904.29,186.411L9904.39,186.28L9904.48,186.149L9904.57,186.019L9904.67,185.89L9904.76,185.761L9904.86,185.633L9904.96,185.506L9905.15,185.253L9905.35,185.002L9905.56,184.754L9905.76,184.508L9905.97,184.265L9906.18,184.024L9906.4,183.786L9906.61,183.55L9906.83,183.317L9907.05,183.087L9907.28,182.859L9907.51,182.634L9907.74,182.412L9907.97,182.193L9908.2,181.976L9908.44,181.762L9908.68,181.551L9908.93,181.343L9909.17,181.137L9909.42,180.935L9909.67,180.735L9909.93,180.539L9910.05,180.442L9910.18,180.345L9910.31,180.249L9910.44,180.155L9910.57,180.06L9910.7,179.967L9910.83,179.874L9910.96,179.783L9911.09,179.692L9911.23,179.601L9911.36,179.512L9911.49,179.423L9911.63,179.335L9911.76,179.248L9911.9,179.161L9912.03,179.076L9912.17,178.991L9912.31,178.907L9912.45,178.824L9912.58,178.742L9912.72,178.66L9912.86,178.579L9913,178.499L9913.14,178.42L9913.28,178.342L9913.43,178.265L9913.57,178.188L9913.71,178.112L9913.85,178.037L9914,177.963L9914.14,177.89L9914.28,177.818L9914.43,177.746L9914.58,177.675L9914.72,177.605L9914.87,177.536L9915.01,177.468L9915.16,177.401L9915.31,177.335L9915.46,177.269L9915.61,177.205L9915.76,177.141L9915.91,177.078L9916.06,177.016L9916.21,176.955L9916.36,176.895L9916.51,176.835L9916.66,176.777L9916.82,176.72L9916.97,176.663L9917.12,176.607L9917.27,176.553L9917.43,176.499L9917.58,176.446L9917.74,176.394L9917.89,176.343L9918.05,176.293L9918.21,176.243L9918.36,176.195L9918.52,176.148L9918.68,176.101L9918.84,176.056L9918.99,176.011L9919.15,175.968L9919.31,175.925L9919.47,175.884L9919.63,175.843L9919.79,175.803L9919.95,175.765L9920.11,175.727L9920.27,175.69L9920.44,175.654L9920.6,175.62L9920.76,175.586L9920.93,175.553L9921.09,175.521L9921.25,175.49L9921.42,175.46L9921.58,175.431L9921.75,175.404L9921.91,175.377L9922.08,175.351L9922.24,175.326L9922.41,175.302L9922.57,175.28L9922.74,175.258L9922.91,175.237L9923.07,175.217L9923.24,175.199L9923.41,175.181L9923.58,175.165L9923.75,175.149L9923.91,175.135L9924.08,175.121L9924.25,175.109L9924.42,175.098L9924.59,175.087L9924.76,175.078L9924.93,175.07L9925.1,175.063L9925.27,175.057L9925.45,175.052L9925.62,175.048L9925.79,175.046L9925.96,175.044L9926.13,175.043L9926.31,175.044ZM9925.98,177.663L9925.82,177.664L9925.67,177.667L9925.51,177.67L9925.36,177.675L9925.2,177.68L9925.05,177.687L9924.9,177.694L9924.74,177.702L9924.59,177.711L9924.43,177.722L9924.28,177.733L9924.13,177.745L9923.98,177.758L9923.83,177.772L9923.67,177.787L9923.52,177.803L9923.37,177.819L9923.22,177.837L9923.07,177.856L9922.92,177.876L9922.77,177.896L9922.62,177.918L9922.47,177.94L9922.32,177.963L9922.17,177.987L9922.02,178.012L9921.88,178.038L9921.73,178.065L9921.58,178.093L9921.43,178.122L9921.29,178.151L9921.14,178.182L9921,178.213L9920.85,178.246L9920.7,178.279L9920.56,178.313L9920.41,178.348L9920.27,178.383L9920.13,178.42L9919.98,178.457L9919.84,178.496L9919.69,178.535L9919.55,178.575L9919.41,178.616L9919.27,178.658L9919.13,178.701L9918.99,178.744L9918.84,178.788L9918.7,178.834L9918.56,178.879L9918.42,178.926L9918.28,178.974L9918.15,179.023L9918.01,179.072L9917.87,179.122L9917.73,179.173L9917.59,179.225L9917.46,179.278L9917.32,179.331L9917.18,179.385L9917.05,179.44L9916.91,179.496L9916.78,179.553L9916.64,179.61L9916.51,179.668L9916.38,179.727L9916.24,179.787L9916.11,179.848L9915.98,179.91L9915.84,179.971L9915.71,180.034L9915.58,180.098L9915.45,180.163L9915.32,180.228L9915.19,180.294L9915.06,180.361L9914.93,180.428L9914.8,180.497L9914.68,180.566L9914.55,180.636L9914.42,180.706L9914.3,180.777L9914.17,180.85L9914.04,180.922L9913.92,180.996L9913.79,181.07L9913.67,181.145L9913.55,181.221L9913.42,181.297L9913.3,181.375L9913.18,181.452L9913.06,181.531L9912.93,181.61L9912.81,181.69L9912.69,181.771L9912.57,181.853L9912.45,181.935L9912.33,182.018L9912.22,182.101L9912.1,182.185L9911.98,182.27L9911.86,182.356L9911.75,182.442L9911.63,182.529L9911.52,182.615L9911.29,182.794L9911.06,182.975L9910.84,183.157L9910.62,183.342L9910.4,183.53L9910.18,183.721L9909.97,183.914L9909.75,184.109L9909.54,184.307L9909.34,184.508L9909.13,184.711L9908.93,184.917L9908.73,185.125L9908.53,185.335L9908.33,185.547L9908.14,185.762L9907.95,185.979L9907.76,186.199L9907.58,186.421L9907.39,186.645L9907.21,186.871L9907.03,187.102L9906.95,187.215L9906.86,187.331L9906.77,187.446L9906.69,187.563L9906.6,187.68L9906.52,187.797L9906.44,187.916L9906.35,188.035L9906.27,188.154L9906.19,188.273L9906.11,188.395L9906.03,188.515L9905.95,188.636L9905.87,188.758L9905.79,188.881L9905.72,189.003L9905.64,189.126L9905.56,189.25L9905.49,189.374L9905.42,189.499L9905.34,189.625L9905.27,189.75L9905.2,189.875L9905.13,190.002L9905.05,190.13L9904.99,190.257L9904.92,190.386L9904.85,190.514L9904.78,190.643L9904.71,190.772L9904.65,190.901L9904.58,191.033L9904.52,191.164L9904.45,191.294L9904.39,191.425L9904.33,191.557L9904.27,191.69L9904.21,191.823L9904.15,191.957L9904.09,192.089L9904.03,192.224L9903.97,192.359L9903.92,192.493L9903.86,192.629L9903.8,192.765L9903.75,192.901L9903.7,193.038L9903.64,193.175L9903.59,193.312L9903.54,193.449L9903.49,193.589L9903.44,193.727L9903.39,193.865L9903.34,194.005L9903.3,194.144L9903.25,194.285L9903.21,194.426L9903.16,194.567L9903.12,194.708L9903.08,194.849L9903.03,194.99L9902.99,195.133L9902.95,195.277L9902.91,195.42L9902.88,195.563L9902.84,195.707L9902.8,195.85L9902.77,195.994L9902.73,196.139L9902.7,196.285L9902.66,196.431L9902.63,196.577L9902.6,196.721L9902.57,196.868L9902.54,197.016L9902.51,197.164L9902.48,197.311L9902.46,197.458L9902.43,197.606L9902.41,197.754L9902.38,197.903L9902.36,198.051L9902.34,198.201L9902.32,198.352L9902.29,198.501L9902.27,198.65L9902.26,198.801L9902.24,198.953L9902.22,199.104L9902.21,199.255L9902.19,199.406L9902.18,199.559L9902.16,199.712L9902.15,199.864L9902.14,200.017L9902.13,200.169L9902.12,200.322L9902.11,200.477L9902.1,200.631L9902.1,200.785L9902.09,200.939L9902.09,201.094L9902.09,201.249L9902.08,201.404L9902.08,201.561L9902.08,201.716L9902.08,201.87L9902.08,202.027L9902.09,202.182L9902.09,202.337L9902.09,202.492L9902.1,202.647L9902.1,202.801L9902.11,202.954L9902.12,203.109L9902.13,203.262L9902.14,203.415L9902.15,203.567L9902.16,203.719L9902.18,203.872L9902.19,204.025L9902.21,204.176L9902.22,204.327L9902.24,204.479L9902.26,204.63L9902.27,204.781L9902.29,204.93L9902.32,205.079L9902.34,205.231L9902.36,205.38L9902.38,205.528L9902.41,205.677L9902.43,205.825L9902.46,205.974L9902.48,206.12L9902.51,206.268L9902.54,206.416L9902.57,206.564L9902.6,206.71L9902.63,206.855L9902.66,207L9902.7,207.147L9902.73,207.293L9902.77,207.437L9902.8,207.581L9902.84,207.724L9902.88,207.869L9902.91,208.012L9902.95,208.154L9902.99,208.298L9903.03,208.441L9903.08,208.582L9903.12,208.723L9903.16,208.865L9903.21,209.006L9903.25,209.146L9903.3,209.287L9903.34,209.427L9903.39,209.566L9903.44,209.704L9903.49,209.842L9903.54,209.982L9903.59,210.12L9903.64,210.257L9903.7,210.394L9903.75,210.53L9903.8,210.666L9903.86,210.803L9903.92,210.939L9903.97,211.072L9904.03,211.207L9904.09,211.342L9904.15,211.474L9904.21,211.608L9904.27,211.741L9904.33,211.874L9904.39,212.006L9904.45,212.137L9904.52,212.268L9904.58,212.399L9904.65,212.53L9904.71,212.659L9904.78,212.789L9904.85,212.918L9904.92,213.045L9904.99,213.174L9905.05,213.302L9905.13,213.429L9905.2,213.556L9905.27,213.681L9905.34,213.807L9905.42,213.933L9905.49,214.057L9905.56,214.181L9905.64,214.306L9905.72,214.428L9905.79,214.551L9905.87,214.673L9905.95,214.796L9906.03,214.916L9906.11,215.037L9906.19,215.158L9906.27,215.277L9906.35,215.396L9906.44,215.516L9906.52,215.634L9906.6,215.751L9906.69,215.868L9906.77,215.985L9906.86,216.101L9906.95,216.217L9907.03,216.329L9907.21,216.56L9907.39,216.786L9907.58,217.01L9907.76,217.232L9907.95,217.452L9908.14,217.669L9908.33,217.884L9908.53,218.096L9908.73,218.307L9908.93,218.515L9909.13,218.72L9909.34,218.923L9909.54,219.124L9909.75,219.322L9909.97,219.518L9910.18,219.711L9910.4,219.901L9910.62,220.089L9910.84,220.274L9911.06,220.457L9911.29,220.637L9911.52,220.817L9911.63,220.902L9911.75,220.989L9911.86,221.075L9911.98,221.161L9912.1,221.246L9912.22,221.331L9912.34,221.414L9912.45,221.496L9912.57,221.579L9912.69,221.66L9912.81,221.741L9912.93,221.821L9913.06,221.9L9913.18,221.979L9913.3,222.057L9913.42,222.134L9913.55,222.211L9913.67,222.287L9913.79,222.361L9913.92,222.435L9914.04,222.509L9914.17,222.582L9914.3,222.654L9914.42,222.725L9914.55,222.796L9914.68,222.866L9914.8,222.935L9914.93,223.003L9915.06,223.071L9915.19,223.137L9915.32,223.203L9915.45,223.269L9915.58,223.333L9915.71,223.397L9915.84,223.46L9915.98,223.522L9916.11,223.583L9916.24,223.644L9916.38,223.704L9916.51,223.763L9916.64,223.821L9916.78,223.879L9916.91,223.935L9917.05,223.991L9917.18,224.046L9917.32,224.101L9917.46,224.154L9917.59,224.206L9917.73,224.258L9917.87,224.309L9918.01,224.359L9918.15,224.409L9918.28,224.457L9918.42,224.505L9918.56,224.552L9918.7,224.598L9918.84,224.643L9918.98,224.687L9919.13,224.731L9919.27,224.773L9919.41,224.815L9919.55,224.856L9919.69,224.896L9919.84,224.936L9919.98,224.974L9920.13,225.011L9920.27,225.048L9920.41,225.084L9920.56,225.119L9920.7,225.153L9920.85,225.186L9921,225.218L9921.14,225.25L9921.29,225.28L9921.43,225.31L9921.58,225.338L9921.73,225.366L9921.88,225.393L9922.02,225.419L9922.17,225.444L9922.32,225.468L9922.47,225.491L9922.62,225.514L9922.77,225.535L9922.92,225.556L9923.07,225.575L9923.22,225.594L9923.37,225.612L9923.52,225.629L9923.67,225.645L9923.83,225.659L9923.98,225.673L9924.13,225.687L9924.28,225.699L9924.43,225.71L9924.59,225.72L9924.74,225.729L9924.9,225.738L9925.05,225.745L9925.2,225.751L9925.36,225.757L9925.51,225.761L9925.67,225.765L9925.82,225.767L9925.98,225.768L9926.13,225.769L9926.29,225.768L9926.45,225.767L9926.6,225.765L9926.76,225.761L9926.91,225.757L9927.07,225.751L9927.22,225.745L9927.37,225.738L9927.53,225.729L9927.68,225.72L9927.83,225.71L9927.99,225.699L9928.14,225.687L9928.29,225.673L9928.44,225.659L9928.59,225.645L9928.75,225.629L9928.9,225.612L9929.05,225.594L9929.2,225.575L9929.35,225.556L9929.5,225.535L9929.65,225.514L9929.8,225.491L9929.95,225.468L9930.1,225.444L9930.24,225.419L9930.39,225.393L9930.54,225.366L9930.69,225.338L9930.84,225.31L9930.98,225.28L9931.13,225.25L9931.27,225.218L9931.42,225.186L9931.57,225.153L9931.71,225.119L9931.85,225.084L9932,225.048L9932.14,225.011L9932.29,224.974L9932.43,224.936L9932.57,224.896L9932.72,224.856L9932.86,224.815L9933,224.773L9933.14,224.731L9933.28,224.687L9933.43,224.643L9933.57,224.598L9933.71,224.552L9933.84,224.505L9933.98,224.457L9934.12,224.409L9934.26,224.359L9934.4,224.309L9934.54,224.258L9934.68,224.206L9934.81,224.154L9934.95,224.101L9935.09,224.046L9935.22,223.991L9935.36,223.935L9935.49,223.879L9935.63,223.821L9935.76,223.763L9935.89,223.704L9936.03,223.644L9936.16,223.583L9936.29,223.522L9936.42,223.46L9936.56,223.397L9936.69,223.333L9936.82,223.269L9936.95,223.203L9937.08,223.137L9937.21,223.071L9937.34,223.003L9937.47,222.935L9937.59,222.866L9937.72,222.796L9937.85,222.725L9937.97,222.654L9938.1,222.582L9938.23,222.509L9938.35,222.435L9938.48,222.361L9938.6,222.287L9938.72,222.211L9938.85,222.134L9938.97,222.057L9939.09,221.979L9939.21,221.9L9939.34,221.821L9939.46,221.741L9939.58,221.66L9939.7,221.579L9939.82,221.496L9939.93,221.414L9940.05,221.331L9940.17,221.246L9940.29,221.161L9940.4,221.075L9940.52,220.989L9940.64,220.902L9940.75,220.817L9940.98,220.637L9941.2,220.457L9941.43,220.274L9941.65,220.089L9941.87,219.901L9942.09,219.711L9942.3,219.518L9942.52,219.322L9942.73,219.124L9942.93,218.923L9943.14,218.72L9943.34,218.515L9943.54,218.307L9943.74,218.096L9943.94,217.884L9944.13,217.669L9944.32,217.452L9944.51,217.232L9944.69,217.01L9944.88,216.786L9945.06,216.56L9945.24,216.329L9945.32,216.217L9945.41,216.101L9945.49,215.985L9945.58,215.868L9945.67,215.751L9945.75,215.634L9945.83,215.516L9945.92,215.396L9946,215.277L9946.08,215.158L9946.16,215.037L9946.24,214.916L9946.32,214.796L9946.4,214.673L9946.48,214.551L9946.55,214.428L9946.63,214.306L9946.7,214.181L9946.78,214.057L9946.85,213.933L9946.93,213.808L9947,213.681L9947.07,213.555L9947.14,213.429L9947.22,213.302L9947.28,213.174L9947.35,213.045L9947.42,212.918L9947.49,212.789L9947.56,212.659L9947.62,212.53L9947.69,212.399L9947.75,212.268L9947.82,212.137L9947.88,212.006L9947.94,211.874L9948,211.741L9948.06,211.608L9948.12,211.474L9948.18,211.342L9948.24,211.207L9948.3,211.072L9948.35,210.939L9948.41,210.803L9948.47,210.666L9948.52,210.53L9948.57,210.394L9948.63,210.257L9948.68,210.12L9948.73,209.982L9948.78,209.842L9948.83,209.705L9948.88,209.566L9948.92,209.426L9948.97,209.287L9949.02,209.146L9949.06,209.006L9949.11,208.865L9949.15,208.723L9949.19,208.582L9949.23,208.441L9949.27,208.298L9949.32,208.155L9949.35,208.012L9949.39,207.868L9949.43,207.726L9949.47,207.581L9949.5,207.436L9949.54,207.293L9949.57,207.147L9949.6,207L9949.64,206.855L9949.67,206.71L9949.7,206.564L9949.73,206.416L9949.76,206.269L9949.78,206.12L9949.81,205.972L9949.84,205.825L9949.86,205.677L9949.89,205.528L9949.91,205.38L9949.93,205.231L9949.95,205.079L9949.98,204.93L9949.99,204.781L9950.01,204.63L9950.03,204.479L9950.05,204.327L9950.06,204.176L9950.08,204.025L9950.09,203.872L9950.1,203.719L9950.12,203.567L9950.13,203.415L9950.14,203.262L9950.15,203.109L9950.16,202.954L9950.16,202.801L9950.17,202.647L9950.18,202.492L9950.18,202.337L9950.18,202.182L9950.19,202.027L9950.19,201.872L9950.19,201.716L9950.19,201.56L9950.19,201.404L9950.18,201.249L9950.18,201.094L9950.18,200.939L9950.17,200.785L9950.16,200.631L9950.16,200.477L9950.15,200.322L9950.14,200.169L9950.13,200.017L9950.12,199.864L9950.1,199.712L9950.09,199.559L9950.08,199.406L9950.06,199.255L9950.05,199.104L9950.03,198.953L9950.01,198.801L9949.99,198.65L9949.98,198.501L9949.95,198.352L9949.93,198.201L9949.91,198.051L9949.89,197.903L9949.86,197.754L9949.84,197.606L9949.81,197.459L9949.78,197.311L9949.76,197.163L9949.73,197.016L9949.7,196.868L9949.67,196.721L9949.64,196.577L9949.6,196.431L9949.57,196.285L9949.54,196.139L9949.5,195.996L9949.47,195.85L9949.43,195.706L9949.39,195.564L9949.35,195.42L9949.32,195.276L9949.27,195.133L9949.23,194.99L9949.19,194.849L9949.15,194.708L9949.11,194.567L9949.06,194.426L9949.02,194.285L9948.97,194.144L9948.92,194.006L9948.88,193.865L9948.83,193.726L9948.78,193.589L9948.73,193.449L9948.68,193.312L9948.63,193.175L9948.57,193.038L9948.52,192.901L9948.47,192.765L9948.41,192.629L9948.35,192.493L9948.3,192.359L9948.24,192.224L9948.18,192.089L9948.12,191.957L9948.06,191.823L9948,191.69L9947.94,191.557L9947.88,191.425L9947.82,191.294L9947.75,191.164L9947.69,191.033L9947.62,190.901L9947.56,190.772L9947.49,190.643L9947.42,190.514L9947.35,190.386L9947.28,190.257L9947.22,190.13L9947.14,190.002L9947.07,189.876L9947,189.75L9946.93,189.624L9946.85,189.499L9946.78,189.374L9946.7,189.25L9946.63,189.126L9946.55,189.003L9946.48,188.881L9946.4,188.758L9946.32,188.636L9946.24,188.515L9946.16,188.395L9946.08,188.273L9946,188.154L9945.92,188.035L9945.83,187.916L9945.75,187.797L9945.67,187.68L9945.58,187.563L9945.49,187.446L9945.41,187.331L9945.32,187.215L9945.24,187.102L9945.06,186.871L9944.88,186.645L9944.69,186.421L9944.51,186.199L9944.32,185.979L9944.13,185.762L9943.94,185.547L9943.74,185.335L9943.54,185.125L9943.34,184.917L9943.14,184.711L9942.93,184.508L9942.73,184.307L9942.51,184.109L9942.3,183.914L9942.09,183.721L9941.87,183.53L9941.65,183.342L9941.43,183.157L9941.2,182.975L9940.98,182.794L9940.75,182.615L9940.64,182.529L9940.52,182.442L9940.4,182.356L9940.29,182.27L9940.17,182.185L9940.05,182.101L9939.93,182.018L9939.82,181.935L9939.7,181.853L9939.58,181.771L9939.46,181.69L9939.34,181.61L9939.21,181.531L9939.09,181.453L9938.97,181.375L9938.85,181.297L9938.72,181.221L9938.6,181.145L9938.48,181.07L9938.35,180.996L9938.23,180.922L9938.1,180.85L9937.97,180.777L9937.85,180.706L9937.72,180.636L9937.59,180.566L9937.47,180.497L9937.34,180.428L9937.21,180.361L9937.08,180.294L9936.95,180.228L9936.82,180.163L9936.69,180.098L9936.56,180.034L9936.43,179.971L9936.29,179.91L9936.16,179.848L9936.03,179.787L9935.89,179.728L9935.76,179.668L9935.63,179.61L9935.49,179.553L9935.36,179.496L9935.22,179.44L9935.09,179.385L9934.95,179.331L9934.81,179.278L9934.68,179.225L9934.54,179.173L9934.4,179.122L9934.26,179.072L9934.12,179.023L9933.98,178.974L9933.84,178.926L9933.7,178.879L9933.57,178.834L9933.43,178.788L9933.28,178.744L9933.14,178.701L9933,178.658L9932.86,178.616L9932.72,178.575L9932.57,178.535L9932.43,178.496L9932.29,178.457L9932.14,178.42L9932,178.383L9931.85,178.348L9931.71,178.313L9931.57,178.279L9931.42,178.246L9931.27,178.213L9931.13,178.182L9930.98,178.151L9930.84,178.122L9930.69,178.093L9930.54,178.065L9930.39,178.038L9930.24,178.012L9930.1,177.987L9929.95,177.963L9929.8,177.94L9929.65,177.918L9929.5,177.896L9929.35,177.876L9929.2,177.856L9929.05,177.837L9928.9,177.819L9928.75,177.803L9928.59,177.787L9928.44,177.772L9928.29,177.758L9928.14,177.745L9927.99,177.733L9927.83,177.722L9927.68,177.711L9927.53,177.702L9927.37,177.694L9927.22,177.687L9927.07,177.68L9926.91,177.675L9926.76,177.67L9926.6,177.667L9926.44,177.664L9926.29,177.663L9926.13,177.662L9925.98,177.663Z" style="fill:rgb(233,80,57);"/>
            </g>
            <g transform="matrix(0.782938,0,0,0.782938,-6278.54,860.057)">
                <rect x="9951.8" y="181.944" width="7.014" height="33.29" style="fill:rgb(233,80,57);"/>
                <path d="M9958.81,215.234L9951.8,215.234L9951.8,181.944L9958.81,181.944L9958.81,215.234ZM9953.67,183.815L9953.67,213.363L9956.94,213.363L9956.94,183.815L9953.67,183.815Z" style="fill:rgb(233,80,57);"/>
            </g>
            <g transform="matrix(4.79411e-17,0.782938,-0.782938,4.79411e-17,1671.34,-6778.85)">
                <rect x="9951.8" y="181.944" width="7.014" height="33.29" style="fill:rgb(233,80,57);"/>
                <path d="M9958.81,181.944L9958.81,215.234L9951.8,215.234L9951.8,181.944L9958.81,181.944ZM9953.67,213.363L9956.94,213.363L9956.94,183.815L9953.67,183.815L9953.67,213.363Z" style="fill:rgb(233,80,57);"/>
            </g>
        </g>
    </g>
</svg>
