<?xml version="1.0" encoding="UTF-8" standalone="no"?>
<!DOCTYPE svg PUBLIC "-//W3C//DTD SVG 1.1//EN" "http://www.w3.org/Graphics/SVG/1.1/DTD/svg11.dtd">
<svg width="100%" height="100%" viewBox="0 0 46 50" version="1.1" xmlns="http://www.w3.org/2000/svg" xmlns:xlink="http://www.w3.org/1999/xlink" xml:space="preserve" xmlns:serif="http://www.serif.com/" style="fill-rule:evenodd;clip-rule:evenodd;stroke-linecap:square;stroke-linejoin:round;stroke-miterlimit:1.5;">
    <g transform="matrix(1,0,0,1,-32.4713,-942.176)">
        <g transform="matrix(1.86026,0,0,2.00717,-23655.2,-878.895)">
            <g transform="matrix(1.06667,0,0,1.21472,3760.39,-1707.44)">
                <path d="M8429.06,2159.92L8429.14,2159.93L8429.22,2159.93L8429.3,2159.93L8429.37,2159.93L8429.45,2159.94L8429.53,2159.94L8429.6,2159.95L8429.68,2159.95L8429.76,2159.96L8429.83,2159.97L8429.91,2159.98L8429.99,2159.99L8430.06,2160L8430.14,2160.01L8430.21,2160.02L8430.28,2160.04L8430.36,2160.05L8430.43,2160.06L8430.5,2160.08L8430.58,2160.1L8430.65,2160.11L8430.72,2160.13L8430.79,2160.15L8430.86,2160.16L8430.93,2160.18L8431.01,2160.2L8431.08,2160.22L8431.14,2160.24L8431.21,2160.27L8431.28,2160.29L8431.35,2160.31L8431.42,2160.34L8431.49,2160.36L8431.55,2160.39L8431.62,2160.41L8431.69,2160.44L8431.75,2160.47L8431.82,2160.49L8431.88,2160.52L8431.95,2160.55L8432.01,2160.58L8432.08,2160.61L8432.14,2160.64L8432.2,2160.67L8432.26,2160.7L8432.32,2160.74L8432.39,2160.77L8432.44,2160.8L8432.51,2160.84L8432.57,2160.87L8432.62,2160.91L8432.68,2160.94L8432.74,2160.98L8432.8,2161.02L8432.85,2161.05L8432.91,2161.09L8432.97,2161.13L8433.02,2161.17L8433.07,2161.21L8433.13,2161.25L8433.18,2161.29L8433.23,2161.33L8433.29,2161.37L8433.34,2161.42L8433.39,2161.46L8433.44,2161.5L8433.49,2161.55L8433.54,2161.59L8433.58,2161.64L8433.63,2161.68L8433.68,2161.73L8433.73,2161.77L8433.77,2161.82L8433.82,2161.87L8433.86,2161.91L8433.9,2161.96L8433.94,2162.01L8433.99,2162.06L8434.03,2162.11L8434.07,2162.16L8434.11,2162.21L8434.15,2162.26L8434.19,2162.31L8434.23,2162.36L8434.26,2162.41L8434.3,2162.46L8434.33,2162.52L8434.37,2162.57L8434.4,2162.62L8434.44,2162.68L8434.47,2162.73L8434.5,2162.78L8434.53,2162.84L8434.56,2162.89L8434.59,2162.95L8434.62,2163.01L8434.65,2163.06L8434.67,2163.12L8434.7,2163.17L8434.73,2163.23L8434.75,2163.29L8434.77,2163.35L8434.8,2163.4L8434.82,2163.46L8434.84,2163.52L8434.86,2163.58L8434.88,2163.64L8434.9,2163.7L8434.91,2163.76L8434.93,2163.82L8434.94,2163.88L8434.96,2163.94L8434.97,2164L8434.99,2164.06L8435,2164.12L8435.01,2164.18L8435.02,2164.24L8435.03,2164.31L8435.04,2164.37L8435.05,2164.43L8435.05,2164.49L8435.06,2164.56L8435.06,2164.62L8435.06,2164.68L8435.07,2164.75L8435.07,2164.81L8435.07,2164.88L8435.07,2164.94L8435.07,2165L8435.06,2165.07L8435.06,2165.13L8435.06,2165.19L8435.05,2165.26L8435.05,2165.32L8435.04,2165.38L8435.03,2165.44L8435.02,2165.51L8435.01,2165.57L8435,2165.63L8434.99,2165.69L8434.97,2165.75L8434.96,2165.81L8434.94,2165.87L8434.93,2165.93L8434.91,2165.99L8434.9,2166.05L8434.88,2166.11L8434.86,2166.17L8434.84,2166.23L8434.82,2166.29L8434.8,2166.35L8434.77,2166.41L8434.75,2166.46L8434.73,2166.52L8434.7,2166.58L8434.67,2166.64L8434.65,2166.69L8434.62,2166.75L8434.59,2166.8L8434.56,2166.86L8434.53,2166.91L8434.5,2166.97L8434.47,2167.02L8434.44,2167.08L8434.4,2167.13L8434.37,2167.18L8434.33,2167.24L8434.3,2167.29L8434.26,2167.34L8434.23,2167.39L8434.19,2167.44L8434.15,2167.49L8434.11,2167.55L8434.07,2167.6L8434.03,2167.64L8433.99,2167.69L8433.94,2167.74L8433.9,2167.79L8433.86,2167.84L8433.82,2167.89L8433.77,2167.93L8433.73,2167.98L8433.68,2168.03L8433.63,2168.07L8433.58,2168.12L8433.54,2168.16L8433.49,2168.2L8433.44,2168.25L8433.39,2168.29L8433.34,2168.34L8433.29,2168.38L8433.23,2168.42L8433.18,2168.46L8433.13,2168.5L8433.07,2168.54L8433.02,2168.58L8432.97,2168.62L8432.91,2168.66L8432.85,2168.7L8432.8,2168.74L8432.74,2168.77L8432.68,2168.81L8432.62,2168.84L8432.57,2168.88L8432.51,2168.91L8432.44,2168.95L8432.39,2168.98L8432.32,2169.01L8432.26,2169.05L8432.2,2169.08L8432.14,2169.11L8432.08,2169.14L8432.01,2169.17L8431.95,2169.2L8431.88,2169.23L8431.82,2169.26L8431.75,2169.29L8431.69,2169.31L8431.62,2169.34L8431.55,2169.37L8431.49,2169.39L8431.42,2169.41L8431.35,2169.44L8431.28,2169.46L8431.21,2169.49L8431.14,2169.51L8431.08,2169.53L8431.01,2169.55L8430.93,2169.57L8430.86,2169.59L8430.79,2169.61L8430.72,2169.62L8430.65,2169.64L8430.58,2169.66L8430.5,2169.67L8430.43,2169.69L8430.36,2169.7L8430.28,2169.72L8430.21,2169.73L8430.14,2169.74L8430.06,2169.75L8429.99,2169.76L8429.91,2169.77L8429.83,2169.78L8429.76,2169.79L8429.68,2169.8L8429.6,2169.8L8429.53,2169.81L8429.45,2169.81L8429.37,2169.82L8429.3,2169.82L8429.22,2169.82L8429.14,2169.83L8429.06,2169.83L8428.98,2169.83L8418.37,2169.83L8418.29,2169.83L8418.21,2169.83L8418.13,2169.82L8418.05,2169.82L8417.98,2169.82L8417.9,2169.81L8417.82,2169.81L8417.74,2169.8L8417.67,2169.8L8417.59,2169.79L8417.51,2169.78L8417.44,2169.77L8417.36,2169.76L8417.29,2169.75L8417.22,2169.74L8417.14,2169.73L8417.07,2169.72L8416.99,2169.7L8416.92,2169.69L8416.85,2169.67L8416.77,2169.66L8416.7,2169.64L8416.63,2169.62L8416.56,2169.61L8416.49,2169.59L8416.42,2169.57L8416.34,2169.55L8416.27,2169.53L8416.2,2169.51L8416.14,2169.49L8416.07,2169.46L8416,2169.44L8415.93,2169.41L8415.86,2169.39L8415.8,2169.37L8415.73,2169.34L8415.66,2169.31L8415.6,2169.29L8415.53,2169.26L8415.47,2169.23L8415.4,2169.2L8415.34,2169.17L8415.27,2169.14L8415.21,2169.11L8415.15,2169.08L8415.09,2169.05L8415.02,2169.01L8414.96,2168.98L8414.9,2168.95L8414.84,2168.91L8414.78,2168.88L8414.73,2168.84L8414.67,2168.81L8414.61,2168.77L8414.55,2168.74L8414.5,2168.7L8414.44,2168.66L8414.38,2168.62L8414.33,2168.58L8414.27,2168.54L8414.22,2168.5L8414.17,2168.46L8414.12,2168.42L8414.06,2168.38L8414.01,2168.34L8413.96,2168.29L8413.91,2168.25L8413.86,2168.2L8413.81,2168.16L8413.76,2168.12L8413.72,2168.07L8413.67,2168.03L8413.63,2167.98L8413.58,2167.93L8413.53,2167.89L8413.49,2167.84L8413.45,2167.79L8413.4,2167.74L8413.36,2167.69L8413.32,2167.64L8413.28,2167.6L8413.24,2167.55L8413.2,2167.49L8413.16,2167.44L8413.12,2167.39L8413.09,2167.34L8413.05,2167.29L8413.01,2167.24L8412.98,2167.18L8412.95,2167.13L8412.91,2167.08L8412.88,2167.02L8412.85,2166.97L8412.82,2166.91L8412.79,2166.86L8412.76,2166.8L8412.73,2166.75L8412.7,2166.69L8412.68,2166.64L8412.65,2166.58L8412.63,2166.52L8412.6,2166.46L8412.58,2166.41L8412.55,2166.35L8412.53,2166.29L8412.51,2166.23L8412.49,2166.17L8412.47,2166.11L8412.45,2166.05L8412.44,2165.99L8412.42,2165.93L8412.4,2165.87L8412.39,2165.81L8412.38,2165.75L8412.36,2165.69L8412.35,2165.63L8412.34,2165.57L8412.33,2165.51L8412.32,2165.44L8412.31,2165.38L8412.3,2165.32L8412.3,2165.26L8412.29,2165.19L8412.29,2165.13L8412.28,2165.07L8412.28,2165L8412.28,2164.94L8412.28,2164.88L8412.28,2164.81L8412.28,2164.75L8412.28,2164.68L8412.29,2164.62L8412.29,2164.56L8412.3,2164.49L8412.3,2164.43L8412.31,2164.37L8412.32,2164.31L8412.33,2164.24L8412.34,2164.18L8412.35,2164.12L8412.36,2164.06L8412.38,2164L8412.39,2163.94L8412.4,2163.88L8412.42,2163.82L8412.44,2163.76L8412.45,2163.7L8412.47,2163.64L8412.49,2163.58L8412.51,2163.52L8412.53,2163.46L8412.55,2163.4L8412.58,2163.35L8412.6,2163.29L8412.63,2163.23L8412.65,2163.17L8412.68,2163.12L8412.7,2163.06L8412.73,2163.01L8412.76,2162.95L8412.79,2162.89L8412.82,2162.84L8412.85,2162.78L8412.88,2162.73L8412.91,2162.68L8412.95,2162.62L8412.98,2162.57L8413.01,2162.52L8413.05,2162.46L8413.09,2162.41L8413.12,2162.36L8413.16,2162.31L8413.2,2162.26L8413.24,2162.21L8413.28,2162.16L8413.32,2162.11L8413.36,2162.06L8413.4,2162.01L8413.45,2161.96L8413.49,2161.91L8413.53,2161.87L8413.58,2161.82L8413.63,2161.77L8413.67,2161.73L8413.72,2161.68L8413.76,2161.64L8413.81,2161.59L8413.86,2161.55L8413.91,2161.5L8413.96,2161.46L8414.01,2161.42L8414.06,2161.37L8414.12,2161.33L8414.17,2161.29L8414.22,2161.25L8414.27,2161.21L8414.33,2161.17L8414.38,2161.13L8414.44,2161.09L8414.5,2161.05L8414.55,2161.02L8414.61,2160.98L8414.67,2160.94L8414.73,2160.91L8414.78,2160.87L8414.84,2160.84L8414.9,2160.8L8414.96,2160.77L8415.02,2160.74L8415.09,2160.7L8415.15,2160.67L8415.21,2160.64L8415.27,2160.61L8415.34,2160.58L8415.4,2160.55L8415.47,2160.52L8415.53,2160.49L8415.6,2160.47L8415.66,2160.44L8415.73,2160.41L8415.8,2160.39L8415.86,2160.36L8415.93,2160.34L8416,2160.31L8416.07,2160.29L8416.14,2160.27L8416.2,2160.24L8416.27,2160.22L8416.34,2160.2L8416.42,2160.18L8416.49,2160.16L8416.56,2160.15L8416.63,2160.13L8416.7,2160.11L8416.77,2160.1L8416.85,2160.08L8416.92,2160.06L8416.99,2160.05L8417.07,2160.04L8417.14,2160.02L8417.22,2160.01L8417.29,2160L8417.36,2159.99L8417.44,2159.98L8417.51,2159.97L8417.59,2159.96L8417.67,2159.95L8417.74,2159.95L8417.82,2159.94L8417.9,2159.94L8417.98,2159.93L8418.05,2159.93L8418.13,2159.93L8418.21,2159.93L8418.29,2159.92L8418.37,2159.92L8428.98,2159.92L8429.06,2159.92ZM8418.37,2160.92L8418.3,2160.92L8418.24,2160.92L8418.18,2160.93L8418.11,2160.93L8418.05,2160.93L8417.99,2160.93L8417.93,2160.94L8417.87,2160.94L8417.81,2160.95L8417.75,2160.95L8417.69,2160.96L8417.63,2160.97L8417.57,2160.98L8417.51,2160.98L8417.45,2160.99L8417.39,2161L8417.33,2161.01L8417.27,2161.02L8417.21,2161.03L8417.15,2161.05L8417.09,2161.06L8417.04,2161.07L8416.98,2161.09L8416.92,2161.1L8416.86,2161.12L8416.81,2161.13L8416.75,2161.15L8416.7,2161.16L8416.64,2161.18L8416.59,2161.2L8416.53,2161.21L8416.48,2161.23L8416.42,2161.25L8416.37,2161.27L8416.32,2161.29L8416.26,2161.31L8416.21,2161.33L8416.16,2161.36L8416.1,2161.38L8416.05,2161.4L8416,2161.42L8415.95,2161.45L8415.9,2161.47L8415.85,2161.49L8415.8,2161.52L8415.75,2161.55L8415.7,2161.57L8415.65,2161.6L8415.6,2161.62L8415.56,2161.65L8415.51,2161.68L8415.46,2161.71L8415.42,2161.74L8415.37,2161.77L8415.32,2161.8L8415.28,2161.82L8415.23,2161.86L8415.19,2161.89L8415.14,2161.92L8415.1,2161.95L8415.06,2161.98L8415.01,2162.01L8414.97,2162.05L8414.93,2162.08L8414.89,2162.12L8414.85,2162.15L8414.81,2162.18L8414.77,2162.22L8414.73,2162.25L8414.69,2162.29L8414.66,2162.33L8414.62,2162.36L8414.58,2162.4L8414.54,2162.44L8414.51,2162.47L8414.47,2162.51L8414.44,2162.55L8414.4,2162.59L8414.37,2162.63L8414.34,2162.67L8414.31,2162.71L8414.27,2162.75L8414.24,2162.79L8414.21,2162.83L8414.18,2162.87L8414.15,2162.91L8414.12,2162.95L8414.09,2162.99L8414.07,2163.03L8414.04,2163.08L8414.01,2163.12L8413.99,2163.16L8413.96,2163.21L8413.94,2163.25L8413.91,2163.29L8413.89,2163.34L8413.87,2163.38L8413.84,2163.43L8413.82,2163.47L8413.8,2163.52L8413.78,2163.56L8413.76,2163.61L8413.74,2163.66L8413.73,2163.7L8413.71,2163.75L8413.69,2163.79L8413.68,2163.84L8413.66,2163.89L8413.65,2163.93L8413.63,2163.98L8413.62,2164.03L8413.61,2164.08L8413.59,2164.13L8413.58,2164.18L8413.57,2164.22L8413.56,2164.27L8413.56,2164.32L8413.55,2164.37L8413.54,2164.42L8413.53,2164.47L8413.53,2164.52L8413.52,2164.57L8413.52,2164.62L8413.51,2164.67L8413.51,2164.72L8413.51,2164.77L8413.51,2164.82L8413.51,2164.88L8413.51,2164.93L8413.51,2164.98L8413.51,2165.03L8413.51,2165.08L8413.52,2165.13L8413.52,2165.18L8413.53,2165.23L8413.53,2165.28L8413.54,2165.33L8413.55,2165.38L8413.56,2165.43L8413.56,2165.48L8413.57,2165.53L8413.58,2165.58L8413.59,2165.63L8413.61,2165.67L8413.62,2165.72L8413.63,2165.77L8413.65,2165.82L8413.66,2165.86L8413.68,2165.91L8413.69,2165.96L8413.71,2166.01L8413.73,2166.05L8413.74,2166.1L8413.76,2166.14L8413.78,2166.19L8413.8,2166.23L8413.82,2166.28L8413.84,2166.32L8413.87,2166.37L8413.89,2166.41L8413.91,2166.46L8413.94,2166.5L8413.96,2166.55L8413.99,2166.59L8414.01,2166.63L8414.04,2166.67L8414.07,2166.72L8414.09,2166.76L8414.12,2166.8L8414.15,2166.84L8414.18,2166.88L8414.21,2166.92L8414.24,2166.97L8414.27,2167.01L8414.31,2167.05L8414.34,2167.09L8414.37,2167.12L8414.4,2167.16L8414.44,2167.2L8414.47,2167.24L8414.51,2167.28L8414.54,2167.32L8414.58,2167.35L8414.62,2167.39L8414.66,2167.43L8414.69,2167.46L8414.73,2167.5L8414.77,2167.53L8414.81,2167.57L8414.85,2167.6L8414.89,2167.64L8414.93,2167.67L8414.97,2167.7L8415.01,2167.74L8415.06,2167.77L8415.1,2167.8L8415.14,2167.83L8415.19,2167.87L8415.23,2167.9L8415.28,2167.93L8415.32,2167.96L8415.37,2167.99L8415.42,2168.01L8415.46,2168.04L8415.51,2168.07L8415.56,2168.1L8415.6,2168.13L8415.65,2168.15L8415.7,2168.18L8415.75,2168.21L8415.8,2168.23L8415.85,2168.26L8415.9,2168.28L8415.95,2168.31L8416,2168.33L8416.05,2168.35L8416.1,2168.38L8416.16,2168.4L8416.21,2168.42L8416.26,2168.44L8416.32,2168.46L8416.37,2168.48L8416.42,2168.5L8416.48,2168.52L8416.53,2168.54L8416.59,2168.55L8416.64,2168.57L8416.7,2168.59L8416.75,2168.61L8416.81,2168.62L8416.86,2168.64L8416.92,2168.65L8416.98,2168.67L8417.04,2168.68L8417.09,2168.69L8417.15,2168.7L8417.21,2168.72L8417.27,2168.73L8417.33,2168.74L8417.39,2168.75L8417.45,2168.76L8417.51,2168.77L8417.57,2168.78L8417.63,2168.78L8417.69,2168.79L8417.75,2168.8L8417.81,2168.8L8417.87,2168.81L8417.93,2168.81L8417.99,2168.82L8418.05,2168.82L8418.11,2168.82L8418.18,2168.83L8418.24,2168.83L8418.3,2168.83L8418.37,2168.83L8428.98,2168.83L8429.05,2168.83L8429.11,2168.83L8429.17,2168.83L8429.23,2168.82L8429.3,2168.82L8429.36,2168.82L8429.42,2168.81L8429.48,2168.81L8429.54,2168.8L8429.6,2168.8L8429.66,2168.79L8429.72,2168.78L8429.78,2168.78L8429.84,2168.77L8429.9,2168.76L8429.96,2168.75L8430.02,2168.74L8430.08,2168.73L8430.14,2168.72L8430.2,2168.7L8430.26,2168.69L8430.31,2168.68L8430.37,2168.67L8430.43,2168.65L8430.48,2168.64L8430.54,2168.62L8430.6,2168.61L8430.65,2168.59L8430.71,2168.57L8430.76,2168.55L8430.82,2168.54L8430.87,2168.52L8430.93,2168.5L8430.98,2168.48L8431.03,2168.46L8431.09,2168.44L8431.14,2168.42L8431.19,2168.4L8431.25,2168.38L8431.3,2168.35L8431.35,2168.33L8431.4,2168.31L8431.45,2168.28L8431.5,2168.26L8431.55,2168.23L8431.6,2168.21L8431.65,2168.18L8431.7,2168.15L8431.75,2168.13L8431.79,2168.1L8431.84,2168.07L8431.89,2168.04L8431.93,2168.01L8431.98,2167.99L8432.03,2167.96L8432.07,2167.93L8432.12,2167.9L8432.16,2167.87L8432.2,2167.83L8432.25,2167.8L8432.29,2167.77L8432.33,2167.74L8432.38,2167.7L8432.42,2167.67L8432.46,2167.64L8432.5,2167.6L8432.54,2167.57L8432.58,2167.53L8432.62,2167.5L8432.66,2167.46L8432.69,2167.43L8432.73,2167.39L8432.77,2167.35L8432.81,2167.32L8432.84,2167.28L8432.88,2167.24L8432.91,2167.2L8432.94,2167.16L8432.98,2167.12L8433.01,2167.09L8433.04,2167.05L8433.08,2167.01L8433.11,2166.97L8433.14,2166.92L8433.17,2166.88L8433.2,2166.84L8433.23,2166.8L8433.26,2166.76L8433.28,2166.72L8433.31,2166.67L8433.34,2166.63L8433.36,2166.59L8433.39,2166.55L8433.41,2166.5L8433.44,2166.46L8433.46,2166.41L8433.48,2166.37L8433.5,2166.32L8433.53,2166.28L8433.55,2166.23L8433.57,2166.19L8433.59,2166.14L8433.6,2166.1L8433.62,2166.05L8433.64,2166L8433.66,2165.96L8433.67,2165.91L8433.69,2165.86L8433.7,2165.82L8433.72,2165.77L8433.73,2165.72L8433.74,2165.67L8433.75,2165.63L8433.76,2165.58L8433.77,2165.53L8433.78,2165.48L8433.79,2165.43L8433.8,2165.38L8433.81,2165.33L8433.82,2165.28L8433.82,2165.23L8433.83,2165.18L8433.83,2165.13L8433.84,2165.08L8433.84,2165.03L8433.84,2164.98L8433.84,2164.93L8433.84,2164.88L8433.84,2164.82L8433.84,2164.77L8433.84,2164.72L8433.84,2164.67L8433.83,2164.62L8433.83,2164.57L8433.82,2164.52L8433.82,2164.47L8433.81,2164.42L8433.8,2164.37L8433.79,2164.32L8433.78,2164.27L8433.77,2164.22L8433.76,2164.18L8433.75,2164.13L8433.74,2164.08L8433.73,2164.03L8433.72,2163.98L8433.7,2163.93L8433.69,2163.89L8433.67,2163.84L8433.66,2163.79L8433.64,2163.75L8433.62,2163.7L8433.6,2163.66L8433.59,2163.61L8433.57,2163.56L8433.55,2163.52L8433.53,2163.47L8433.5,2163.43L8433.48,2163.38L8433.46,2163.34L8433.44,2163.29L8433.41,2163.25L8433.39,2163.21L8433.36,2163.16L8433.34,2163.12L8433.31,2163.08L8433.28,2163.03L8433.26,2162.99L8433.23,2162.95L8433.2,2162.91L8433.17,2162.87L8433.14,2162.83L8433.11,2162.79L8433.08,2162.75L8433.04,2162.71L8433.01,2162.67L8432.98,2162.63L8432.94,2162.59L8432.91,2162.55L8432.88,2162.51L8432.84,2162.47L8432.81,2162.44L8432.77,2162.4L8432.73,2162.36L8432.69,2162.33L8432.66,2162.29L8432.62,2162.25L8432.58,2162.22L8432.54,2162.18L8432.5,2162.15L8432.46,2162.12L8432.42,2162.08L8432.38,2162.05L8432.33,2162.01L8432.29,2161.98L8432.25,2161.95L8432.2,2161.92L8432.16,2161.89L8432.12,2161.86L8432.07,2161.82L8432.03,2161.8L8431.98,2161.77L8431.93,2161.74L8431.89,2161.71L8431.84,2161.68L8431.79,2161.65L8431.75,2161.62L8431.7,2161.6L8431.65,2161.57L8431.6,2161.55L8431.55,2161.52L8431.5,2161.49L8431.45,2161.47L8431.4,2161.45L8431.35,2161.42L8431.3,2161.4L8431.25,2161.38L8431.19,2161.36L8431.14,2161.33L8431.09,2161.31L8431.03,2161.29L8430.98,2161.27L8430.93,2161.25L8430.87,2161.23L8430.82,2161.21L8430.76,2161.2L8430.71,2161.18L8430.65,2161.16L8430.6,2161.15L8430.54,2161.13L8430.48,2161.12L8430.43,2161.1L8430.37,2161.09L8430.31,2161.07L8430.26,2161.06L8430.2,2161.05L8430.14,2161.03L8430.08,2161.02L8430.02,2161.01L8429.96,2161L8429.9,2160.99L8429.84,2160.98L8429.78,2160.98L8429.72,2160.97L8429.66,2160.96L8429.6,2160.95L8429.54,2160.95L8429.48,2160.94L8429.42,2160.94L8429.36,2160.93L8429.3,2160.93L8429.23,2160.93L8429.17,2160.93L8429.11,2160.92L8429.05,2160.92L8428.98,2160.92L8418.37,2160.92Z" style="fill:rgb(40,57,120);"/>
            </g>
            <g transform="matrix(1,0,0,1,4324.19,-1242.86)">
                <rect x="8413.74" y="2164.66" width="16.225" height="10.148" style="fill:white;"/>
                <path d="M8429.96,2174.81L8413.74,2174.81L8413.74,2164.66L8429.96,2164.66L8429.96,2174.81ZM8415.05,2165.88L8415.05,2173.6L8428.66,2173.6L8428.66,2165.88L8415.05,2165.88Z" style="fill:rgb(40,57,120);"/>
            </g>
            <g transform="matrix(1.04706,0,0,1,3927.49,-1242.86)">
                <path d="M8426.08,2150.39L8426.1,2154.51L8429.96,2154.6L8429.96,2159.86L8414.47,2159.86L8414.47,2150.14L8426.08,2150.39ZM8415.72,2158.65L8428.71,2158.65L8428.71,2155.79L8426.07,2155.72L8425.98,2155.72L8425.9,2155.71L8425.81,2155.69L8425.73,2155.67L8425.64,2155.64L8425.56,2155.61L8425.49,2155.57L8425.41,2155.52L8425.34,2155.47L8425.27,2155.42L8425.21,2155.36L8425.15,2155.3L8425.09,2155.23L8425.05,2155.16L8425,2155.09L8424.96,2155.01L8424.93,2154.93L8424.9,2154.85L8424.88,2154.77L8424.86,2154.68L8424.85,2154.6L8424.85,2154.51L8424.84,2151.57L8415.72,2151.38L8415.72,2158.65Z" style="fill:rgb(40,57,120);"/>
            </g>
            <g transform="matrix(1,0,0,1,4324.19,-1242.86)">
                <path d="M8429.06,2154.64L8425.87,2151.32" style="fill:none;stroke:rgb(40,57,120);stroke-width:1.26px;"/>
            </g>
        </g>
    </g>
</svg>
