<?xml version="1.0" encoding="UTF-8" standalone="no"?>
<!DOCTYPE svg PUBLIC "-//W3C//DTD SVG 1.1//EN" "http://www.w3.org/Graphics/SVG/1.1/DTD/svg11.dtd">
<svg width="100%" height="100%" viewBox="0 0 53 65" version="1.1" xmlns="http://www.w3.org/2000/svg" xmlns:xlink="http://www.w3.org/1999/xlink" xml:space="preserve" xmlns:serif="http://www.serif.com/" style="fill-rule:evenodd;clip-rule:evenodd;stroke-linejoin:round;stroke-miterlimit:1.41421;">
    <g transform="matrix(1,0,0,1,-1841,-19.8512)">
        <g>
            <g transform="matrix(0.0921456,0,0,0.0921456,1893.7,83.967)">
                <path d="M0,-695.81L-571.868,-695.81L-571.339,-285.763C-571.126,-127.84 -442.905,0 -284.995,-0.218C-127.082,-0.43 0.81,-128.649 0.598,-286.571L0,-695.81Z" style="fill:rgb(40,57,120);fill-rule:nonzero;"/>
            </g>
            <g transform="matrix(0.0921456,0,0,0.0921456,1875.1,45.0849)">
                <path d="M0,281.354C0.104,268.886 -0.141,256.414 0.162,243.951C0.229,241.217 1.326,237.957 3.077,235.901C20.522,215.393 32.385,192.043 39.225,166.095C40.243,162.226 41.481,160.539 46.062,161.613C52.374,163.092 57.667,159.808 62.254,155.773C73.335,146.024 80.296,133.569 81.752,119.132C82.933,107.407 82.064,95.366 81.017,83.561C80.221,74.6 75.078,67.93 65.854,65.546C61.79,64.496 62.127,61.902 62.309,58.713C63.903,30.688 65.239,2.645 66.936,-25.375C67.524,-35.104 64.621,-43.199 58.087,-50.319C56.134,-52.449 55.029,-55.357 53.537,-57.907C53.971,-58.245 54.407,-58.585 54.843,-58.923C56.932,-57.687 59.02,-56.449 61.108,-55.212C61.597,-55.49 62.084,-55.769 62.571,-56.046C58.299,-66.83 55.487,-78.565 49.296,-88.107C44.124,-96.077 33.514,-98.187 23.92,-99.101C18.99,-99.57 13.925,-98.387 8.945,-98.574C6.814,-98.653 3.755,-99.74 2.797,-101.36C-7.81,-119.313 -24.019,-130.438 -42.284,-139.151C-43.761,-139.857 -45.504,-140.511 -47.086,-140.432C-64.434,-139.569 -81.774,-138.555 -99.117,-137.583C-99.143,-137.056 -99.168,-136.528 -99.195,-136.002C-96.565,-134.912 -93.935,-133.821 -91.307,-132.731C-91.375,-132.071 -91.444,-131.412 -91.514,-130.751C-95.382,-130.751 -99.394,-130.08 -103.096,-130.867C-120.417,-134.549 -137.186,-132.627 -153.539,-126.43C-166.401,-121.556 -179.12,-116.3 -191.875,-111.146C-193.519,-110.482 -195.001,-109.415 -196.333,-107.825C-191.678,-108.389 -187.023,-108.954 -182.369,-109.516C-182.173,-109.068 -181.978,-108.619 -181.783,-108.169C-183.645,-106.941 -185.447,-105.608 -187.377,-104.499C-204.409,-94.711 -218.755,-82.249 -229.609,-65.54C-234.798,-57.552 -233.575,-49.18 -234.342,-40.874C-237.391,-7.891 -234.346,24.893 -230.432,57.609C-229.875,62.258 -230.862,64.937 -235.643,66.342C-241.757,68.141 -246.297,72.427 -247.6,78.594C-252.474,101.67 -253.577,124.557 -239.355,145.178C-235.747,150.407 -230.761,154.989 -225.579,158.712C-222.578,160.868 -217.743,161.879 -214.054,161.313C-209.356,160.592 -208.206,162.313 -207.222,166.064C-202.611,183.64 -195.752,200.311 -185.904,215.604C-181.587,222.31 -176.221,228.337 -171.816,234.994C-169.886,237.911 -168.203,241.593 -168.075,244.991C-167.63,256.886 -168.048,268.81 -167.849,280.717C-167.77,285.458 -169.639,287.628 -174.239,288.814C-217.106,299.863 -259.9,311.203 -302.779,322.204C-249.386,383.308 -170.852,421.865 -83.346,421.746C3.809,421.63 81.957,383.156 135.177,322.331C91.808,311.448 48.651,299.715 5.366,288.476C1.357,287.436 -0.033,285.279 0,281.354" style="fill:rgb(228,68,45);"/>
            </g>
        </g>
    </g>
</svg>
