<?xml version="1.0" encoding="UTF-8" standalone="no"?>
<!DOCTYPE svg PUBLIC "-//W3C//DTD SVG 1.1//EN" "http://www.w3.org/Graphics/SVG/1.1/DTD/svg11.dtd">
<svg width="100%" height="100%" viewBox="0 0 35 35" version="1.1" xmlns="http://www.w3.org/2000/svg" xmlns:xlink="http://www.w3.org/1999/xlink" xml:space="preserve" xmlns:serif="http://www.serif.com/" style="fill-rule:evenodd;clip-rule:evenodd;stroke-linecap:square;stroke-linejoin:round;stroke-miterlimit:1.5;">
    <g transform="matrix(1,0,0,1,-1011.71,-235.839)">
        <g transform="matrix(1,0,0,1,-6285.5,-3.375)">
            <path d="M7331,248.25C7331,243.697 7327.3,240 7322.75,240L7306.25,240C7301.7,240 7298,243.697 7298,248.25L7298,264.75C7298,269.303 7301.7,273 7306.25,273L7322.75,273C7327.3,273 7331,269.303 7331,264.75L7331,248.25Z" style="fill:rgb(233,80,57);fill-opacity:0;"/>
            <clipPath id="_clip1">
                <path d="M7331,248.25C7331,243.697 7327.3,240 7322.75,240L7306.25,240C7301.7,240 7298,243.697 7298,248.25L7298,264.75C7298,269.303 7301.7,273 7306.25,273L7322.75,273C7327.3,273 7331,269.303 7331,264.75L7331,248.25Z"/>
            </clipPath>
            <g clip-path="url(#_clip1)">
                <g transform="matrix(1,0,0,1,-42,6.80225)">
                    <text x="7350px" y="254.767px" style="font-family:'CourierNewPSMT', 'Courier New', monospace;font-size:20.833px;">S</text>
                    <rect x="7350" y="259.619" width="12.502" height="0.854"/>
                </g>
            </g>
            <path d="M7331,248.25C7331,243.697 7327.3,240 7322.75,240L7306.25,240C7301.7,240 7298,243.697 7298,248.25L7298,264.75C7298,269.303 7301.7,273 7306.25,273L7322.75,273C7327.3,273 7331,269.303 7331,264.75L7331,248.25Z" style="fill:none;stroke:rgb(230,231,232);stroke-width:1.57px;"/>
        </g>
    </g>
</svg>
