<?xml version="1.0" encoding="UTF-8" standalone="no"?>
<!DOCTYPE svg PUBLIC "-//W3C//DTD SVG 1.1//EN" "http://www.w3.org/Graphics/SVG/1.1/DTD/svg11.dtd">
<svg width="100%" height="100%" viewBox="0 0 31 53" version="1.1" xmlns="http://www.w3.org/2000/svg" xmlns:xlink="http://www.w3.org/1999/xlink" xml:space="preserve" xmlns:serif="http://www.serif.com/" style="fill-rule:evenodd;clip-rule:evenodd;stroke-linecap:square;stroke-linejoin:round;stroke-miterlimit:1.5;">
    <g transform="matrix(1,0,0,1,-266.617,-941.349)">
        <g transform="matrix(1.86026,0,0,2.00717,-23655.2,-878.895)">
            <g transform="matrix(1,0,0,1,4324.19,-1242.86)">
                <path d="M8540.58,2155.1L8536.75,2153.4" style="fill:none;stroke:rgb(40,57,120);stroke-width:1.26px;"/>
            </g>
            <g transform="matrix(1,0,0,1,4324.19,-1242.86)">
                <path d="M8540.58,2156.38C8540.05,2156.46 8536.09,2157.16 8536.09,2157.16" style="fill:none;stroke:rgb(40,57,120);stroke-width:1.26px;"/>
            </g>
            <g transform="matrix(1,0,0,1,4324.19,-1242.86)">
                <path d="M8541.22,2156.81L8539.94,2160.74" style="fill:none;stroke:rgb(40,57,120);stroke-width:1.26px;"/>
            </g>
            <g transform="matrix(1,0,0,1,4324.19,-1242.86)">
                <path d="M8550.67,2174.78L8543.24,2157.74" style="fill:none;stroke:rgb(40,57,120);stroke-width:1.26px;"/>
            </g>
            <g transform="matrix(0.950706,0,0,0.836806,4745.03,-891.462)">
                <circle cx="8542.49" cy="2156.45" r="2.169" style="fill:rgb(40,57,120);"/>
                <path d="M8542.55,2154.28L8542.61,2154.28L8542.66,2154.29L8542.72,2154.29L8542.77,2154.3L8542.82,2154.3L8542.88,2154.31L8542.93,2154.32L8542.98,2154.34L8543.04,2154.35L8543.09,2154.36L8543.14,2154.38L8543.19,2154.39L8543.24,2154.41L8543.29,2154.43L8543.34,2154.45L8543.39,2154.47L8543.43,2154.49L8543.48,2154.52L8543.53,2154.54L8543.57,2154.57L8543.62,2154.6L8543.66,2154.62L8543.71,2154.65L8543.75,2154.68L8543.79,2154.71L8543.83,2154.74L8543.87,2154.78L8543.91,2154.81L8543.95,2154.84L8543.99,2154.88L8544.03,2154.92L8544.06,2154.95L8544.1,2154.99L8544.13,2155.03L8544.17,2155.07L8544.2,2155.11L8544.23,2155.15L8544.26,2155.19L8544.29,2155.24L8544.32,2155.28L8544.35,2155.32L8544.38,2155.37L8544.4,2155.42L8544.43,2155.46L8544.45,2155.51L8544.47,2155.56L8544.49,2155.61L8544.51,2155.65L8544.53,2155.7L8544.55,2155.75L8544.57,2155.8L8544.58,2155.86L8544.59,2155.91L8544.61,2155.96L8544.62,2156.01L8544.63,2156.07L8544.64,2156.12L8544.65,2156.17L8544.65,2156.23L8544.66,2156.28L8544.66,2156.34L8544.66,2156.39L8544.66,2156.45L8544.66,2156.51L8544.66,2156.56L8544.66,2156.62L8544.65,2156.67L8544.65,2156.73L8544.64,2156.78L8544.63,2156.83L8544.62,2156.89L8544.61,2156.94L8544.59,2156.99L8544.58,2157.04L8544.57,2157.09L8544.55,2157.14L8544.53,2157.2L8544.51,2157.24L8544.49,2157.29L8544.47,2157.34L8544.45,2157.39L8544.43,2157.44L8544.4,2157.48L8544.38,2157.53L8544.35,2157.57L8544.32,2157.62L8544.29,2157.66L8544.26,2157.7L8544.23,2157.75L8544.2,2157.79L8544.17,2157.83L8544.13,2157.87L8544.1,2157.91L8544.06,2157.95L8544.03,2157.98L8543.99,2158.02L8543.95,2158.05L8543.91,2158.09L8543.87,2158.12L8543.83,2158.16L8543.79,2158.19L8543.75,2158.22L8543.71,2158.25L8543.66,2158.28L8543.62,2158.3L8543.57,2158.33L8543.53,2158.36L8543.48,2158.38L8543.43,2158.4L8543.39,2158.43L8543.34,2158.45L8543.29,2158.47L8543.24,2158.49L8543.19,2158.5L8543.14,2158.52L8543.09,2158.54L8543.04,2158.55L8542.98,2158.56L8542.93,2158.57L8542.88,2158.59L8542.82,2158.59L8542.77,2158.6L8542.72,2158.61L8542.66,2158.61L8542.61,2158.62L8542.55,2158.62L8542.49,2158.62L8542.44,2158.62L8542.38,2158.62L8542.33,2158.61L8542.27,2158.61L8542.22,2158.6L8542.16,2158.59L8542.11,2158.59L8542.06,2158.57L8542.01,2158.56L8541.95,2158.55L8541.9,2158.54L8541.85,2158.52L8541.8,2158.5L8541.75,2158.49L8541.7,2158.47L8541.65,2158.45L8541.6,2158.43L8541.55,2158.4L8541.51,2158.38L8541.46,2158.36L8541.42,2158.33L8541.37,2158.3L8541.33,2158.28L8541.28,2158.25L8541.24,2158.22L8541.2,2158.19L8541.16,2158.16L8541.11,2158.12L8541.08,2158.09L8541.04,2158.05L8541,2158.02L8540.96,2157.98L8540.92,2157.95L8540.89,2157.91L8540.85,2157.87L8540.82,2157.83L8540.79,2157.79L8540.76,2157.75L8540.73,2157.7L8540.7,2157.66L8540.67,2157.62L8540.64,2157.57L8540.61,2157.53L8540.59,2157.48L8540.56,2157.44L8540.54,2157.39L8540.52,2157.34L8540.5,2157.29L8540.48,2157.24L8540.46,2157.2L8540.44,2157.14L8540.42,2157.09L8540.41,2157.04L8540.39,2156.99L8540.38,2156.94L8540.37,2156.89L8540.36,2156.83L8540.35,2156.78L8540.34,2156.73L8540.34,2156.67L8540.33,2156.62L8540.33,2156.56L8540.33,2156.51L8540.33,2156.45L8540.33,2156.39L8540.33,2156.34L8540.33,2156.28L8540.34,2156.23L8540.34,2156.17L8540.35,2156.12L8540.36,2156.07L8540.37,2156.01L8540.38,2155.96L8540.39,2155.91L8540.41,2155.86L8540.42,2155.8L8540.44,2155.75L8540.46,2155.7L8540.48,2155.65L8540.5,2155.61L8540.52,2155.56L8540.54,2155.51L8540.56,2155.46L8540.59,2155.42L8540.61,2155.37L8540.64,2155.32L8540.67,2155.28L8540.7,2155.24L8540.73,2155.19L8540.76,2155.15L8540.79,2155.11L8540.82,2155.07L8540.85,2155.03L8540.89,2154.99L8540.92,2154.95L8540.96,2154.92L8541,2154.88L8541.04,2154.84L8541.08,2154.81L8541.11,2154.78L8541.16,2154.74L8541.2,2154.71L8541.24,2154.68L8541.28,2154.65L8541.33,2154.62L8541.37,2154.6L8541.42,2154.57L8541.46,2154.54L8541.51,2154.52L8541.55,2154.49L8541.6,2154.47L8541.65,2154.45L8541.7,2154.43L8541.75,2154.41L8541.8,2154.39L8541.85,2154.38L8541.9,2154.36L8541.95,2154.35L8542.01,2154.34L8542.06,2154.32L8542.11,2154.31L8542.16,2154.3L8542.22,2154.3L8542.27,2154.29L8542.33,2154.29L8542.38,2154.28L8542.44,2154.28L8542.49,2154.28L8542.55,2154.28ZM8542.47,2155.83L8542.45,2155.83L8542.43,2155.83L8542.41,2155.84L8542.4,2155.84L8542.38,2155.84L8542.36,2155.84L8542.34,2155.85L8542.32,2155.85L8542.3,2155.86L8542.28,2155.86L8542.27,2155.86L8542.25,2155.87L8542.23,2155.88L8542.22,2155.88L8542.2,2155.89L8542.18,2155.9L8542.17,2155.9L8542.15,2155.91L8542.14,2155.92L8542.12,2155.93L8542.11,2155.94L8542.09,2155.95L8542.08,2155.95L8542.06,2155.97L8542.05,2155.97L8542.04,2155.99L8542.02,2156L8542.01,2156.01L8542,2156.02L8541.99,2156.03L8541.98,2156.04L8541.96,2156.05L8541.95,2156.06L8541.94,2156.07L8541.93,2156.09L8541.92,2156.1L8541.91,2156.11L8541.9,2156.12L8541.9,2156.14L8541.89,2156.15L8541.88,2156.16L8541.87,2156.17L8541.86,2156.19L8541.86,2156.2L8541.85,2156.21L8541.85,2156.22L8541.84,2156.24L8541.84,2156.25L8541.83,2156.26L8541.83,2156.28L8541.82,2156.29L8541.82,2156.3L8541.81,2156.31L8541.81,2156.33L8541.81,2156.34L8541.81,2156.35L8541.8,2156.37L8541.8,2156.38L8541.8,2156.39L8541.8,2156.41L8541.8,2156.42L8541.8,2156.43L8541.8,2156.45L8541.8,2156.46L8541.8,2156.48L8541.8,2156.49L8541.8,2156.51L8541.8,2156.52L8541.8,2156.53L8541.81,2156.55L8541.81,2156.56L8541.81,2156.57L8541.81,2156.59L8541.82,2156.6L8541.82,2156.61L8541.83,2156.62L8541.83,2156.64L8541.84,2156.65L8541.84,2156.66L8541.85,2156.68L8541.85,2156.69L8541.86,2156.7L8541.86,2156.71L8541.87,2156.73L8541.88,2156.74L8541.89,2156.75L8541.9,2156.76L8541.9,2156.78L8541.91,2156.79L8541.92,2156.8L8541.93,2156.81L8541.94,2156.82L8541.95,2156.84L8541.96,2156.85L8541.98,2156.86L8541.99,2156.87L8542,2156.88L8542.01,2156.89L8542.02,2156.9L8542.04,2156.91L8542.05,2156.92L8542.06,2156.93L8542.08,2156.94L8542.09,2156.95L8542.11,2156.96L8542.12,2156.97L8542.14,2156.98L8542.15,2156.99L8542.17,2156.99L8542.18,2157L8542.2,2157.01L8542.22,2157.02L8542.23,2157.02L8542.25,2157.03L8542.27,2157.03L8542.28,2157.04L8542.3,2157.04L8542.32,2157.05L8542.34,2157.05L8542.36,2157.06L8542.38,2157.06L8542.39,2157.06L8542.41,2157.06L8542.43,2157.07L8542.45,2157.07L8542.47,2157.07L8542.49,2157.07L8542.51,2157.07L8542.53,2157.07L8542.56,2157.07L8542.57,2157.06L8542.59,2157.06L8542.61,2157.06L8542.63,2157.06L8542.65,2157.05L8542.67,2157.05L8542.69,2157.04L8542.7,2157.04L8542.72,2157.03L8542.74,2157.03L8542.76,2157.02L8542.77,2157.02L8542.79,2157.01L8542.81,2157L8542.82,2156.99L8542.84,2156.99L8542.85,2156.98L8542.87,2156.97L8542.88,2156.96L8542.9,2156.95L8542.91,2156.94L8542.93,2156.93L8542.94,2156.92L8542.95,2156.91L8542.97,2156.9L8542.98,2156.89L8542.99,2156.88L8543,2156.87L8543.01,2156.86L8543.02,2156.85L8543.04,2156.84L8543.05,2156.82L8543.06,2156.81L8543.07,2156.8L8543.08,2156.79L8543.09,2156.78L8543.09,2156.76L8543.1,2156.75L8543.11,2156.74L8543.12,2156.73L8543.12,2156.71L8543.13,2156.7L8543.14,2156.69L8543.14,2156.68L8543.15,2156.66L8543.15,2156.65L8543.16,2156.64L8543.16,2156.62L8543.17,2156.61L8543.17,2156.6L8543.17,2156.59L8543.18,2156.57L8543.18,2156.56L8543.18,2156.55L8543.18,2156.53L8543.19,2156.52L8543.19,2156.51L8543.19,2156.49L8543.19,2156.48L8543.19,2156.46L8543.19,2156.45L8543.19,2156.43L8543.19,2156.42L8543.19,2156.41L8543.19,2156.39L8543.19,2156.38L8543.18,2156.37L8543.18,2156.35L8543.18,2156.34L8543.18,2156.33L8543.17,2156.31L8543.17,2156.3L8543.17,2156.29L8543.16,2156.28L8543.16,2156.26L8543.15,2156.25L8543.15,2156.24L8543.14,2156.22L8543.14,2156.21L8543.13,2156.2L8543.12,2156.19L8543.12,2156.17L8543.11,2156.16L8543.1,2156.15L8543.09,2156.14L8543.09,2156.12L8543.08,2156.11L8543.07,2156.1L8543.06,2156.09L8543.05,2156.07L8543.04,2156.06L8543.02,2156.05L8543.01,2156.04L8543,2156.03L8542.99,2156.02L8542.98,2156.01L8542.97,2156L8542.95,2155.99L8542.94,2155.97L8542.93,2155.97L8542.91,2155.95L8542.9,2155.95L8542.88,2155.94L8542.87,2155.93L8542.85,2155.92L8542.84,2155.91L8542.82,2155.9L8542.81,2155.9L8542.79,2155.89L8542.77,2155.88L8542.76,2155.88L8542.74,2155.87L8542.72,2155.86L8542.7,2155.86L8542.69,2155.86L8542.67,2155.85L8542.65,2155.85L8542.63,2155.84L8542.61,2155.84L8542.59,2155.84L8542.57,2155.84L8542.56,2155.83L8542.53,2155.83L8542.51,2155.83L8542.49,2155.83L8542.47,2155.83Z" style="fill:rgb(40,57,120);"/>
            </g>
            <g transform="matrix(1,0,0,1,4324.19,-1242.86)">
                <path d="M8547.09,2153.07L8543.8,2155.1" style="fill:none;stroke:rgb(40,57,120);stroke-width:1.26px;"/>
            </g>
            <g transform="matrix(1,0,0,1,4324.19,-1242.86)">
                <path d="M8543.8,2156.38L8548.38,2157.74" style="fill:none;stroke:rgb(40,57,120);stroke-width:1.26px;"/>
            </g>
            <g transform="matrix(1,0,0,1,4324.19,-1242.86)">
                <path d="M8544.27,2150.59L8543.32,2154.25" style="fill:none;stroke:rgb(40,57,120);stroke-width:1.26px;"/>
            </g>
            <g transform="matrix(1,0,0,1,4324.19,-1242.86)">
                <path d="M8540.02,2150.59L8541.45,2154.11" style="fill:none;stroke:rgb(40,57,120);stroke-width:1.26px;"/>
            </g>
        </g>
    </g>
</svg>
