<?xml version="1.0" encoding="UTF-8" standalone="no"?>
<!DOCTYPE svg PUBLIC "-//W3C//DTD SVG 1.1//EN" "http://www.w3.org/Graphics/SVG/1.1/DTD/svg11.dtd">
<svg width="100%" height="100%" viewBox="0 0 53 65" version="1.1" xmlns="http://www.w3.org/2000/svg" xmlns:xlink="http://www.w3.org/1999/xlink" xml:space="preserve" xmlns:serif="http://www.serif.com/" style="fill-rule:evenodd;clip-rule:evenodd;stroke-linejoin:round;stroke-miterlimit:1.41421;">
    <g transform="matrix(1,0,0,1,-1769,-19.8512)">
        <g>
            <g transform="matrix(0.0922218,0,0,0.0922218,1821.74,84.0201)">
                <path d="M0,-695.81L-571.868,-695.81L-571.339,-285.763C-571.126,-127.84 -442.905,0 -284.995,-0.218C-127.082,-0.43 0.81,-128.649 0.598,-286.571L0,-695.81Z" style="fill:rgb(40,57,120);fill-rule:nonzero;"/>
            </g>
            <g transform="matrix(0.0922218,0,0,0.0922218,1811.06,82.0539)">
                <path d="M0,-541.704L0,-487.747C0,-482.41 -4.327,-478.083 -9.664,-478.083L-13.69,-478.083C-19.027,-478.083 -23.354,-482.41 -23.354,-487.747L-23.354,-541.704L-51.541,-541.704L-51.541,-487.747C-51.541,-482.41 -55.867,-478.083 -61.204,-478.083L-65.231,-478.083C-70.568,-478.083 -74.895,-482.41 -74.895,-487.747L-74.895,-541.704L-105.899,-541.704L-105.899,-487.747C-105.899,-482.41 -110.227,-478.083 -115.563,-478.083L-119.59,-478.083C-124.927,-478.083 -129.254,-482.41 -129.254,-487.747L-129.254,-541.704L-158.535,-541.704L-158.535,-487.747C-158.535,-482.41 -162.862,-478.083 -168.199,-478.083L-172.226,-478.083C-177.562,-478.083 -181.89,-482.41 -181.89,-487.747L-181.89,-541.704L-210.188,-541.704L-210.188,-487.747C-210.188,-482.41 -214.515,-478.083 -219.853,-478.083L-223.879,-478.083C-229.216,-478.083 -233.543,-482.41 -233.543,-487.747L-233.543,-541.704L-265.353,-541.704L-265.353,-487.747C-265.353,-482.41 -269.68,-478.083 -275.017,-478.083L-279.043,-478.083C-284.381,-478.083 -288.708,-482.41 -288.708,-487.747L-288.708,-541.704L-318.907,-541.704L-318.907,-487.747C-318.907,-482.41 -323.233,-478.083 -328.571,-478.083L-332.597,-478.083C-337.935,-478.083 -342.261,-482.41 -342.261,-487.747L-342.261,-541.704L-364.005,-541.704L-364.005,-176.088C-171.533,0 20.938,-170.752 20.938,-176.088L20.938,-541.704L0,-541.704Z" style="fill:rgb(233,80,57);fill-rule:nonzero;"/>
            </g>
            <g transform="matrix(0.0922218,0,0,0.0922218,1811.06,81.2205)">
                <path d="M0,-541.704L0,-487.747C0,-482.411 -4.327,-478.084 -9.664,-478.084L-13.69,-478.084C-19.027,-478.084 -23.354,-482.411 -23.354,-487.747L-23.354,-541.704L-51.541,-541.704L-51.541,-487.747C-51.541,-482.411 -55.867,-478.084 -61.204,-478.084L-65.231,-478.084C-70.568,-478.084 -74.895,-482.411 -74.895,-487.747L-74.895,-541.704L-105.899,-541.704L-105.899,-487.747C-105.899,-482.411 -110.227,-478.084 -115.563,-478.084L-119.59,-478.084C-124.927,-478.084 -129.254,-482.411 -129.254,-487.747L-129.254,-541.704L-158.535,-541.704L-158.535,-487.747C-158.535,-482.411 -162.862,-478.084 -168.199,-478.084L-172.226,-478.084C-177.562,-478.084 -181.89,-482.411 -181.89,-487.747L-181.89,-541.704L-210.188,-541.704L-210.188,-487.747C-210.188,-482.411 -214.515,-478.084 -219.853,-478.084L-223.879,-478.084C-229.216,-478.084 -233.543,-482.411 -233.543,-487.747L-233.543,-541.704L-265.353,-541.704L-265.353,-487.747C-265.353,-482.411 -269.68,-478.084 -275.017,-478.084L-279.043,-478.084C-284.381,-478.084 -288.708,-482.411 -288.708,-487.747L-288.708,-541.704L-318.907,-541.704L-318.907,-487.747C-318.907,-482.411 -323.233,-478.084 -328.571,-478.084L-332.597,-478.084C-337.935,-478.084 -342.261,-482.411 -342.261,-487.747L-342.261,-541.704L-364.005,-541.704L-364.005,-176.089C-171.533,0 20.938,-170.752 20.938,-176.089L20.938,-541.704L0,-541.704Z" style="fill:rgb(224,150,121);fill-rule:nonzero;"/>
            </g>
            <g transform="matrix(0.0922218,0,0,0.0922218,1811.06,81.3065)">
                <path d="M0,-541.704L0,-487.747C0,-482.411 -4.327,-478.084 -9.664,-478.084L-13.69,-478.084C-19.027,-478.084 -23.354,-482.411 -23.354,-487.747L-23.354,-541.704L-51.541,-541.704L-51.541,-487.747C-51.541,-482.411 -55.867,-478.084 -61.204,-478.084L-65.231,-478.084C-70.568,-478.084 -74.895,-482.411 -74.895,-487.747L-74.895,-541.704L-105.899,-541.704L-105.899,-487.747C-105.899,-482.411 -110.227,-478.084 -115.563,-478.084L-119.59,-478.084C-124.927,-478.084 -129.254,-482.411 -129.254,-487.747L-129.254,-541.704L-158.535,-541.704L-158.535,-487.747C-158.535,-482.411 -162.862,-478.084 -168.199,-478.084L-172.226,-478.084C-177.562,-478.084 -181.89,-482.411 -181.89,-487.747L-181.89,-541.704L-210.188,-541.704L-210.188,-487.747C-210.188,-482.411 -214.515,-478.084 -219.853,-478.084L-223.879,-478.084C-229.216,-478.084 -233.543,-482.411 -233.543,-487.747L-233.543,-541.704L-265.353,-541.704L-265.353,-487.747C-265.353,-482.411 -269.68,-478.084 -275.017,-478.084L-279.043,-478.084C-284.381,-478.084 -288.708,-482.411 -288.708,-487.747L-288.708,-541.704L-318.907,-541.704L-318.907,-487.747C-318.907,-482.411 -323.233,-478.084 -328.571,-478.084L-332.597,-478.084C-337.935,-478.084 -342.261,-482.411 -342.261,-487.747L-342.261,-541.704L-364.005,-541.704L-364.005,-176.089C-171.533,0 20.938,-170.752 20.938,-176.089L20.938,-541.704L0,-541.704Z" style="fill:rgb(40,57,120);fill-rule:nonzero;"/>
            </g>
            <g transform="matrix(0.0922218,0,0,0.0922218,1811.06,80.3618)">
                <path d="M0,-541.704L0,-487.747C0,-482.411 -4.327,-478.084 -9.664,-478.084L-13.69,-478.084C-19.027,-478.084 -23.354,-482.411 -23.354,-487.747L-23.354,-541.704L-51.541,-541.704L-51.541,-487.747C-51.541,-482.411 -55.867,-478.084 -61.204,-478.084L-65.231,-478.084C-70.568,-478.084 -74.895,-482.411 -74.895,-487.747L-74.895,-541.704L-105.899,-541.704L-105.899,-487.747C-105.899,-482.411 -110.227,-478.084 -115.563,-478.084L-119.59,-478.084C-124.927,-478.084 -129.254,-482.411 -129.254,-487.747L-129.254,-541.704L-158.535,-541.704L-158.535,-487.747C-158.535,-482.411 -162.862,-478.084 -168.199,-478.084L-172.226,-478.084C-177.562,-478.084 -181.89,-482.411 -181.89,-487.747L-181.89,-541.704L-210.188,-541.704L-210.188,-487.747C-210.188,-482.411 -214.515,-478.084 -219.853,-478.084L-223.879,-478.084C-229.216,-478.084 -233.543,-482.411 -233.543,-487.747L-233.543,-541.704L-265.353,-541.704L-265.353,-487.747C-265.353,-482.411 -269.68,-478.084 -275.017,-478.084L-279.043,-478.084C-284.381,-478.084 -288.708,-482.411 -288.708,-487.747L-288.708,-541.704L-318.907,-541.704L-318.907,-487.747C-318.907,-482.411 -323.233,-478.084 -328.571,-478.084L-332.597,-478.084C-337.935,-478.084 -342.261,-482.411 -342.261,-487.747L-342.261,-541.704L-364.005,-541.704L-364.005,-176.089C-171.533,0 20.938,-170.752 20.938,-176.089L20.938,-541.704L0,-541.704Z" style="fill:rgb(229,68,45);fill-rule:nonzero;"/>
            </g>
            <g transform="matrix(0.0922218,0,0,0.0922218,1789.83,49.1576)">
                <path d="M0,104.167C6.556,110.239 13.596,115.094 21.125,118.735C28.648,122.378 37.515,124.199 47.712,124.199C54.507,124.199 60.397,123.169 65.377,121.103C70.351,119.043 74.42,116.312 77.578,112.908C80.731,109.511 83.042,105.624 84.498,101.253C85.955,96.883 86.684,92.393 86.684,87.777C86.684,84.135 85.955,80.254 84.498,76.122C83.042,71.996 80.731,68.234 77.578,64.831C74.42,61.434 70.294,58.64 65.195,56.454C60.096,54.27 53.904,53.177 46.62,53.177C40.303,53.177 34.476,53.848 29.138,55.18C23.794,56.517 18.695,58.156 13.84,60.097L-10.198,42.25L9.834,-65.559L133.668,-65.559L133.668,-19.667L45.892,-19.667L38.971,17.119C40.667,16.391 43.763,15.725 48.259,15.115C52.749,14.513 57.302,14.205 61.917,14.205C73.083,14.205 83.406,15.907 92.875,19.305C102.345,22.707 110.54,27.624 117.46,34.055C124.38,40.491 129.719,48.202 133.485,57.183C137.247,66.169 139.131,76.247 139.131,87.413C139.131,98.339 137.367,108.782 133.85,118.735C130.327,128.694 124.864,137.436 117.46,144.959C110.051,152.488 100.706,158.498 89.415,162.988C78.125,167.478 64.706,169.726 49.169,169.726C31.687,169.726 16.754,166.994 4.371,161.531C-8.013,156.067 -18.82,149.091 -28.044,140.589L0,104.167Z" style="fill:white;fill-rule:nonzero;"/>
            </g>
        </g>
    </g>
</svg>
