<?xml version="1.0" encoding="UTF-8" standalone="no"?>
<!DOCTYPE svg PUBLIC "-//W3C//DTD SVG 1.1//EN" "http://www.w3.org/Graphics/SVG/1.1/DTD/svg11.dtd">
<svg width="100%" height="100%" viewBox="0 0 36 40" version="1.1" xmlns="http://www.w3.org/2000/svg" xmlns:xlink="http://www.w3.org/1999/xlink" xml:space="preserve" xmlns:serif="http://www.serif.com/" style="fill-rule:evenodd;clip-rule:evenodd;stroke-linejoin:round;stroke-miterlimit:1.41421;">
    <g transform="matrix(1,0,0,1,-191.181,-946.161)">
        <g transform="matrix(1.86026,0,0,2.00717,-23655.2,-878.895)">
            <g transform="matrix(1,0,0,1,4324.19,-1242.86)">
                <path d="M8494.93,2158.62L8495.05,2158.63L8495.17,2158.63L8495.3,2158.64L8495.42,2158.64L8495.54,2158.65L8495.66,2158.66L8495.78,2158.66L8495.9,2158.67L8496.01,2158.68L8496.13,2158.69L8496.25,2158.7L8496.36,2158.71L8496.47,2158.72L8496.59,2158.73L8496.7,2158.74L8496.81,2158.76L8496.92,2158.77L8497.03,2158.78L8497.14,2158.8L8497.25,2158.81L8497.36,2158.82L8497.47,2158.84L8497.57,2158.86L8497.68,2158.87L8497.78,2158.89L8497.89,2158.91L8497.99,2158.92L8498.1,2158.94L8498.2,2158.96L8498.3,2158.98L8498.4,2159L8498.5,2159.02L8498.6,2159.04L8498.7,2159.06L8498.8,2159.08L8498.89,2159.11L8498.99,2159.13L8499.09,2159.15L8499.18,2159.18L8499.28,2159.2L8499.37,2159.22L8499.46,2159.25L8499.56,2159.27L8499.65,2159.3L8499.74,2159.33L8499.83,2159.35L8499.92,2159.38L8500.01,2159.41L8500.09,2159.44L8500.18,2159.47L8500.27,2159.49L8500.35,2159.52L8500.44,2159.55L8500.52,2159.58L8500.61,2159.61L8500.69,2159.64L8500.77,2159.68L8500.86,2159.71L8500.94,2159.74L8501.02,2159.77L8501.1,2159.81L8501.18,2159.84L8501.26,2159.88L8501.34,2159.91L8501.41,2159.95L8501.49,2159.98L8501.57,2160.02L8501.64,2160.05L8501.72,2160.09L8501.79,2160.13L8501.86,2160.16L8501.94,2160.2L8502.01,2160.24L8502.08,2160.28L8502.15,2160.32L8502.22,2160.36L8502.29,2160.4L8502.36,2160.44L8502.43,2160.48L8502.5,2160.52L8502.57,2160.56L8502.63,2160.6L8502.7,2160.64L8502.77,2160.68L8502.83,2160.73L8502.9,2160.77L8502.96,2160.81L8503.02,2160.86L8503.09,2160.9L8503.15,2160.95L8503.21,2160.99L8503.27,2161.04L8503.33,2161.08L8503.39,2161.13L8503.45,2161.18L8503.51,2161.22L8503.57,2161.27L8503.62,2161.32L8503.68,2161.36L8503.74,2161.41L8503.79,2161.46L8503.85,2161.51L8503.9,2161.56L8503.95,2161.61L8504.01,2161.66L8504.06,2161.71L8504.11,2161.76L8504.17,2161.81L8504.22,2161.86L8504.27,2161.91L8504.32,2161.96L8504.37,2162.01L8504.42,2162.07L8504.46,2162.12L8504.51,2162.17L8504.56,2162.22L8504.61,2162.28L8504.65,2162.33L8504.7,2162.39L8504.74,2162.44L8504.79,2162.49L8504.83,2162.55L8504.88,2162.61L8504.92,2162.66L8504.96,2162.72L8505,2162.77L8505.05,2162.83L8505.09,2162.89L8505.13,2162.94L8505.17,2163L8505.21,2163.06L8505.25,2163.11L8505.28,2163.17L8505.32,2163.23L8505.36,2163.29L8505.4,2163.35L8505.43,2163.41L8505.47,2163.47L8505.51,2163.53L8505.54,2163.59L8505.58,2163.64L8505.61,2163.71L8505.64,2163.77L8505.68,2163.83L8505.71,2163.89L8505.74,2163.95L8505.77,2164.01L8505.81,2164.07L8505.84,2164.13L8505.87,2164.2L8505.9,2164.26L8505.93,2164.32L8505.95,2164.38L8505.98,2164.45L8506.01,2164.51L8506.04,2164.57L8506.07,2164.64L8506.09,2164.7L8506.12,2164.76L8506.15,2164.83L8506.17,2164.89L8506.2,2164.96L8506.22,2165.02L8506.25,2165.09L8506.27,2165.15L8506.29,2165.22L8506.32,2165.28L8506.34,2165.35L8506.36,2165.42L8506.38,2165.48L8506.4,2165.55L8506.42,2165.62L8506.44,2165.68L8506.47,2165.75L8506.49,2165.82L8506.5,2165.89L8506.52,2165.95L8506.54,2166.02L8506.56,2166.09L8506.58,2166.16L8506.59,2166.22L8506.61,2166.29L8506.63,2166.36L8506.64,2166.43L8506.66,2166.5L8506.67,2166.57L8506.69,2166.64L8506.72,2166.78L8506.75,2166.91L8506.77,2167.05L8506.8,2167.2L8506.82,2167.34L8506.84,2167.48L8506.86,2167.62L8506.88,2167.76L8506.9,2167.9L8506.91,2168.05L8506.93,2168.19L8506.94,2168.34L8506.95,2168.48L8506.96,2168.62L8506.97,2168.77L8506.98,2168.91L8506.99,2169.06L8507,2169.21L8507,2169.35L8507,2169.5L8507.01,2169.65L8507.01,2169.79L8507.01,2169.94L8507.01,2170.09L8507,2170.24L8507,2170.38L8507,2170.53L8506.99,2170.68L8506.99,2170.83L8506.98,2170.98L8506.97,2171.12L8506.96,2171.27L8506.95,2171.42L8506.94,2171.57L8502.86,2171.53L8502.87,2171.34L8502.88,2171.15L8502.89,2170.96L8502.9,2170.77L8502.91,2170.59L8502.92,2170.49L8502.92,2170.39L8502.92,2170.3L8502.92,2170.21L8502.93,2170.11L8502.93,2170.02L8502.93,2169.92L8502.93,2169.83L8502.93,2169.73L8502.93,2169.64L8502.93,2169.54L8502.93,2169.45L8502.92,2169.36L8502.92,2169.26L8502.92,2169.17L8502.91,2169.07L8502.91,2168.98L8502.9,2168.89L8502.9,2168.8L8502.89,2168.7L8502.88,2168.61L8502.87,2168.52L8502.86,2168.43L8502.85,2168.33L8502.84,2168.24L8502.83,2168.15L8502.81,2168.06L8502.8,2167.97L8502.78,2167.88L8502.77,2167.79L8502.75,2167.7L8502.73,2167.61L8502.71,2167.52L8502.69,2167.43L8502.67,2167.35L8502.65,2167.26L8502.62,2167.17L8502.6,2167.08L8502.57,2167L8502.54,2166.91L8502.51,2166.83L8502.48,2166.74L8502.45,2166.66L8502.42,2166.57L8502.39,2166.49L8502.35,2166.41L8502.31,2166.32L8502.27,2166.24L8502.24,2166.16L8502.19,2166.08L8502.15,2166L8502.13,2165.96L8502.11,2165.92L8502.09,2165.88L8502.06,2165.84L8502.04,2165.8L8502.02,2165.76L8501.99,2165.72L8501.97,2165.68L8501.94,2165.64L8501.92,2165.61L8501.89,2165.57L8501.87,2165.53L8501.84,2165.49L8501.81,2165.45L8501.79,2165.42L8501.76,2165.38L8501.73,2165.34L8501.7,2165.3L8501.67,2165.27L8501.64,2165.23L8501.61,2165.19L8501.58,2165.16L8501.55,2165.12L8501.52,2165.08L8501.49,2165.05L8501.46,2165.01L8501.43,2164.98L8501.4,2164.94L8501.36,2164.91L8501.33,2164.87L8501.29,2164.84L8501.26,2164.8L8501.22,2164.77L8501.19,2164.73L8501.15,2164.7L8501.12,2164.66L8501.08,2164.63L8501.04,2164.6L8501.01,2164.57L8500.97,2164.53L8500.93,2164.5L8500.89,2164.47L8500.85,2164.43L8500.81,2164.4L8500.77,2164.37L8500.73,2164.34L8500.69,2164.31L8500.64,2164.28L8500.6,2164.24L8500.56,2164.21L8500.51,2164.18L8500.47,2164.15L8500.43,2164.12L8500.38,2164.09L8500.34,2164.06L8500.29,2164.03L8500.24,2164L8500.2,2163.97L8500.15,2163.95L8500.1,2163.92L8500.05,2163.89L8500,2163.86L8499.95,2163.83L8499.9,2163.8L8499.85,2163.78L8499.8,2163.75L8499.75,2163.72L8499.69,2163.7L8499.64,2163.67L8499.59,2163.64L8499.53,2163.62L8499.48,2163.59L8499.42,2163.57L8499.37,2163.54L8499.31,2163.52L8499.25,2163.49L8499.2,2163.47L8499.14,2163.44L8499.08,2163.42L8499.02,2163.39L8498.96,2163.37L8498.9,2163.35L8498.84,2163.32L8498.78,2163.3L8498.72,2163.28L8498.65,2163.26L8498.59,2163.24L8498.52,2163.22L8498.46,2163.19L8498.4,2163.17L8498.33,2163.15L8498.26,2163.13L8498.2,2163.11L8498.13,2163.09L8498.06,2163.07L8497.99,2163.05L8497.92,2163.03L8497.85,2163.01L8497.78,2163L8497.71,2162.98L8497.64,2162.96L8497.56,2162.94L8497.49,2162.93L8497.42,2162.91L8497.34,2162.89L8497.27,2162.88L8497.19,2162.86L8497.11,2162.84L8497.04,2162.83L8496.96,2162.81L8496.88,2162.8L8496.8,2162.78L8496.72,2162.77L8496.64,2162.76L8496.56,2162.74L8496.48,2162.73L8496.39,2162.72L8496.31,2162.7L8496.23,2162.69L8496.14,2162.68L8496.06,2162.67L8495.97,2162.66L8495.88,2162.65L8495.8,2162.64L8495.71,2162.63L8495.62,2162.62L8495.53,2162.61L8495.44,2162.6L8495.35,2162.59L8495.26,2162.58L8495.16,2162.57L8495.07,2162.56L8494.98,2162.55L8494.88,2162.55L8494.81,2158.62L8494.93,2158.62ZM8496.17,2161.46L8496.24,2161.47L8496.34,2161.48L8496.43,2161.49L8496.52,2161.51L8496.61,2161.52L8496.7,2161.53L8496.79,2161.55L8496.88,2161.56L8496.96,2161.58L8497.05,2161.59L8497.14,2161.61L8497.22,2161.63L8497.31,2161.64L8497.39,2161.66L8497.48,2161.68L8497.56,2161.69L8497.64,2161.71L8497.73,2161.73L8497.81,2161.75L8497.89,2161.77L8497.97,2161.79L8498.05,2161.81L8498.13,2161.83L8498.21,2161.85L8498.29,2161.87L8498.36,2161.89L8498.44,2161.91L8498.52,2161.93L8498.59,2161.95L8498.67,2161.98L8498.75,2162L8498.82,2162.02L8498.89,2162.05L8498.97,2162.07L8499.04,2162.1L8499.11,2162.12L8499.18,2162.15L8499.26,2162.17L8499.33,2162.2L8499.4,2162.22L8499.47,2162.25L8499.53,2162.28L8499.6,2162.3L8499.67,2162.33L8499.74,2162.36L8499.81,2162.39L8499.87,2162.42L8499.94,2162.45L8500,2162.48L8500.07,2162.51L8500.13,2162.54L8500.19,2162.57L8500.26,2162.6L8500.32,2162.63L8500.38,2162.66L8500.44,2162.69L8500.51,2162.72L8500.57,2162.76L8500.63,2162.79L8500.68,2162.82L8500.74,2162.86L8500.8,2162.89L8500.86,2162.93L8500.92,2162.96L8500.97,2163L8501.03,2163.03L8501.09,2163.07L8501.14,2163.1L8501.19,2163.14L8501.25,2163.18L8501.3,2163.21L8501.36,2163.25L8501.41,2163.29L8501.46,2163.33L8501.51,2163.36L8501.56,2163.4L8501.61,2163.44L8501.66,2163.48L8501.71,2163.52L8501.76,2163.56L8501.81,2163.6L8501.86,2163.64L8501.9,2163.68L8501.95,2163.72L8502,2163.76L8502.04,2163.8L8502.09,2163.85L8502.13,2163.89L8502.17,2163.93L8502.22,2163.97L8502.26,2164.02L8502.3,2164.06L8502.34,2164.1L8502.39,2164.15L8502.43,2164.19L8502.47,2164.24L8502.51,2164.28L8502.55,2164.32L8502.58,2164.37L8502.62,2164.41L8502.66,2164.46L8502.69,2164.51L8502.73,2164.55L8502.77,2164.6L8502.8,2164.64L8502.84,2164.69L8502.87,2164.74L8502.91,2164.78L8502.94,2164.83L8502.97,2164.88L8503,2164.93L8503.03,2164.97L8503.07,2165.02L8503.1,2165.07L8503.13,2165.12L8503.16,2165.16L8503.19,2165.21L8503.21,2165.26L8503.24,2165.31L8503.27,2165.36L8503.3,2165.41L8503.33,2165.46L8503.38,2165.55L8503.43,2165.65L8503.47,2165.75L8503.52,2165.85L8503.57,2165.95L8503.61,2166.05L8503.65,2166.15L8503.69,2166.25L8503.73,2166.35L8503.76,2166.45L8503.8,2166.56L8503.83,2166.66L8503.86,2166.76L8503.89,2166.86L8503.92,2166.97L8503.94,2167.07L8503.97,2167.17L8503.99,2167.27L8504.01,2167.38L8504.04,2167.48L8504.06,2167.58L8504.08,2167.68L8504.09,2167.79L8504.11,2167.89L8504.12,2167.99L8504.14,2168.1L8504.15,2168.2L8504.16,2168.3L8504.17,2168.4L8504.18,2168.51L8504.19,2168.61L8504.2,2168.71L8504.21,2168.81L8504.22,2168.92L8504.22,2169.02L8504.23,2169.12L8504.23,2169.22L8504.23,2169.32L8504.24,2169.43L8504.24,2169.53L8504.24,2169.63L8504.24,2169.73L8504.24,2169.83L8504.24,2169.93L8504.24,2170.03L8504.24,2170.13L8504.23,2170.23L8504.23,2170.33L8505.69,2170.34L8505.69,2170.22L8505.7,2170.08L8505.7,2169.94L8505.7,2169.8L8505.7,2169.66L8505.69,2169.52L8505.69,2169.38L8505.69,2169.25L8505.68,2169.11L8505.67,2168.97L8505.67,2168.84L8505.66,2168.7L8505.65,2168.57L8505.64,2168.43L8505.62,2168.3L8505.61,2168.17L8505.59,2168.03L8505.58,2167.9L8505.56,2167.77L8505.54,2167.64L8505.52,2167.51L8505.5,2167.38L8505.48,2167.25L8505.46,2167.13L8505.43,2167L8505.41,2166.87L8505.39,2166.81L8505.38,2166.75L8505.36,2166.68L8505.35,2166.62L8505.33,2166.56L8505.32,2166.5L8505.3,2166.44L8505.29,2166.38L8505.27,2166.31L8505.25,2166.25L8505.24,2166.19L8505.22,2166.13L8505.2,2166.07L8505.18,2166.01L8505.17,2165.95L8505.15,2165.89L8505.13,2165.83L8505.11,2165.77L8505.09,2165.72L8505.07,2165.66L8505.05,2165.6L8505.03,2165.54L8505.01,2165.48L8504.99,2165.42L8504.96,2165.37L8504.94,2165.31L8504.92,2165.25L8504.9,2165.2L8504.87,2165.14L8504.85,2165.08L8504.82,2165.03L8504.8,2164.97L8504.77,2164.91L8504.75,2164.86L8504.72,2164.8L8504.7,2164.75L8504.67,2164.69L8504.65,2164.64L8504.62,2164.59L8504.59,2164.53L8504.56,2164.48L8504.53,2164.43L8504.51,2164.37L8504.48,2164.32L8504.45,2164.27L8504.42,2164.22L8504.39,2164.16L8504.36,2164.11L8504.33,2164.06L8504.3,2164.01L8504.26,2163.96L8504.23,2163.91L8504.2,2163.86L8504.17,2163.81L8504.13,2163.76L8504.1,2163.71L8504.07,2163.66L8504.03,2163.61L8504,2163.56L8503.96,2163.51L8503.93,2163.46L8503.89,2163.41L8503.85,2163.37L8503.82,2163.32L8503.78,2163.27L8503.74,2163.22L8503.7,2163.18L8503.66,2163.13L8503.63,2163.09L8503.59,2163.04L8503.55,2162.99L8503.51,2162.95L8503.46,2162.9L8503.42,2162.86L8503.38,2162.81L8503.34,2162.77L8503.3,2162.73L8503.25,2162.68L8503.21,2162.64L8503.17,2162.6L8503.12,2162.55L8503.08,2162.51L8503.03,2162.47L8502.98,2162.43L8502.94,2162.38L8502.89,2162.34L8502.84,2162.3L8502.8,2162.26L8502.75,2162.22L8502.7,2162.18L8502.65,2162.14L8502.6,2162.1L8502.55,2162.06L8502.5,2162.02L8502.44,2161.98L8502.39,2161.94L8502.34,2161.9L8502.29,2161.87L8502.23,2161.83L8502.18,2161.79L8502.12,2161.75L8502.07,2161.72L8502.01,2161.68L8501.96,2161.64L8501.9,2161.61L8501.84,2161.57L8501.78,2161.53L8501.72,2161.5L8501.67,2161.46L8501.6,2161.43L8501.54,2161.39L8501.48,2161.36L8501.42,2161.32L8501.36,2161.29L8501.3,2161.26L8501.23,2161.23L8501.17,2161.19L8501.1,2161.16L8501.04,2161.13L8500.97,2161.1L8500.9,2161.07L8500.84,2161.03L8500.77,2161L8500.7,2160.97L8500.63,2160.94L8500.56,2160.91L8500.49,2160.88L8500.42,2160.86L8500.34,2160.83L8500.27,2160.8L8500.2,2160.77L8500.12,2160.74L8500.05,2160.71L8499.97,2160.69L8499.9,2160.66L8499.82,2160.63L8499.74,2160.61L8499.66,2160.58L8499.58,2160.56L8499.5,2160.53L8499.42,2160.51L8499.34,2160.48L8499.26,2160.46L8499.18,2160.44L8499.09,2160.41L8499.01,2160.39L8498.92,2160.37L8498.84,2160.35L8498.75,2160.32L8498.67,2160.3L8498.58,2160.28L8498.49,2160.26L8498.4,2160.24L8498.31,2160.22L8498.22,2160.2L8498.13,2160.19L8498.03,2160.17L8497.94,2160.15L8497.85,2160.13L8497.75,2160.12L8497.66,2160.1L8497.56,2160.08L8497.46,2160.07L8497.36,2160.05L8497.26,2160.04L8497.16,2160.02L8497.06,2160.01L8496.96,2160L8496.86,2159.98L8496.76,2159.97L8496.65,2159.96L8496.55,2159.95L8496.44,2159.94L8496.34,2159.93L8496.23,2159.92L8496.14,2159.91L8496.17,2161.46Z" style="fill:rgb(40,57,120);"/>
            </g>
            <g transform="matrix(1,0,0,1,4324,-1249.35)">
                <path d="M8494.98,2158.62L8495.15,2158.62L8495.32,2158.63L8495.49,2158.64L8495.66,2158.64L8495.82,2158.65L8495.99,2158.66L8496.16,2158.67L8496.32,2158.68L8496.48,2158.69L8496.65,2158.71L8496.81,2158.72L8496.97,2158.74L8497.13,2158.75L8497.29,2158.77L8497.45,2158.79L8497.6,2158.81L8497.76,2158.83L8497.92,2158.85L8498.07,2158.88L8498.22,2158.9L8498.38,2158.92L8498.53,2158.95L8498.68,2158.98L8498.83,2159L8498.98,2159.03L8499.13,2159.06L8499.27,2159.09L8499.42,2159.12L8499.57,2159.16L8499.71,2159.19L8499.85,2159.22L8500,2159.26L8500.14,2159.3L8500.28,2159.33L8500.42,2159.37L8500.56,2159.41L8500.7,2159.45L8500.84,2159.49L8500.97,2159.53L8501.11,2159.57L8501.24,2159.62L8501.38,2159.66L8501.51,2159.71L8501.65,2159.75L8501.78,2159.8L8501.91,2159.85L8502.04,2159.89L8502.17,2159.94L8502.3,2159.99L8502.42,2160.04L8502.55,2160.1L8502.67,2160.15L8502.8,2160.2L8502.92,2160.26L8503.05,2160.31L8503.17,2160.37L8503.29,2160.42L8503.41,2160.48L8503.53,2160.53L8503.65,2160.59L8503.77,2160.65L8503.89,2160.71L8504.01,2160.77L8504.12,2160.83L8504.24,2160.9L8504.35,2160.96L8504.46,2161.02L8504.58,2161.09L8504.69,2161.15L8504.8,2161.22L8504.91,2161.28L8505.02,2161.35L8505.13,2161.42L8505.24,2161.48L8505.34,2161.55L8505.45,2161.62L8505.56,2161.69L8505.66,2161.76L8505.76,2161.83L8505.87,2161.9L8505.97,2161.98L8506.07,2162.05L8506.17,2162.12L8506.27,2162.2L8506.37,2162.27L8506.47,2162.35L8506.57,2162.42L8506.66,2162.5L8506.76,2162.57L8506.86,2162.65L8506.95,2162.73L8507.04,2162.81L8507.14,2162.89L8507.23,2162.97L8507.32,2163.05L8507.41,2163.13L8507.5,2163.21L8507.59,2163.29L8507.68,2163.37L8507.77,2163.45L8507.86,2163.53L8507.94,2163.62L8508.03,2163.7L8508.11,2163.78L8508.2,2163.87L8508.28,2163.95L8508.36,2164.04L8508.45,2164.12L8508.53,2164.21L8508.61,2164.3L8508.69,2164.38L8508.77,2164.47L8508.85,2164.56L8508.92,2164.64L8509,2164.73L8509.08,2164.82L8509.15,2164.91L8509.23,2165L8509.3,2165.09L8509.38,2165.18L8509.45,2165.27L8509.52,2165.36L8509.59,2165.45L8509.66,2165.54L8509.73,2165.64L8509.8,2165.73L8509.87,2165.82L8509.94,2165.91L8510.01,2166L8510.07,2166.1L8510.14,2166.19L8510.2,2166.28L8510.27,2166.38L8510.33,2166.47L8510.4,2166.57L8510.46,2166.66L8510.52,2166.75L8510.58,2166.85L8510.64,2166.94L8510.7,2167.04L8510.76,2167.13L8510.82,2167.23L8510.88,2167.32L8510.93,2167.42L8510.99,2167.52L8511.05,2167.61L8511.1,2167.71L8511.16,2167.8L8511.21,2167.9L8511.26,2168L8511.32,2168.1L8511.37,2168.19L8511.42,2168.29L8511.47,2168.39L8511.52,2168.48L8511.57,2168.58L8511.62,2168.68L8511.67,2168.78L8511.71,2168.87L8511.76,2168.97L8511.81,2169.07L8511.85,2169.17L8511.9,2169.26L8511.94,2169.36L8511.99,2169.46L8512.03,2169.56L8512.07,2169.66L8512.11,2169.75L8512.16,2169.85L8512.2,2169.95L8512.24,2170.05L8512.28,2170.14L8512.32,2170.24L8512.35,2170.34L8512.39,2170.44L8512.43,2170.53L8512.47,2170.63L8512.5,2170.73L8512.54,2170.83L8512.57,2170.93L8512.61,2171.02L8512.64,2171.12L8512.67,2171.22L8512.71,2171.31L8512.74,2171.41L8512.77,2171.51L8512.8,2171.6L8512.83,2171.7L8512.86,2171.8L8512.89,2171.89L8512.92,2171.99L8512.95,2172.09L8512.97,2172.18L8513,2172.28L8513.03,2172.37L8513.05,2172.47L8513.08,2172.56L8513.1,2172.66L8513.13,2172.75L8513.15,2172.85L8513.17,2172.94L8513.2,2173.03L8513.22,2173.13L8513.24,2173.22L8513.26,2173.32L8513.28,2173.41L8513.3,2173.5L8513.32,2173.59L8513.34,2173.68L8513.36,2173.78L8513.38,2173.87L8513.39,2173.96L8513.41,2174.05L8513.43,2174.14L8513.44,2174.23L8513.46,2174.32L8513.47,2174.41L8513.49,2174.5L8513.5,2174.59L8513.51,2174.68L8513.52,2174.77L8513.54,2174.86L8513.55,2174.94L8513.56,2175.03L8513.57,2175.12L8513.58,2175.2L8513.59,2175.29L8513.6,2175.38L8513.61,2175.46L8513.62,2175.55L8513.62,2175.63L8513.63,2175.72L8513.64,2175.8L8513.64,2175.88L8513.65,2175.97L8513.66,2176.05L8513.66,2176.13L8513.66,2176.21L8513.67,2176.29L8513.67,2176.37L8513.67,2176.45L8513.68,2176.53L8513.68,2176.61L8513.68,2176.69L8513.68,2176.77L8513.68,2176.85L8513.68,2176.92L8513.68,2177L8513.68,2177.07L8513.68,2177.15L8513.68,2177.22L8513.68,2177.3L8513.67,2177.37L8513.67,2177.45L8513.67,2177.52L8509.58,2177.48L8509.59,2177.38L8509.6,2177.29L8509.6,2177.19L8509.6,2177.09L8509.6,2176.98L8509.61,2176.87L8509.61,2176.76L8509.61,2176.66L8509.6,2176.54L8509.6,2176.43L8509.6,2176.31L8509.59,2176.19L8509.58,2176.07L8509.58,2175.95L8509.57,2175.83L8509.56,2175.7L8509.54,2175.57L8509.53,2175.45L8509.52,2175.32L8509.5,2175.18L8509.48,2175.05L8509.46,2174.92L8509.44,2174.78L8509.42,2174.64L8509.4,2174.51L8509.37,2174.37L8509.35,2174.23L8509.32,2174.09L8509.29,2173.94L8509.26,2173.8L8509.23,2173.66L8509.19,2173.51L8509.16,2173.36L8509.12,2173.22L8509.08,2173.07L8509.04,2172.92L8509,2172.77L8508.95,2172.62L8508.91,2172.47L8508.86,2172.32L8508.83,2172.24L8508.81,2172.17L8508.78,2172.09L8508.76,2172.02L8508.73,2171.94L8508.7,2171.86L8508.68,2171.79L8508.65,2171.71L8508.62,2171.64L8508.59,2171.56L8508.56,2171.48L8508.53,2171.41L8508.5,2171.33L8508.47,2171.25L8508.44,2171.18L8508.41,2171.1L8508.37,2171.02L8508.34,2170.95L8508.31,2170.87L8508.27,2170.79L8508.24,2170.72L8508.2,2170.64L8508.17,2170.56L8508.13,2170.49L8508.09,2170.41L8508.06,2170.33L8508.02,2170.25L8507.98,2170.18L8507.94,2170.1L8507.9,2170.03L8507.86,2169.95L8507.82,2169.87L8507.78,2169.8L8507.74,2169.72L8507.7,2169.64L8507.66,2169.57L8507.61,2169.49L8507.57,2169.41L8507.53,2169.34L8507.48,2169.26L8507.44,2169.19L8507.39,2169.11L8507.34,2169.04L8507.3,2168.96L8507.25,2168.89L8507.2,2168.81L8507.15,2168.74L8507.1,2168.66L8507.05,2168.59L8507,2168.51L8506.95,2168.44L8506.9,2168.37L8506.84,2168.29L8506.79,2168.22L8506.74,2168.14L8506.68,2168.07L8506.63,2168L8506.57,2167.93L8506.52,2167.85L8506.46,2167.78L8506.4,2167.71L8506.34,2167.64L8506.29,2167.57L8506.23,2167.5L8506.17,2167.43L8506.11,2167.35L8506.05,2167.28L8505.98,2167.21L8505.92,2167.14L8505.86,2167.07L8505.79,2167L8505.73,2166.93L8505.66,2166.87L8505.6,2166.8L8505.53,2166.73L8505.46,2166.66L8505.4,2166.6L8505.33,2166.53L8505.26,2166.46L8505.19,2166.39L8505.12,2166.33L8505.05,2166.26L8504.98,2166.2L8504.9,2166.13L8504.83,2166.07L8504.76,2166L8504.68,2165.94L8504.6,2165.88L8504.53,2165.81L8504.45,2165.75L8504.37,2165.69L8504.3,2165.63L8504.22,2165.57L8504.14,2165.51L8504.06,2165.45L8503.98,2165.39L8503.89,2165.33L8503.81,2165.27L8503.73,2165.21L8503.64,2165.15L8503.56,2165.09L8503.47,2165.03L8503.39,2164.98L8503.3,2164.92L8503.21,2164.87L8503.12,2164.81L8503.03,2164.76L8502.94,2164.7L8502.85,2164.65L8502.76,2164.6L8502.67,2164.54L8502.58,2164.49L8502.48,2164.44L8502.39,2164.39L8502.29,2164.34L8502.19,2164.29L8502.1,2164.24L8502,2164.19L8501.9,2164.14L8501.8,2164.09L8501.7,2164.05L8501.6,2164L8501.5,2163.95L8501.4,2163.91L8501.29,2163.87L8501.19,2163.82L8501.08,2163.78L8500.98,2163.74L8500.87,2163.69L8500.76,2163.65L8500.66,2163.61L8500.55,2163.57L8500.44,2163.53L8500.33,2163.49L8500.21,2163.45L8500.1,2163.42L8499.99,2163.38L8499.87,2163.34L8499.76,2163.31L8499.64,2163.27L8499.53,2163.24L8499.41,2163.21L8499.29,2163.18L8499.17,2163.14L8499.05,2163.11L8498.93,2163.08L8498.81,2163.05L8498.68,2163.02L8498.56,2162.99L8498.44,2162.97L8498.31,2162.94L8498.18,2162.92L8498.06,2162.89L8497.93,2162.87L8497.8,2162.84L8497.67,2162.82L8497.54,2162.8L8497.41,2162.78L8497.28,2162.76L8497.14,2162.74L8497.01,2162.72L8496.87,2162.7L8496.74,2162.69L8496.6,2162.67L8496.46,2162.66L8496.32,2162.64L8496.18,2162.63L8496.04,2162.62L8495.9,2162.6L8495.76,2162.59L8495.61,2162.58L8495.47,2162.57L8495.33,2162.57L8495.18,2162.56L8495.03,2162.55L8494.88,2162.55L8494.81,2158.62L8494.98,2158.62ZM8496.17,2161.41L8496.31,2161.42L8496.46,2161.43L8496.61,2161.45L8496.76,2161.47L8496.91,2161.48L8497.05,2161.5L8497.2,2161.52L8497.34,2161.54L8497.48,2161.56L8497.63,2161.58L8497.77,2161.6L8497.91,2161.63L8498.05,2161.65L8498.19,2161.68L8498.32,2161.7L8498.46,2161.73L8498.6,2161.76L8498.73,2161.79L8498.87,2161.82L8499,2161.85L8499.13,2161.88L8499.27,2161.91L8499.4,2161.94L8499.53,2161.97L8499.66,2162.01L8499.78,2162.05L8499.91,2162.08L8500.04,2162.12L8500.17,2162.16L8500.29,2162.19L8500.42,2162.23L8500.54,2162.27L8500.66,2162.31L8500.78,2162.36L8500.9,2162.4L8501.02,2162.44L8501.14,2162.48L8501.26,2162.53L8501.38,2162.57L8501.5,2162.62L8501.61,2162.67L8501.73,2162.71L8501.84,2162.76L8501.95,2162.81L8502.07,2162.86L8502.18,2162.91L8502.29,2162.96L8502.4,2163.01L8502.51,2163.07L8502.61,2163.12L8502.72,2163.17L8502.83,2163.23L8502.93,2163.28L8503.04,2163.34L8503.14,2163.39L8503.25,2163.45L8503.35,2163.51L8503.45,2163.56L8503.55,2163.62L8503.65,2163.68L8503.75,2163.74L8503.85,2163.8L8503.95,2163.86L8504.04,2163.92L8504.14,2163.99L8504.24,2164.05L8504.33,2164.11L8504.42,2164.17L8504.51,2164.24L8504.61,2164.3L8504.7,2164.37L8504.79,2164.43L8504.88,2164.5L8504.97,2164.57L8505.05,2164.63L8505.14,2164.7L8505.23,2164.77L8505.31,2164.84L8505.4,2164.91L8505.48,2164.97L8505.56,2165.04L8505.65,2165.12L8505.73,2165.18L8505.81,2165.26L8505.89,2165.33L8505.97,2165.4L8506.05,2165.47L8506.12,2165.54L8506.2,2165.62L8506.27,2165.69L8506.35,2165.76L8506.42,2165.84L8506.5,2165.91L8506.57,2165.99L8506.64,2166.06L8506.72,2166.14L8506.79,2166.21L8506.86,2166.29L8506.92,2166.37L8506.99,2166.44L8507.06,2166.52L8507.13,2166.6L8507.19,2166.67L8507.26,2166.75L8507.33,2166.83L8507.39,2166.91L8507.45,2166.99L8507.52,2167.06L8507.58,2167.14L8507.64,2167.22L8507.7,2167.3L8507.76,2167.38L8507.82,2167.46L8507.88,2167.54L8507.94,2167.62L8507.99,2167.7L8508.05,2167.78L8508.1,2167.86L8508.16,2167.94L8508.22,2168.02L8508.27,2168.11L8508.32,2168.19L8508.37,2168.27L8508.43,2168.35L8508.48,2168.43L8508.53,2168.51L8508.58,2168.59L8508.63,2168.68L8508.68,2168.76L8508.72,2168.84L8508.77,2168.92L8508.82,2169.01L8508.86,2169.09L8508.91,2169.17L8508.95,2169.25L8509,2169.34L8509.04,2169.42L8509.09,2169.5L8509.13,2169.58L8509.17,2169.67L8509.21,2169.75L8509.25,2169.83L8509.29,2169.91L8509.33,2170L8509.37,2170.08L8509.41,2170.16L8509.45,2170.24L8509.48,2170.33L8509.52,2170.41L8509.56,2170.49L8509.59,2170.58L8509.63,2170.66L8509.66,2170.74L8509.69,2170.82L8509.73,2170.91L8509.76,2170.99L8509.79,2171.07L8509.83,2171.15L8509.86,2171.24L8509.89,2171.32L8509.92,2171.4L8509.95,2171.48L8509.98,2171.56L8510,2171.64L8510.03,2171.73L8510.06,2171.81L8510.09,2171.89L8510.11,2171.97L8510.16,2172.13L8510.21,2172.29L8510.26,2172.45L8510.31,2172.62L8510.35,2172.77L8510.39,2172.93L8510.43,2173.09L8510.47,2173.25L8510.51,2173.4L8510.54,2173.56L8510.58,2173.71L8510.61,2173.86L8510.64,2174.02L8510.67,2174.17L8510.69,2174.32L8510.72,2174.46L8510.74,2174.61L8510.76,2174.76L8510.78,2174.9L8510.8,2175.04L8510.82,2175.19L8510.83,2175.33L8510.85,2175.47L8510.86,2175.6L8510.87,2175.74L8510.88,2175.87L8510.89,2176L8510.9,2176.13L8510.91,2176.26L8510.91,2176.28L8512.36,2176.29L8512.36,2176.27L8512.35,2176.19L8512.35,2176.12L8512.34,2176.04L8512.34,2175.97L8512.33,2175.89L8512.33,2175.81L8512.32,2175.73L8512.31,2175.65L8512.3,2175.57L8512.3,2175.49L8512.29,2175.41L8512.28,2175.33L8512.27,2175.25L8512.26,2175.17L8512.25,2175.09L8512.24,2175.01L8512.23,2174.93L8512.21,2174.84L8512.2,2174.76L8512.19,2174.68L8512.18,2174.59L8512.16,2174.51L8512.15,2174.42L8512.13,2174.34L8512.12,2174.25L8512.1,2174.17L8512.09,2174.08L8512.07,2173.99L8512.05,2173.91L8512.03,2173.82L8512.02,2173.73L8512,2173.65L8511.98,2173.56L8511.96,2173.47L8511.94,2173.38L8511.92,2173.3L8511.9,2173.21L8511.88,2173.12L8511.85,2173.03L8511.83,2172.94L8511.81,2172.85L8511.78,2172.76L8511.76,2172.67L8511.73,2172.58L8511.71,2172.49L8511.68,2172.4L8511.66,2172.31L8511.63,2172.22L8511.6,2172.13L8511.57,2172.04L8511.54,2171.95L8511.51,2171.85L8511.49,2171.76L8511.45,2171.67L8511.42,2171.58L8511.39,2171.49L8511.36,2171.4L8511.33,2171.3L8511.3,2171.21L8511.26,2171.12L8511.23,2171.03L8511.19,2170.94L8511.16,2170.85L8511.12,2170.75L8511.09,2170.66L8511.05,2170.57L8511.01,2170.48L8510.98,2170.38L8510.94,2170.29L8510.9,2170.2L8510.86,2170.11L8510.82,2170.01L8510.78,2169.92L8510.74,2169.83L8510.69,2169.74L8510.65,2169.65L8510.61,2169.55L8510.56,2169.46L8510.52,2169.37L8510.48,2169.28L8510.43,2169.19L8510.38,2169.1L8510.34,2169L8510.29,2168.91L8510.24,2168.82L8510.19,2168.73L8510.15,2168.64L8510.09,2168.55L8510.05,2168.46L8509.99,2168.37L8509.94,2168.28L8509.89,2168.19L8509.84,2168.1L8509.79,2168.01L8509.73,2167.91L8509.68,2167.83L8509.62,2167.74L8509.57,2167.65L8509.51,2167.56L8509.45,2167.47L8509.4,2167.38L8509.34,2167.29L8509.28,2167.2L8509.22,2167.12L8509.16,2167.03L8509.1,2166.94L8509.04,2166.85L8508.98,2166.76L8508.92,2166.68L8508.85,2166.59L8508.79,2166.51L8508.73,2166.42L8508.66,2166.33L8508.6,2166.25L8508.53,2166.16L8508.46,2166.08L8508.4,2165.99L8508.33,2165.91L8508.26,2165.83L8508.19,2165.74L8508.12,2165.66L8508.05,2165.58L8507.98,2165.49L8507.91,2165.41L8507.84,2165.33L8507.76,2165.25L8507.69,2165.17L8507.61,2165.09L8507.54,2165.01L8507.46,2164.93L8507.39,2164.85L8507.31,2164.77L8507.23,2164.69L8507.16,2164.61L8507.08,2164.53L8507,2164.46L8506.92,2164.38L8506.84,2164.3L8506.76,2164.23L8506.67,2164.15L8506.59,2164.08L8506.51,2164L8506.42,2163.93L8506.34,2163.85L8506.25,2163.78L8506.17,2163.71L8506.08,2163.64L8505.99,2163.56L8505.9,2163.49L8505.81,2163.42L8505.72,2163.35L8505.63,2163.28L8505.54,2163.21L8505.45,2163.14L8505.36,2163.07L8505.27,2163.01L8505.17,2162.94L8505.08,2162.87L8504.98,2162.81L8504.89,2162.74L8504.79,2162.68L8504.69,2162.61L8504.59,2162.55L8504.5,2162.49L8504.4,2162.42L8504.3,2162.36L8504.19,2162.3L8504.09,2162.24L8503.99,2162.18L8503.89,2162.12L8503.78,2162.06L8503.68,2162L8503.57,2161.94L8503.47,2161.89L8503.36,2161.83L8503.25,2161.77L8503.15,2161.72L8503.04,2161.66L8502.93,2161.61L8502.82,2161.56L8502.7,2161.51L8502.59,2161.45L8502.48,2161.4L8502.36,2161.35L8502.25,2161.3L8502.13,2161.25L8502.02,2161.2L8501.9,2161.16L8501.78,2161.11L8501.67,2161.07L8501.55,2161.02L8501.42,2160.97L8501.3,2160.93L8501.18,2160.89L8501.06,2160.85L8500.94,2160.8L8500.81,2160.76L8500.69,2160.72L8500.56,2160.68L8500.43,2160.64L8500.31,2160.61L8500.18,2160.57L8500.05,2160.53L8499.92,2160.5L8499.79,2160.47L8499.66,2160.43L8499.52,2160.4L8499.39,2160.37L8499.25,2160.34L8499.12,2160.3L8498.98,2160.28L8498.84,2160.25L8498.71,2160.22L8498.57,2160.19L8498.43,2160.17L8498.29,2160.14L8498.15,2160.12L8498,2160.1L8497.86,2160.07L8497.71,2160.05L8497.57,2160.03L8497.42,2160.01L8497.27,2159.99L8497.13,2159.97L8496.98,2159.96L8496.83,2159.94L8496.68,2159.93L8496.52,2159.91L8496.37,2159.9L8496.22,2159.89L8496.14,2159.89L8496.17,2161.41Z" style="fill:rgb(40,57,120);"/>
            </g>
            <g transform="matrix(1,0,0,1,4325.01,-1242.55)">
                <path d="M8497.35,2165.5L8497.38,2165.5L8497.41,2165.5L8497.45,2165.51L8497.48,2165.51L8497.51,2165.51L8497.55,2165.51L8497.58,2165.52L8497.61,2165.52L8497.64,2165.52L8497.67,2165.53L8497.71,2165.53L8497.74,2165.54L8497.77,2165.54L8497.8,2165.55L8497.83,2165.55L8497.87,2165.56L8497.9,2165.57L8497.93,2165.58L8497.96,2165.58L8497.99,2165.59L8498.02,2165.6L8498.05,2165.61L8498.08,2165.62L8498.11,2165.63L8498.14,2165.64L8498.17,2165.65L8498.2,2165.66L8498.23,2165.67L8498.26,2165.68L8498.29,2165.69L8498.32,2165.71L8498.35,2165.72L8498.38,2165.73L8498.41,2165.74L8498.43,2165.76L8498.46,2165.77L8498.49,2165.79L8498.55,2165.82L8498.6,2165.85L8498.65,2165.88L8498.71,2165.91L8498.76,2165.94L8498.81,2165.98L8498.86,2166.02L8498.91,2166.05L8498.96,2166.09L8499.01,2166.13L8499.05,2166.18L8499.1,2166.22L8499.14,2166.26L8499.18,2166.3L8499.23,2166.35L8499.27,2166.4L8499.31,2166.44L8499.35,2166.49L8499.39,2166.54L8499.42,2166.59L8499.46,2166.64L8499.49,2166.7L8499.52,2166.75L8499.56,2166.8L8499.59,2166.86L8499.62,2166.91L8499.65,2166.97L8499.67,2167.03L8499.7,2167.08L8499.72,2167.14L8499.74,2167.2L8499.76,2167.26L8499.78,2167.32L8499.8,2167.38L8499.82,2167.44L8499.83,2167.51L8499.84,2167.54L8499.85,2167.57L8499.85,2167.6L8499.86,2167.63L8499.86,2167.66L8499.87,2167.7L8499.88,2167.73L8499.88,2167.76L8499.88,2167.79L8499.89,2167.82L8499.89,2167.86L8499.89,2167.89L8499.89,2167.92L8499.9,2167.96L8499.9,2167.99L8499.9,2168.02L8499.9,2168.05L8499.9,2168.09L8499.9,2168.12L8499.9,2168.16L8499.9,2168.19L8499.9,2168.22L8499.89,2168.26L8499.89,2168.29L8499.89,2168.32L8499.89,2168.35L8499.88,2168.39L8499.88,2168.42L8499.88,2168.45L8499.87,2168.48L8499.86,2168.51L8499.86,2168.55L8499.85,2168.58L8499.85,2168.61L8499.84,2168.64L8499.83,2168.67L8499.82,2168.74L8499.8,2168.8L8499.78,2168.86L8499.76,2168.92L8499.74,2168.98L8499.72,2169.04L8499.7,2169.1L8499.67,2169.15L8499.65,2169.21L8499.62,2169.27L8499.59,2169.32L8499.56,2169.38L8499.52,2169.43L8499.49,2169.48L8499.46,2169.53L8499.42,2169.59L8499.39,2169.64L8499.35,2169.68L8499.31,2169.73L8499.27,2169.78L8499.23,2169.83L8499.18,2169.87L8499.14,2169.92L8499.1,2169.96L8499.05,2170L8499.01,2170.04L8498.96,2170.08L8498.91,2170.12L8498.86,2170.16L8498.81,2170.2L8498.76,2170.23L8498.71,2170.27L8498.65,2170.3L8498.6,2170.33L8498.55,2170.36L8498.49,2170.39L8498.46,2170.41L8498.43,2170.42L8498.41,2170.43L8498.38,2170.45L8498.35,2170.46L8498.32,2170.47L8498.29,2170.48L8498.26,2170.5L8498.23,2170.51L8498.2,2170.52L8498.17,2170.53L8498.14,2170.54L8498.11,2170.55L8498.08,2170.56L8498.05,2170.57L8498.02,2170.58L8497.99,2170.59L8497.96,2170.59L8497.93,2170.6L8497.9,2170.61L8497.87,2170.62L8497.83,2170.62L8497.8,2170.63L8497.77,2170.64L8497.74,2170.64L8497.71,2170.64L8497.67,2170.65L8497.64,2170.65L8497.61,2170.66L8497.58,2170.66L8497.55,2170.66L8497.51,2170.67L8497.48,2170.67L8497.45,2170.67L8497.41,2170.67L8497.38,2170.67L8497.35,2170.68L8497.31,2170.68L8497.28,2170.68L8497.25,2170.67L8497.21,2170.67L8497.18,2170.67L8497.15,2170.67L8497.11,2170.67L8497.08,2170.66L8497.05,2170.66L8497.02,2170.66L8496.98,2170.65L8496.95,2170.65L8496.92,2170.64L8496.89,2170.64L8496.86,2170.64L8496.82,2170.63L8496.79,2170.62L8496.76,2170.62L8496.73,2170.61L8496.7,2170.6L8496.67,2170.59L8496.64,2170.59L8496.61,2170.58L8496.58,2170.57L8496.55,2170.56L8496.51,2170.55L8496.48,2170.54L8496.45,2170.53L8496.42,2170.52L8496.4,2170.51L8496.36,2170.5L8496.34,2170.48L8496.31,2170.47L8496.28,2170.46L8496.25,2170.45L8496.22,2170.43L8496.19,2170.42L8496.16,2170.41L8496.14,2170.39L8496.08,2170.36L8496.03,2170.33L8495.97,2170.3L8495.92,2170.27L8495.87,2170.23L8495.82,2170.2L8495.77,2170.16L8495.72,2170.12L8495.67,2170.08L8495.62,2170.04L8495.58,2170L8495.53,2169.96L8495.49,2169.92L8495.44,2169.87L8495.4,2169.83L8495.36,2169.78L8495.32,2169.73L8495.28,2169.68L8495.24,2169.64L8495.2,2169.59L8495.17,2169.53L8495.14,2169.48L8495.1,2169.43L8495.07,2169.38L8495.04,2169.32L8495.01,2169.27L8494.98,2169.21L8494.96,2169.15L8494.93,2169.1L8494.91,2169.04L8494.88,2168.98L8494.86,2168.92L8494.84,2168.86L8494.83,2168.8L8494.81,2168.74L8494.79,2168.67L8494.79,2168.64L8494.78,2168.61L8494.77,2168.58L8494.77,2168.55L8494.76,2168.51L8494.76,2168.48L8494.75,2168.45L8494.75,2168.42L8494.74,2168.39L8494.74,2168.35L8494.74,2168.32L8494.74,2168.29L8494.73,2168.26L8494.73,2168.22L8494.73,2168.19L8494.73,2168.16L8494.73,2168.12L8494.73,2168.09L8494.73,2168.05L8494.73,2168.02L8494.73,2167.99L8494.73,2167.96L8494.73,2167.92L8494.74,2167.89L8494.74,2167.86L8494.74,2167.82L8494.74,2167.79L8494.75,2167.76L8494.75,2167.73L8494.76,2167.7L8494.76,2167.66L8494.77,2167.63L8494.77,2167.6L8494.78,2167.57L8494.79,2167.54L8494.79,2167.51L8494.81,2167.44L8494.83,2167.38L8494.84,2167.32L8494.86,2167.26L8494.88,2167.2L8494.91,2167.14L8494.93,2167.08L8494.96,2167.03L8494.98,2166.97L8495.01,2166.91L8495.04,2166.86L8495.07,2166.8L8495.1,2166.75L8495.14,2166.7L8495.17,2166.64L8495.2,2166.59L8495.24,2166.54L8495.28,2166.49L8495.32,2166.44L8495.36,2166.4L8495.4,2166.35L8495.44,2166.3L8495.49,2166.26L8495.53,2166.22L8495.58,2166.18L8495.62,2166.13L8495.67,2166.09L8495.72,2166.05L8495.77,2166.02L8495.82,2165.98L8495.87,2165.94L8495.92,2165.91L8495.97,2165.88L8496.03,2165.85L8496.08,2165.82L8496.14,2165.79L8496.16,2165.77L8496.19,2165.76L8496.22,2165.74L8496.25,2165.73L8496.28,2165.72L8496.31,2165.71L8496.34,2165.69L8496.36,2165.68L8496.4,2165.67L8496.42,2165.66L8496.45,2165.65L8496.48,2165.64L8496.51,2165.63L8496.55,2165.62L8496.58,2165.61L8496.61,2165.6L8496.64,2165.59L8496.67,2165.58L8496.7,2165.58L8496.73,2165.57L8496.76,2165.56L8496.79,2165.55L8496.82,2165.55L8496.86,2165.54L8496.89,2165.54L8496.92,2165.53L8496.95,2165.53L8496.98,2165.52L8497.02,2165.52L8497.05,2165.52L8497.08,2165.51L8497.11,2165.51L8497.15,2165.51L8497.18,2165.51L8497.21,2165.5L8497.25,2165.5L8497.28,2165.5L8497.31,2165.5L8497.35,2165.5ZM8497.3,2166.72L8497.28,2166.72L8497.27,2166.72L8497.25,2166.72L8497.24,2166.72L8497.22,2166.72L8497.21,2166.72L8497.19,2166.72L8497.18,2166.72L8497.16,2166.73L8497.15,2166.73L8497.13,2166.73L8497.12,2166.73L8497.1,2166.74L8497.09,2166.74L8497.08,2166.74L8497.06,2166.74L8497.05,2166.75L8497.03,2166.75L8497.02,2166.75L8497,2166.76L8496.99,2166.76L8496.98,2166.76L8496.96,2166.77L8496.95,2166.77L8496.93,2166.78L8496.92,2166.78L8496.91,2166.79L8496.89,2166.79L8496.88,2166.8L8496.86,2166.8L8496.85,2166.81L8496.84,2166.82L8496.82,2166.82L8496.81,2166.83L8496.8,2166.83L8496.78,2166.84L8496.77,2166.85L8496.74,2166.86L8496.72,2166.88L8496.69,2166.89L8496.67,2166.91L8496.64,2166.93L8496.61,2166.94L8496.59,2166.96L8496.56,2166.98L8496.54,2167L8496.52,2167.02L8496.49,2167.04L8496.47,2167.06L8496.45,2167.09L8496.42,2167.11L8496.4,2167.13L8496.38,2167.16L8496.36,2167.18L8496.34,2167.21L8496.32,2167.23L8496.3,2167.26L8496.28,2167.29L8496.26,2167.32L8496.24,2167.34L8496.23,2167.37L8496.21,2167.4L8496.19,2167.43L8496.18,2167.46L8496.16,2167.49L8496.15,2167.53L8496.14,2167.56L8496.12,2167.59L8496.11,2167.62L8496.1,2167.66L8496.09,2167.69L8496.08,2167.72L8496.07,2167.76L8496.07,2167.78L8496.07,2167.79L8496.06,2167.81L8496.06,2167.83L8496.06,2167.85L8496.05,2167.87L8496.05,2167.88L8496.05,2167.9L8496.05,2167.92L8496.04,2167.94L8496.04,2167.96L8496.04,2167.97L8496.04,2167.99L8496.04,2168.01L8496.04,2168.03L8496.04,2168.05L8496.04,2168.07L8496.04,2168.09L8496.04,2168.11L8496.04,2168.13L8496.04,2168.15L8496.04,2168.16L8496.04,2168.18L8496.04,2168.2L8496.04,2168.22L8496.04,2168.24L8496.05,2168.26L8496.05,2168.28L8496.05,2168.29L8496.05,2168.31L8496.06,2168.33L8496.06,2168.35L8496.06,2168.37L8496.07,2168.38L8496.07,2168.4L8496.07,2168.41L8496.08,2168.45L8496.09,2168.49L8496.1,2168.52L8496.11,2168.55L8496.12,2168.59L8496.14,2168.62L8496.15,2168.65L8496.16,2168.68L8496.18,2168.71L8496.19,2168.74L8496.21,2168.78L8496.23,2168.8L8496.24,2168.83L8496.26,2168.86L8496.28,2168.89L8496.3,2168.92L8496.32,2168.94L8496.34,2168.97L8496.36,2169L8496.38,2169.02L8496.4,2169.05L8496.42,2169.07L8496.45,2169.09L8496.47,2169.12L8496.49,2169.14L8496.52,2169.16L8496.54,2169.18L8496.56,2169.2L8496.59,2169.22L8496.61,2169.24L8496.64,2169.25L8496.67,2169.27L8496.69,2169.28L8496.72,2169.3L8496.74,2169.32L8496.77,2169.33L8496.8,2169.34L8496.81,2169.35L8496.82,2169.36L8496.84,2169.36L8496.85,2169.37L8496.86,2169.37L8496.88,2169.38L8496.89,2169.38L8496.91,2169.39L8496.92,2169.39L8496.93,2169.4L8496.95,2169.4L8496.96,2169.41L8496.98,2169.41L8496.99,2169.42L8497,2169.42L8497.02,2169.42L8497.03,2169.43L8497.05,2169.43L8497.06,2169.43L8497.08,2169.44L8497.09,2169.44L8497.1,2169.44L8497.12,2169.45L8497.13,2169.45L8497.15,2169.45L8497.16,2169.45L8497.18,2169.45L8497.19,2169.45L8497.21,2169.46L8497.22,2169.46L8497.24,2169.46L8497.25,2169.46L8497.27,2169.46L8497.28,2169.46L8497.3,2169.46L8497.31,2169.46L8497.33,2169.46L8497.34,2169.46L8497.36,2169.46L8497.38,2169.46L8497.39,2169.46L8497.41,2169.46L8497.42,2169.46L8497.43,2169.45L8497.45,2169.45L8497.46,2169.45L8497.48,2169.45L8497.49,2169.45L8497.51,2169.45L8497.52,2169.44L8497.54,2169.44L8497.55,2169.44L8497.57,2169.43L8497.58,2169.43L8497.59,2169.43L8497.61,2169.42L8497.62,2169.42L8497.64,2169.42L8497.65,2169.41L8497.67,2169.41L8497.68,2169.4L8497.69,2169.4L8497.71,2169.39L8497.72,2169.39L8497.74,2169.38L8497.75,2169.38L8497.76,2169.37L8497.78,2169.37L8497.79,2169.36L8497.8,2169.36L8497.82,2169.35L8497.83,2169.34L8497.84,2169.34L8497.85,2169.33L8497.88,2169.32L8497.91,2169.3L8497.94,2169.28L8497.96,2169.27L8497.99,2169.25L8498.01,2169.24L8498.04,2169.22L8498.06,2169.2L8498.09,2169.18L8498.11,2169.16L8498.14,2169.14L8498.16,2169.12L8498.18,2169.09L8498.2,2169.07L8498.23,2169.05L8498.25,2169.02L8498.27,2169L8498.29,2168.97L8498.31,2168.94L8498.33,2168.92L8498.35,2168.89L8498.37,2168.86L8498.38,2168.83L8498.4,2168.8L8498.42,2168.78L8498.43,2168.74L8498.45,2168.71L8498.46,2168.68L8498.48,2168.65L8498.49,2168.62L8498.5,2168.59L8498.51,2168.55L8498.52,2168.52L8498.53,2168.49L8498.54,2168.45L8498.55,2168.41L8498.56,2168.4L8498.56,2168.38L8498.56,2168.37L8498.57,2168.35L8498.57,2168.33L8498.57,2168.31L8498.58,2168.29L8498.58,2168.28L8498.58,2168.26L8498.58,2168.24L8498.58,2168.22L8498.59,2168.2L8498.59,2168.18L8498.59,2168.16L8498.59,2168.15L8498.59,2168.13L8498.59,2168.11L8498.59,2168.09L8498.59,2168.07L8498.59,2168.05L8498.59,2168.03L8498.59,2168.01L8498.59,2167.99L8498.59,2167.97L8498.58,2167.96L8498.58,2167.94L8498.58,2167.92L8498.58,2167.9L8498.58,2167.88L8498.57,2167.87L8498.57,2167.85L8498.57,2167.83L8498.56,2167.81L8498.56,2167.79L8498.56,2167.78L8498.55,2167.76L8498.54,2167.72L8498.53,2167.69L8498.52,2167.66L8498.51,2167.62L8498.5,2167.59L8498.49,2167.56L8498.48,2167.53L8498.46,2167.49L8498.45,2167.46L8498.43,2167.43L8498.42,2167.4L8498.4,2167.37L8498.38,2167.34L8498.37,2167.32L8498.35,2167.29L8498.33,2167.26L8498.31,2167.23L8498.29,2167.21L8498.27,2167.18L8498.25,2167.16L8498.23,2167.13L8498.2,2167.11L8498.18,2167.09L8498.16,2167.06L8498.14,2167.04L8498.11,2167.02L8498.09,2167L8498.06,2166.98L8498.04,2166.96L8498.01,2166.94L8497.99,2166.93L8497.96,2166.91L8497.94,2166.89L8497.91,2166.88L8497.88,2166.86L8497.85,2166.85L8497.84,2166.84L8497.83,2166.83L8497.82,2166.83L8497.8,2166.82L8497.79,2166.82L8497.77,2166.81L8497.76,2166.8L8497.75,2166.8L8497.74,2166.79L8497.72,2166.79L8497.71,2166.78L8497.69,2166.78L8497.68,2166.77L8497.67,2166.77L8497.65,2166.76L8497.64,2166.76L8497.62,2166.76L8497.61,2166.75L8497.59,2166.75L8497.58,2166.75L8497.57,2166.74L8497.55,2166.74L8497.54,2166.74L8497.52,2166.74L8497.51,2166.73L8497.49,2166.73L8497.48,2166.73L8497.46,2166.73L8497.45,2166.72L8497.43,2166.72L8497.42,2166.72L8497.41,2166.72L8497.39,2166.72L8497.38,2166.72L8497.36,2166.72L8497.34,2166.72L8497.33,2166.72L8497.31,2166.72L8497.3,2166.72Z" style="fill:rgb(40,57,120);"/>
            </g>
        </g>
    </g>
</svg>
